<svg width="1200" height="1200" viewBox="0 0 1200 1200" fill="none" xmlns="http://www.w3.org/2000/svg">
<g clip-path="url(#clip0_1157_4526)">
<rect width="1200" height="1200" rx="600" fill="black"/>
<mask id="path-2-inside-1_1157_4526" fill="white">
<path d="M546.302 737.648L445.357 749.439L419.66 530.829C419.361 528.285 421.32 525.945 425.539 523.811C429.758 521.676 434.843 519.91 440.795 518.511C446.72 516.881 452.337 515.638 457.648 514.784C462.931 513.698 466.616 513.032 468.705 512.788L618.382 495.304C620.471 495.06 624.211 494.858 629.603 494.697C634.967 494.305 640.721 494.219 646.863 494.439C652.978 494.429 658.335 494.975 662.935 496.08C667.534 497.184 669.983 499.008 670.283 501.553L695.98 720.163L595.034 731.955L583.981 637.918L535.248 643.611L546.302 737.648ZM532.393 619.321L581.125 613.628L570.765 525.49L522.033 531.183L532.393 619.321Z"/>
<path d="M689.987 512.267L687.051 487.283L834.292 470.083C836.38 469.839 840.12 469.636 845.512 469.475C851.109 469.056 857.094 468.943 863.468 469.137C870.048 469.072 875.637 469.591 880.236 470.696C884.836 471.8 887.299 473.74 887.625 476.516L814.62 680.977L908.604 669.998L911.541 694.982L758.382 712.874C756.294 713.118 752.451 713.449 746.855 713.868C741.463 714.029 735.594 714.129 729.246 714.167C722.872 713.973 717.269 713.338 712.438 712.261C707.838 711.156 705.491 709.203 705.397 706.4L778.054 501.979L689.987 512.267Z"/>
<path d="M1075.25 675.859L974.3 687.651L950.03 481.186L896.077 487.489L893.222 463.199L1102.07 438.802L1104.93 463.092L1050.98 469.394L1075.25 675.859Z"/>
<path d="M361.895 749.447L359.76 731.311L382.186 728.696L385.437 756.317C385.788 759.293 384.847 761.76 382.614 763.718C380.382 765.675 377.958 766.806 375.342 767.111L176.319 790.324C169.405 791.131 163.173 789.689 157.624 785.999C152.261 782.288 149.164 776.898 148.332 769.83L126.324 582.895C125.492 575.827 127.254 569.871 131.609 565.026C136.151 560.159 141.879 557.323 148.793 556.516L387.06 528.726C393.974 527.92 400.112 529.372 405.475 533.084C411.024 536.773 414.215 542.152 415.047 549.22L430.814 683.144C431.755 691.142 429.653 697.421 424.506 701.981C419.338 706.355 413.016 708.978 405.541 709.85L341.63 717.304C340.135 717.478 337.414 717.701 333.468 717.973C329.687 718.037 325.521 718.052 320.97 718.017C316.419 717.982 312.303 717.613 308.621 716.911C304.939 716.21 302.626 715.065 301.681 713.478C301.131 715.239 299.146 716.885 295.727 718.415C292.494 719.924 288.773 721.301 284.562 722.546C280.33 723.605 276.262 724.457 272.36 725.1C268.457 725.744 265.572 726.175 263.703 726.393L237.914 729.401C236.419 729.575 233.512 729.82 229.191 730.135C225.036 730.243 220.497 730.301 215.572 730.31C210.813 730.11 206.674 729.556 203.157 728.646C199.64 727.737 197.772 726.352 197.553 724.492L184.743 615.679C184.502 613.633 185.998 611.856 189.23 610.347C192.441 608.653 196.349 607.254 200.955 606.151C205.726 604.841 210.157 603.853 214.246 603.187C218.5 602.314 221.375 601.79 222.87 601.616L326.586 589.519C328.828 589.257 332.027 589.073 336.182 588.965C340.502 588.65 344.949 588.603 349.521 588.824C354.259 588.837 358.293 589.309 361.623 590.241C364.931 590.986 366.706 592.382 366.947 594.428L378.64 693.754L405.831 690.583C407.139 690.43 407.914 689.774 408.156 688.615C408.399 687.455 408.465 686.41 408.356 685.48L392.655 552.115C392.523 550.999 392.216 549.998 391.733 549.111C391.414 548.017 390.508 547.557 389.013 547.731L151.307 575.456C149.999 575.609 149.224 576.265 148.981 577.424C148.717 578.398 148.651 579.443 148.782 580.559L170.724 766.935C170.812 767.679 170.993 768.413 171.267 769.135C171.564 770.043 172.036 770.837 172.684 771.515L361.895 749.447ZM274.924 705.851L300.152 702.909L289.576 613.068L264.347 616.011L274.924 705.851Z"/>
<path d="M183.602 808.428L183.047 803.709L217.159 799.724C217.531 799.68 218.232 799.645 219.264 799.619C220.337 799.54 221.465 799.526 222.647 799.575C223.87 799.573 224.918 799.685 225.791 799.911C226.659 800.091 227.123 800.436 227.183 800.945L230.707 830.926C230.762 831.388 230.39 831.83 229.593 832.252C228.796 832.673 227.804 833.047 226.62 833.373C225.476 833.647 224.375 833.893 223.319 834.11C222.303 834.276 221.61 834.38 221.238 834.424L195.549 837.425C195.178 837.468 194.456 837.529 193.383 837.607C192.351 837.634 191.224 837.649 190.001 837.651C188.819 837.601 187.791 837.463 186.917 837.237C186.044 837.011 185.58 836.666 185.526 836.204L183.282 817.119C183.222 816.61 183.594 816.168 184.397 815.792C185.194 815.371 186.165 815.023 187.309 814.749C188.494 814.423 189.594 814.177 190.61 814.011C191.666 813.794 192.38 813.664 192.751 813.62L198.947 812.897C199.458 812.837 200.18 812.776 201.114 812.714C202.094 812.646 203.128 812.643 204.218 812.703C205.301 812.717 206.277 812.814 207.145 812.994C208.013 813.174 208.588 813.459 208.869 813.848C208.921 813.889 208.955 813.979 208.971 814.118L207.968 805.582L183.602 808.428ZM209.248 816.477L203.053 817.201L204.741 831.567L210.937 830.843L209.248 816.477Z"/>
<path d="M271.299 823.792L271.854 828.511L242.615 831.927C242.243 831.97 241.521 832.031 240.448 832.109C239.416 832.136 238.289 832.151 237.066 832.153C235.884 832.103 234.856 831.965 233.983 831.739C233.109 831.513 232.645 831.168 232.591 830.706C232.585 830.659 232.907 829.989 233.554 828.694C234.196 827.352 235.007 825.64 235.985 823.555C237.009 821.466 238.113 819.25 239.297 816.907C240.474 814.518 241.614 812.204 242.715 809.965C243.863 807.72 244.837 805.801 245.637 804.206C246.432 802.566 246.965 801.495 247.236 800.994L230.04 803.003L229.486 798.284L258.029 794.95C258.4 794.906 259.102 794.871 260.134 794.845C261.206 794.766 262.334 794.752 263.516 794.801C264.739 794.799 265.787 794.911 266.661 795.137C267.529 795.317 267.993 795.662 268.053 796.171C268.058 796.217 267.74 796.911 267.097 798.252C266.45 799.547 265.614 801.24 264.589 803.329C263.611 805.413 262.533 807.65 261.355 810.039C260.172 812.381 259.006 814.675 257.859 816.92C256.758 819.159 255.809 821.099 255.014 822.739C254.214 824.334 253.678 825.381 253.408 825.882L271.299 823.792Z"/>
<path d="M270.59 799.673L270.035 794.954L276.301 794.222L275.158 784.506L293.259 782.392L294.401 792.108L302.755 791.132L303.31 795.851L294.956 796.827L297.762 820.701L306.116 819.725L306.671 824.444L288.57 826.559C288.199 826.602 287.477 826.663 286.404 826.741C285.372 826.768 284.245 826.782 283.022 826.785C281.84 826.735 280.812 826.597 279.938 826.371C279.065 826.145 278.601 825.8 278.547 825.337L275.814 802.088C275.765 801.672 276.026 801.29 276.596 800.942C277.213 800.588 277.978 800.288 278.89 800.041C279.796 799.747 280.708 799.5 281.626 799.299C282.589 799.092 283.417 798.925 284.107 798.798L284.026 798.104L270.59 799.673Z"/>
<path d="M318.873 814.013L319.762 821.578C319.806 821.948 319.421 822.275 318.607 822.557C317.84 822.835 317.021 823.071 316.15 823.266C315.273 823.416 314.673 823.509 314.348 823.547L308.778 824.198L307.889 816.633C307.846 816.263 308.208 815.939 308.975 815.662C309.789 815.38 310.634 815.164 311.51 815.014C312.427 814.813 313.025 814.697 313.304 814.664L318.873 814.013Z"/>
<path d="M341.48 820.378L321.987 822.655L318.185 790.314C318.125 789.806 318.497 789.364 319.3 788.988C320.097 788.567 321.068 788.219 322.212 787.945C323.397 787.619 324.497 787.373 325.512 787.207C326.569 786.99 327.283 786.86 327.654 786.816L351.324 784.051C351.696 784.008 352.348 783.955 353.282 783.893C354.262 783.826 355.296 783.822 356.386 783.882C357.516 783.891 358.538 783.983 359.453 784.157C360.362 784.286 360.957 784.544 361.238 784.934C361.421 784.49 361.916 784.104 362.725 783.775C363.574 783.394 364.501 783.075 365.506 782.817C366.557 782.553 367.544 782.344 368.466 782.19C369.43 781.983 370.144 781.853 370.608 781.799L374.994 781.286C375.365 781.243 376.067 781.208 377.099 781.181C378.172 781.103 379.299 781.088 380.481 781.138C381.704 781.136 382.753 781.248 383.626 781.474C384.494 781.654 384.958 781.999 385.018 782.507L388.82 814.848L369.327 817.125L365.802 787.144L361.625 787.632L365.15 817.613L345.657 819.89L342.133 789.909L337.955 790.397L341.48 820.378Z"/>
<path d="M388.674 784.472L388.119 779.753L422.232 775.768C422.603 775.725 423.305 775.69 424.337 775.663C425.41 775.585 426.537 775.57 427.719 775.62C428.942 775.618 429.99 775.73 430.864 775.956C431.732 776.136 432.196 776.481 432.256 776.99L435.78 806.97C435.834 807.433 435.463 807.875 434.665 808.297C433.868 808.718 432.877 809.092 431.692 809.418C430.548 809.692 429.448 809.938 428.391 810.155C427.375 810.321 426.682 810.425 426.311 810.468L400.622 813.469C400.251 813.513 399.528 813.574 398.456 813.652C397.424 813.679 396.296 813.693 395.073 813.695C393.891 813.646 392.863 813.508 391.99 813.282C391.116 813.055 390.652 812.711 390.598 812.248L388.355 793.163C388.295 792.654 388.666 792.212 389.469 791.837C390.266 791.415 391.237 791.068 392.381 790.793C393.566 790.467 394.666 790.221 395.682 790.056C396.738 789.839 397.452 789.708 397.824 789.665L404.02 788.941C404.53 788.882 405.252 788.821 406.186 788.759C407.166 788.691 408.201 788.687 409.29 788.748C410.374 788.762 411.35 788.859 412.218 789.039C413.086 789.219 413.66 789.504 413.941 789.893C413.993 789.934 414.027 790.024 414.043 790.162L413.04 781.626L388.674 784.472ZM414.321 792.522L408.125 793.246L409.814 807.612L416.01 806.888L414.321 792.522Z"/>
<path d="M457.433 806.833L437.941 809.11L434.139 776.769C434.079 776.261 434.451 775.819 435.254 775.443C436.051 775.022 437.022 774.674 438.165 774.4C439.35 774.074 440.451 773.828 441.466 773.662C442.523 773.445 443.237 773.315 443.608 773.271L467.278 770.506C467.649 770.463 468.302 770.41 469.236 770.348C470.216 770.281 471.25 770.277 472.34 770.337C473.47 770.346 474.492 770.438 475.406 770.612C476.315 770.741 476.91 770.999 477.191 771.389C477.375 770.945 477.87 770.559 478.678 770.23C479.528 769.849 480.455 769.53 481.459 769.272C482.511 769.008 483.498 768.799 484.42 768.645C485.384 768.438 486.098 768.308 486.562 768.254L490.948 767.741C491.319 767.698 492.021 767.663 493.053 767.636C494.126 767.558 495.253 767.543 496.435 767.593C497.658 767.591 498.707 767.703 499.58 767.929C500.448 768.109 500.912 768.453 500.972 768.962L504.773 801.303L485.28 803.58L481.756 773.599L477.579 774.087L481.103 804.068L461.611 806.345L458.086 776.364L453.909 776.852L457.433 806.833Z"/>
<path d="M521.12 784.69L520.565 779.97L541.45 777.531L542.005 782.25L521.12 784.69Z"/>
<path d="M581.456 745.56L600.949 743.283L606.097 787.075C606.151 787.538 605.78 787.98 604.982 788.401C604.185 788.822 603.194 789.196 602.009 789.522C600.865 789.797 599.765 790.042 598.708 790.26C597.692 790.425 596.999 790.53 596.628 790.573L571.565 793.501C571.194 793.544 570.472 793.605 569.399 793.683C568.367 793.71 567.24 793.725 566.017 793.727C564.835 793.677 563.807 793.539 562.933 793.313C562.06 793.087 561.596 792.742 561.542 792.28L558.017 762.299C557.958 761.79 558.329 761.348 559.132 760.973C559.929 760.551 560.9 760.203 562.044 759.929C563.229 759.603 564.329 759.357 565.345 759.191C566.401 758.974 567.115 758.844 567.486 758.801L573.125 758.142C573.636 758.082 574.358 758.021 575.292 757.959C576.272 757.892 577.306 757.888 578.396 757.948C579.479 757.962 580.455 758.06 581.323 758.24C582.191 758.42 582.766 758.704 583.047 759.093L581.456 745.56ZM580.757 787.643L586.326 786.992L583.357 761.731L577.788 762.381L580.757 787.643Z"/>
<path d="M651.78 779.346L652.335 784.065L618.223 788.05C617.851 788.094 617.129 788.155 616.056 788.233C615.024 788.26 613.897 788.274 612.674 788.276C611.492 788.227 610.464 788.089 609.591 787.863C608.717 787.636 608.253 787.292 608.199 786.829L604.675 756.848C604.615 756.34 604.986 755.897 605.789 755.522C606.586 755.101 607.557 754.753 608.701 754.479C609.886 754.153 610.986 753.907 612.002 753.741C613.059 753.524 613.772 753.394 614.144 753.35L639.206 750.423C639.577 750.379 640.279 750.344 641.311 750.318C642.384 750.239 643.511 750.225 644.693 750.274C645.916 750.272 646.965 750.384 647.838 750.61C648.706 750.79 649.17 751.135 649.23 751.644L651.596 771.77C651.65 772.232 651.278 772.675 650.481 773.096C649.684 773.517 648.693 773.891 647.508 774.217C646.364 774.492 645.263 774.737 644.207 774.955C643.191 775.12 642.498 775.225 642.126 775.268L636.487 775.927C636.023 775.981 635.301 776.042 634.321 776.109C633.341 776.177 632.309 776.204 631.225 776.19C630.136 776.129 629.158 776.009 628.289 775.829C627.421 775.649 626.847 775.364 626.566 774.975L627.414 782.193L651.78 779.346ZM626.256 772.338L631.825 771.687L630.014 756.28L624.445 756.931L626.256 772.338Z"/>
<path d="M690.319 744.452L690.874 749.171L671.102 751.481L672.293 761.613L680.369 760.67C680.74 760.626 681.39 760.551 682.318 760.442C683.293 760.328 684.389 760.247 685.606 760.199C686.865 760.099 688.062 760.076 689.198 760.131C690.374 760.134 691.353 760.254 692.134 760.492C692.909 760.682 693.326 761.032 693.386 761.541L695.165 776.67C695.219 777.133 694.848 777.575 694.05 777.997C693.253 778.418 692.262 778.792 691.077 779.118C689.933 779.392 688.833 779.638 687.776 779.855C686.76 780.021 686.067 780.125 685.696 780.169L655.133 783.739L654.579 779.019L675.394 776.588L674.171 766.178L666.095 767.121C665.724 767.165 665.051 767.243 664.076 767.357C663.148 767.465 662.055 767.57 660.796 767.67C659.578 767.718 658.381 767.741 657.205 767.738C656.069 767.683 655.111 767.537 654.33 767.3C653.55 767.062 653.132 766.712 653.078 766.25L651.332 751.398C651.272 750.889 651.644 750.447 652.446 750.072C653.244 749.651 654.214 749.303 655.358 749.028C656.543 748.702 657.644 748.457 658.659 748.291C659.716 748.074 660.43 747.943 660.801 747.9L690.319 744.452Z"/>
<path d="M712.583 738.334L693.09 740.611L692.43 734.989C692.37 734.48 692.741 734.038 693.544 733.663C694.341 733.242 695.312 732.894 696.456 732.619C697.641 732.293 698.741 732.048 699.757 731.882C700.814 731.665 701.527 731.534 701.899 731.491L711.645 730.353L712.583 738.334ZM693.429 744.089L712.922 741.812L717 776.512L697.508 778.789L693.429 744.089Z"/>
<path d="M739.512 781.41L745.081 780.759L744.021 771.737L728.705 773.526C728.334 773.57 727.612 773.631 726.539 773.709C725.507 773.736 724.379 773.75 723.156 773.752C721.974 773.703 720.946 773.565 720.073 773.339C719.199 773.112 718.736 772.768 718.681 772.305L717.719 764.116C717.659 763.607 718.03 763.165 718.833 762.79C719.63 762.368 720.601 762.02 721.745 761.746C722.93 761.42 724.03 761.174 725.046 761.009C726.102 760.792 726.816 760.661 727.188 760.618L742.503 758.829L740.684 743.353L735.115 744.003L736.526 756.009L726.78 757.148C726.409 757.191 725.686 757.252 724.613 757.331C723.582 757.357 722.454 757.372 721.231 757.374C720.049 757.324 719.021 757.187 718.148 756.96C717.274 756.734 716.81 756.39 716.756 755.927L715.345 743.921C715.285 743.412 715.656 742.97 716.459 742.595C717.256 742.173 718.227 741.825 719.371 741.551C720.556 741.225 721.656 740.979 722.672 740.813C723.729 740.596 724.443 740.466 724.814 740.422L762.059 736.072L762.614 740.791L751.545 742.084L751.618 742.709C752.32 742.673 753.14 742.648 754.079 742.632C755.065 742.611 756.032 742.638 756.982 742.715C757.979 742.786 758.795 742.925 759.431 743.133C760.113 743.334 760.479 743.643 760.528 744.06L762.274 758.911C762.328 759.374 761.957 759.816 761.159 760.237C760.362 760.659 759.371 761.033 758.186 761.359C757.042 761.633 755.942 761.879 754.885 762.096C753.869 762.262 753.176 762.366 752.805 762.409L737.489 764.199L737.897 767.669L753.213 765.879C753.584 765.836 754.286 765.801 755.317 765.774C756.39 765.696 757.518 765.681 758.7 765.731C759.923 765.729 760.971 765.841 761.845 766.067C762.713 766.247 763.177 766.592 763.236 767.101L764.852 780.842C764.906 781.304 764.535 781.746 763.737 782.168C762.94 782.589 761.946 782.94 760.756 783.22C759.617 783.54 758.517 783.786 757.455 783.957C756.445 784.169 755.754 784.297 755.383 784.34L730.32 787.268C729.949 787.311 729.224 787.349 728.146 787.381C727.119 787.454 725.992 787.468 724.763 787.424C723.587 787.421 722.562 787.306 721.688 787.08C720.815 786.854 720.351 786.509 720.296 786.046L719.644 780.494C719.584 779.986 719.953 779.52 720.75 779.099C721.553 778.724 722.524 778.376 723.662 778.055C724.853 777.775 725.953 777.53 726.963 777.318C728.025 777.147 728.742 777.04 729.113 776.996L738.859 775.858L739.512 781.41Z"/>
<path d="M786.996 768.335L767.503 770.612L763.424 735.912L798.233 731.846C798.604 731.803 799.306 731.768 800.338 731.741C801.411 731.662 802.538 731.648 803.72 731.698C804.943 731.695 805.992 731.808 806.865 732.034C807.733 732.214 808.197 732.558 808.257 733.067L812.058 765.408L792.565 767.685L789.041 737.704L783.472 738.354L786.996 768.335Z"/>
<path d="M865.341 724.007L865.896 728.726L846.125 731.036L847.316 741.168L855.391 740.225C855.763 740.181 856.413 740.105 857.341 739.997C858.315 739.883 859.411 739.802 860.629 739.754C861.888 739.653 863.085 739.631 864.22 739.686C865.397 739.689 866.376 739.809 867.156 740.046C867.931 740.237 868.349 740.587 868.409 741.096L870.187 756.225C870.242 756.688 869.87 757.13 869.073 757.551C868.275 757.973 867.284 758.347 866.099 758.673C864.955 758.947 863.855 759.193 862.799 759.41C861.783 759.576 861.089 759.68 860.718 759.723L830.156 763.293L829.601 758.574L850.417 756.143L849.193 745.733L841.118 746.676C840.746 746.719 840.073 746.798 839.099 746.912C838.171 747.02 837.077 747.125 835.819 747.225C834.601 747.273 833.404 747.296 832.227 747.292C831.092 747.238 830.134 747.091 829.353 746.854C828.572 746.617 828.155 746.267 828.1 745.805L826.355 730.953C826.295 730.444 826.666 730.002 827.469 729.627C828.266 729.205 829.237 728.857 830.381 728.583C831.566 728.257 832.666 728.011 833.682 727.846C834.738 727.629 835.452 727.498 835.824 727.455L865.341 724.007Z"/>
<path d="M869.169 729.751L868.615 725.032L874.88 724.3L873.738 714.584L891.839 712.469L892.981 722.185L901.335 721.209L901.889 725.929L893.535 726.904L896.342 750.778L904.696 749.802L905.25 754.521L887.15 756.636C886.779 756.679 886.057 756.74 884.984 756.819C883.952 756.845 882.824 756.86 881.601 756.862C880.419 756.812 879.391 756.674 878.518 756.448C877.644 756.222 877.18 755.877 877.126 755.415L874.393 732.166C874.344 731.749 874.605 731.367 875.176 731.019C875.793 730.665 876.558 730.365 877.469 730.118C878.376 729.824 879.288 729.577 880.205 729.376C881.169 729.17 881.996 729.003 882.687 728.875L882.605 728.181L869.169 729.751Z"/>
<path d="M903.279 719.575L922.772 717.298L926.296 747.279L931.866 746.628L928.342 716.648L947.834 714.371L951.636 746.711C951.69 747.174 951.319 747.616 950.521 748.037C949.724 748.459 948.733 748.832 947.548 749.158C946.404 749.433 945.304 749.678 944.247 749.896C943.232 750.061 942.538 750.166 942.167 750.209L917.105 753.137C916.733 753.18 916.011 753.241 914.938 753.319C913.906 753.346 912.779 753.361 911.556 753.363C910.374 753.313 909.346 753.175 908.473 752.949C907.599 752.723 907.135 752.378 907.081 751.916L903.279 719.575Z"/>
<path d="M973.653 699.746L993.146 697.469L998.293 741.261C998.348 741.723 997.976 742.165 997.179 742.587C996.381 743.008 995.39 743.382 994.205 743.708C993.061 743.982 991.961 744.228 990.904 744.445C989.889 744.611 989.195 744.715 988.824 744.759L963.762 747.686C963.39 747.73 962.668 747.791 961.596 747.869C960.564 747.896 959.436 747.91 958.213 747.913C957.031 747.863 956.003 747.725 955.13 747.499C954.256 747.272 953.792 746.928 953.738 746.465L950.214 716.485C950.154 715.976 950.526 715.534 951.328 715.158C952.126 714.737 953.096 714.389 954.24 714.115C955.425 713.789 956.525 713.543 957.541 713.377C958.598 713.16 959.312 713.03 959.683 712.986L965.322 712.328C965.832 712.268 966.555 712.207 967.488 712.145C968.468 712.077 969.503 712.074 970.592 712.134C971.676 712.148 972.652 712.245 973.52 712.425C974.388 712.605 974.963 712.89 975.244 713.279L973.653 699.746ZM972.954 741.829L978.523 741.178L975.553 715.917L969.984 716.567L972.954 741.829Z"/>
<path d="M1015.75 702.919L996.255 705.197L995.595 699.575C995.535 699.066 995.906 698.624 996.709 698.249C997.506 697.828 998.477 697.48 999.621 697.205C1000.81 696.879 1001.91 696.633 1002.92 696.468C1003.98 696.251 1004.69 696.12 1005.06 696.077L1014.81 694.939L1015.75 702.919ZM996.594 708.675L1016.09 706.398L1020.17 741.098L1000.67 743.375L996.594 708.675Z"/>
<path d="M1057.12 736.781L1032.06 739.708C1031.69 739.752 1030.96 739.813 1029.89 739.891C1028.86 739.918 1027.73 739.932 1026.51 739.935C1025.33 739.885 1024.3 739.747 1023.43 739.521C1022.55 739.295 1022.09 738.95 1022.03 738.487L1018.51 708.507C1018.45 707.998 1018.82 707.556 1019.62 707.18C1020.42 706.759 1021.39 706.411 1022.54 706.137C1023.72 705.811 1024.82 705.565 1025.84 705.399C1026.89 705.182 1027.61 705.052 1027.98 705.009L1053.04 702.081C1053.41 702.037 1054.11 702.002 1055.15 701.976C1056.22 701.897 1057.35 701.883 1058.53 701.932C1059.75 701.93 1060.8 702.042 1061.67 702.269C1062.54 702.449 1063 702.793 1063.06 703.302L1066.59 733.283C1066.64 733.745 1066.27 734.187 1065.47 734.609C1064.68 735.03 1063.69 735.404 1062.5 735.73C1061.36 736.004 1060.26 736.25 1059.2 736.467C1058.18 736.633 1057.49 736.737 1057.12 736.781ZM1041.25 733.851L1046.82 733.2L1043.85 707.939L1038.28 708.589L1041.25 733.851Z"/>
<path d="M84.5696 461.253C88.3776 460.558 92.0294 463.072 92.7262 466.868L99.844 505.643C100.541 509.439 98.0187 513.08 94.2108 513.774L77.498 516.823C73.69 517.518 70.0382 515.004 69.3414 511.208L62.2236 472.433C61.5268 468.637 64.0489 464.996 67.8568 464.301L84.5696 461.253Z"/>
<path d="M79.4264 383.124C83.2975 383.154 86.4118 386.306 86.3824 390.165L86.0826 429.582C86.0533 433.441 82.8914 436.546 79.0203 436.517L62.0305 436.388C58.1594 436.359 55.0451 433.207 55.0744 429.348L55.3742 389.93C55.4036 386.071 58.5655 382.967 62.4365 382.996L79.4264 383.124Z"/>
<path d="M85.6432 300.171C89.4776 300.701 92.1546 304.23 91.6225 308.052L86.1871 347.097C85.655 350.919 82.1152 353.588 78.2808 353.058L61.4517 350.73C57.6173 350.199 54.9402 346.67 55.4723 342.848L60.9078 303.803C61.4399 299.981 64.9797 297.312 68.8141 297.842L85.6432 300.171Z"/>
<path d="M108.008 536.092C111.098 533.768 115.493 534.381 117.825 537.462L141.641 568.929C143.972 572.01 143.357 576.391 140.267 578.715L126.704 588.917C123.614 591.241 119.219 590.628 116.887 587.547L93.0711 556.08C90.7395 552.999 91.3545 548.618 94.4448 546.293L108.008 536.092Z"/>
<path d="M95.375 507.935C97.1621 507.193 99.2136 508.036 99.9573 509.818L112.428 539.69C113.172 541.471 112.326 543.516 110.539 544.257L98.7919 549.131C97.0049 549.872 94.9534 549.029 94.2097 547.248L81.739 517.376C80.9953 515.595 81.841 513.549 83.628 512.808L95.375 507.935Z"/>
<path d="M76.4644 428.699C78.3495 428.261 80.2337 429.43 80.6729 431.309L88.0375 462.82C88.4767 464.7 87.3046 466.578 85.4195 467.016L73.0277 469.894C71.1426 470.332 69.2584 469.163 68.8192 467.284L61.4545 435.773C61.0153 433.893 62.1875 432.015 64.0726 431.577L76.4644 428.699Z"/>
<path d="M75.0242 347.992C76.9593 347.948 78.5633 349.477 78.6069 351.406L79.3372 383.753C79.3807 385.682 77.8473 387.281 75.9122 387.324L63.1918 387.61C61.2567 387.653 59.6527 386.125 59.6091 384.196L58.8788 351.848C58.8353 349.919 60.3687 348.32 62.3038 348.277L75.0242 347.992Z"/>
<path d="M99.7669 216.859C103.562 217.621 106.018 221.306 105.254 225.089L97.4427 263.731C96.678 267.514 92.9817 269.963 89.1868 269.2L72.5312 265.855C68.7363 265.092 66.2799 261.408 67.0446 257.625L74.8555 218.982C75.6202 215.199 79.3165 212.751 83.1114 213.513L99.7669 216.859Z"/>
<path d="M124.048 142.398C127.632 143.855 129.352 147.934 127.89 151.507L112.951 188.005C111.489 191.578 107.397 193.292 103.813 191.834L88.0819 185.436C84.4976 183.978 82.7776 179.899 84.2401 176.326L99.179 139.829C100.641 136.255 104.733 134.541 108.317 135.999L124.048 142.398Z"/>
<path d="M160.674 67.6541C164.038 69.5639 165.212 73.8306 163.296 77.184L143.726 111.437C141.811 114.79 137.531 115.96 134.167 114.051L119.403 105.668C116.039 103.758 114.865 99.4916 116.781 96.1383L136.351 61.8853C138.267 58.532 142.547 57.3618 145.911 59.2717L160.674 67.6541Z"/>
<path d="M87.3796 264.71C89.293 265.002 90.6068 266.784 90.3141 268.692L85.4068 300.675C85.1141 302.582 83.3258 303.892 81.4125 303.6L68.835 301.683C66.9217 301.391 65.6079 299.608 65.9005 297.701L70.8079 265.717C71.1006 263.81 72.8889 262.5 74.8022 262.792L87.3796 264.71Z"/>
<path d="M104.347 183.629C106.26 183.92 107.576 185.701 107.285 187.609L102.405 219.596C102.114 221.504 100.326 222.815 98.4128 222.525L85.8337 220.618C83.9202 220.328 82.6048 218.546 82.8959 216.639L87.776 184.651C88.067 182.743 89.8542 181.432 91.7678 181.722L104.347 183.629Z"/>
<path d="M133.026 108.142C134.84 108.817 135.761 110.829 135.084 112.637L123.731 142.949C123.054 144.756 121.036 145.674 119.222 145L107.302 140.563C105.489 139.888 104.568 137.876 105.245 136.068L116.597 105.756C117.274 103.949 119.293 103.03 121.106 103.705L133.026 108.142Z"/>
<path d="M1075.09 355.898C1071.28 355.203 1067.63 357.717 1066.93 361.514L1059.82 400.289C1059.12 404.085 1061.64 407.725 1065.45 408.42L1082.16 411.468C1085.97 412.163 1089.62 409.649 1090.32 405.853L1097.44 367.078C1098.13 363.282 1095.61 359.641 1091.8 358.947L1075.09 355.898Z"/>
<path d="M1080.23 277.769C1076.36 277.799 1073.25 280.951 1073.28 284.81L1073.58 324.228C1073.61 328.087 1076.77 331.191 1080.64 331.162L1097.63 331.033C1101.5 331.004 1104.61 327.852 1104.59 323.993L1104.29 284.575C1104.26 280.716 1101.09 277.612 1097.22 277.641L1080.23 277.769Z"/>
<path d="M1074.02 194.816C1070.18 195.346 1067.51 198.875 1068.04 202.697L1073.47 241.742C1074 245.565 1077.54 248.233 1081.38 247.703L1098.21 245.375C1102.04 244.844 1104.72 241.316 1104.19 237.493L1098.75 198.448C1098.22 194.626 1094.68 191.957 1090.85 192.488L1074.02 194.816Z"/>
<path d="M1051.65 430.738C1048.56 428.413 1044.17 429.026 1041.83 432.107L1018.02 463.574C1015.69 466.655 1016.3 471.036 1019.39 473.361L1032.96 483.562C1036.05 485.886 1040.44 485.273 1042.77 482.192L1066.59 450.725C1068.92 447.644 1068.31 443.263 1065.22 440.939L1051.65 430.738Z"/>
<path d="M1064.28 402.58C1062.5 401.838 1060.45 402.682 1059.7 404.463L1047.23 434.335C1046.49 436.116 1047.33 438.161 1049.12 438.903L1060.87 443.776C1062.66 444.518 1064.71 443.674 1065.45 441.893L1077.92 412.021C1078.66 410.24 1077.82 408.195 1076.03 407.453L1064.28 402.58Z"/>
<path d="M1083.2 323.344C1081.31 322.907 1079.43 324.075 1078.99 325.954L1071.62 357.466C1071.18 359.345 1072.36 361.223 1074.24 361.661L1086.63 364.539C1088.52 364.977 1090.4 363.808 1090.84 361.929L1098.21 330.418C1098.64 328.539 1097.47 326.66 1095.59 326.222L1083.2 323.344Z"/>
<path d="M1084.64 242.637C1082.7 242.593 1081.1 244.122 1081.05 246.051L1080.32 278.398C1080.28 280.327 1081.81 281.926 1083.75 281.97L1096.47 282.255C1098.4 282.299 1100.01 280.77 1100.05 278.841L1100.78 246.494C1100.82 244.565 1099.29 242.966 1097.36 242.922L1084.64 242.637Z"/>
<path d="M1060.71 111.504C1056.91 112.266 1054.45 115.951 1055.22 119.734L1063.03 158.376C1063.79 162.159 1067.49 164.608 1071.29 163.846L1087.94 160.5C1091.74 159.738 1094.19 156.053 1093.43 152.27L1085.62 113.628C1084.85 109.845 1081.16 107.396 1077.36 108.158L1060.71 111.504Z"/>
<path d="M1036.42 37.0428C1032.84 38.5007 1031.12 42.5791 1032.58 46.1522L1047.52 82.6498C1048.98 86.2229 1053.07 87.9376 1056.66 86.4796L1072.39 80.0808C1075.97 78.6229 1077.69 74.5444 1076.23 70.9713L1061.29 34.4738C1059.83 30.9007 1055.74 29.186 1052.16 30.644L1036.42 37.0428Z"/>
<path d="M999.798 -37.7007C996.434 -35.7909 995.26 -31.5242 997.176 -28.1708L1016.75 6.08213C1018.66 9.43547 1022.94 10.6056 1026.31 8.69575L1041.07 0.313414C1044.43 -1.59646 1045.61 -5.86314 1043.69 -9.21648L1024.12 -43.4694C1022.21 -46.8228 1017.93 -47.9929 1014.56 -46.0831L999.798 -37.7007Z"/>
<path d="M1074.29 158.432C1072.37 158.652 1070.99 160.384 1071.21 162.301L1074.91 194.446C1075.13 196.363 1076.86 197.739 1078.79 197.519L1091.43 196.075C1093.35 195.855 1094.73 194.123 1094.51 192.206L1090.81 160.061C1090.59 158.144 1088.86 156.768 1086.93 156.988L1074.29 158.432Z"/>
<path d="M1056.13 78.2747C1054.21 78.5648 1052.9 80.3464 1053.19 82.254L1058.07 114.242C1058.36 116.149 1060.15 117.46 1062.06 117.17L1074.64 115.263C1076.55 114.973 1077.87 113.191 1077.58 111.284L1072.7 79.2962C1072.41 77.3886 1070.62 76.0774 1068.7 76.3675L1056.13 78.2747Z"/>
<path d="M1027.45 2.78702C1025.63 3.46192 1024.71 5.47443 1025.39 7.28209L1036.74 37.5937C1037.42 39.4014 1039.44 40.3197 1041.25 39.6448L1053.17 35.2083C1054.98 34.5334 1055.9 32.5209 1055.23 30.7132L1043.87 0.401565C1043.2 -1.4061 1041.18 -2.32438 1039.37 -1.64948L1027.45 2.78702Z"/>
<path d="M300.152 702.909L274.924 705.851L264.347 616.011L289.576 613.068L300.152 702.909Z"/>
</mask>
<path d="M546.302 737.648L445.357 749.439L419.66 530.829C419.361 528.285 421.32 525.945 425.539 523.811C429.758 521.676 434.843 519.91 440.795 518.511C446.72 516.881 452.337 515.638 457.648 514.784C462.931 513.698 466.616 513.032 468.705 512.788L618.382 495.304C620.471 495.06 624.211 494.858 629.603 494.697C634.967 494.305 640.721 494.219 646.863 494.439C652.978 494.429 658.335 494.975 662.935 496.08C667.534 497.184 669.983 499.008 670.283 501.553L695.98 720.163L595.034 731.955L583.981 637.918L535.248 643.611L546.302 737.648ZM532.393 619.321L581.125 613.628L570.765 525.49L522.033 531.183L532.393 619.321Z" fill="white"/>
<path d="M689.987 512.267L687.051 487.283L834.292 470.083C836.38 469.839 840.12 469.636 845.512 469.475C851.109 469.056 857.094 468.943 863.468 469.137C870.048 469.072 875.637 469.591 880.236 470.696C884.836 471.8 887.299 473.74 887.625 476.516L814.62 680.977L908.604 669.998L911.541 694.982L758.382 712.874C756.294 713.118 752.451 713.449 746.855 713.868C741.463 714.029 735.594 714.129 729.246 714.167C722.872 713.973 717.269 713.338 712.438 712.261C707.838 711.156 705.491 709.203 705.397 706.4L778.054 501.979L689.987 512.267Z" fill="white"/>
<path d="M1075.25 675.859L974.3 687.651L950.03 481.186L896.077 487.489L893.222 463.199L1102.07 438.802L1104.93 463.092L1050.98 469.394L1075.25 675.859Z" fill="white"/>
<path d="M361.895 749.447L359.76 731.311L382.186 728.696L385.437 756.317C385.788 759.293 384.847 761.76 382.614 763.718C380.382 765.675 377.958 766.806 375.342 767.111L176.319 790.324C169.405 791.131 163.173 789.689 157.624 785.999C152.261 782.288 149.164 776.898 148.332 769.83L126.324 582.895C125.492 575.827 127.254 569.871 131.609 565.026C136.151 560.159 141.879 557.323 148.793 556.516L387.06 528.726C393.974 527.92 400.112 529.372 405.475 533.084C411.024 536.773 414.215 542.152 415.047 549.22L430.814 683.144C431.755 691.142 429.653 697.421 424.506 701.981C419.338 706.355 413.016 708.978 405.541 709.85L341.63 717.304C340.135 717.478 337.414 717.701 333.468 717.973C329.687 718.037 325.521 718.052 320.97 718.017C316.419 717.982 312.303 717.613 308.621 716.911C304.939 716.21 302.626 715.065 301.681 713.478C301.131 715.239 299.146 716.885 295.727 718.415C292.494 719.924 288.773 721.301 284.562 722.546C280.33 723.605 276.262 724.457 272.36 725.1C268.457 725.744 265.572 726.175 263.703 726.393L237.914 729.401C236.419 729.575 233.512 729.82 229.191 730.135C225.036 730.243 220.497 730.301 215.572 730.31C210.813 730.11 206.674 729.556 203.157 728.646C199.64 727.737 197.772 726.352 197.553 724.492L184.743 615.679C184.502 613.633 185.998 611.856 189.23 610.347C192.441 608.653 196.349 607.254 200.955 606.151C205.726 604.841 210.157 603.853 214.246 603.187C218.5 602.314 221.375 601.79 222.87 601.616L326.586 589.519C328.828 589.257 332.027 589.073 336.182 588.965C340.502 588.65 344.949 588.603 349.521 588.824C354.259 588.837 358.293 589.309 361.623 590.241C364.931 590.986 366.706 592.382 366.947 594.428L378.64 693.754L405.831 690.583C407.139 690.43 407.914 689.774 408.156 688.615C408.399 687.455 408.465 686.41 408.356 685.48L392.655 552.115C392.523 550.999 392.216 549.998 391.733 549.111C391.414 548.017 390.508 547.557 389.013 547.731L151.307 575.456C149.999 575.609 149.224 576.265 148.981 577.424C148.717 578.398 148.651 579.443 148.782 580.559L170.724 766.935C170.812 767.679 170.993 768.413 171.267 769.135C171.564 770.043 172.036 770.837 172.684 771.515L361.895 749.447ZM274.924 705.851L300.152 702.909L289.576 613.068L264.347 616.011L274.924 705.851Z" fill="white"/>
<path d="M183.602 808.428L183.047 803.709L217.159 799.724C217.531 799.68 218.232 799.645 219.264 799.619C220.337 799.54 221.465 799.526 222.647 799.575C223.87 799.573 224.918 799.685 225.791 799.911C226.659 800.091 227.123 800.436 227.183 800.945L230.707 830.926C230.762 831.388 230.39 831.83 229.593 832.252C228.796 832.673 227.804 833.047 226.62 833.373C225.476 833.647 224.375 833.893 223.319 834.11C222.303 834.276 221.61 834.38 221.238 834.424L195.549 837.425C195.178 837.468 194.456 837.529 193.383 837.607C192.351 837.634 191.224 837.649 190.001 837.651C188.819 837.601 187.791 837.463 186.917 837.237C186.044 837.011 185.58 836.666 185.526 836.204L183.282 817.119C183.222 816.61 183.594 816.168 184.397 815.792C185.194 815.371 186.165 815.023 187.309 814.749C188.494 814.423 189.594 814.177 190.61 814.011C191.666 813.794 192.38 813.664 192.751 813.62L198.947 812.897C199.458 812.837 200.18 812.776 201.114 812.714C202.094 812.646 203.128 812.643 204.218 812.703C205.301 812.717 206.277 812.814 207.145 812.994C208.013 813.174 208.588 813.459 208.869 813.848C208.921 813.889 208.955 813.979 208.971 814.118L207.968 805.582L183.602 808.428ZM209.248 816.477L203.053 817.201L204.741 831.567L210.937 830.843L209.248 816.477Z" fill="white"/>
<path d="M271.299 823.792L271.854 828.511L242.615 831.927C242.243 831.97 241.521 832.031 240.448 832.109C239.416 832.136 238.289 832.151 237.066 832.153C235.884 832.103 234.856 831.965 233.983 831.739C233.109 831.513 232.645 831.168 232.591 830.706C232.585 830.659 232.907 829.989 233.554 828.694C234.196 827.352 235.007 825.64 235.985 823.555C237.009 821.466 238.113 819.25 239.297 816.907C240.474 814.518 241.614 812.204 242.715 809.965C243.863 807.72 244.837 805.801 245.637 804.206C246.432 802.566 246.965 801.495 247.236 800.994L230.04 803.003L229.486 798.284L258.029 794.95C258.4 794.906 259.102 794.871 260.134 794.845C261.206 794.766 262.334 794.752 263.516 794.801C264.739 794.799 265.787 794.911 266.661 795.137C267.529 795.317 267.993 795.662 268.053 796.171C268.058 796.217 267.74 796.911 267.097 798.252C266.45 799.547 265.614 801.24 264.589 803.329C263.611 805.413 262.533 807.65 261.355 810.039C260.172 812.381 259.006 814.675 257.859 816.92C256.758 819.159 255.809 821.099 255.014 822.739C254.214 824.334 253.678 825.381 253.408 825.882L271.299 823.792Z" fill="white"/>
<path d="M270.59 799.673L270.035 794.954L276.301 794.222L275.158 784.506L293.259 782.392L294.401 792.108L302.755 791.132L303.31 795.851L294.956 796.827L297.762 820.701L306.116 819.725L306.671 824.444L288.57 826.559C288.199 826.602 287.477 826.663 286.404 826.741C285.372 826.768 284.245 826.782 283.022 826.785C281.84 826.735 280.812 826.597 279.938 826.371C279.065 826.145 278.601 825.8 278.547 825.337L275.814 802.088C275.765 801.672 276.026 801.29 276.596 800.942C277.213 800.588 277.978 800.288 278.89 800.041C279.796 799.747 280.708 799.5 281.626 799.299C282.589 799.092 283.417 798.925 284.107 798.798L284.026 798.104L270.59 799.673Z" fill="white"/>
<path d="M318.873 814.013L319.762 821.578C319.806 821.948 319.421 822.275 318.607 822.557C317.84 822.835 317.021 823.071 316.15 823.266C315.273 823.416 314.673 823.509 314.348 823.547L308.778 824.198L307.889 816.633C307.846 816.263 308.208 815.939 308.975 815.662C309.789 815.38 310.634 815.164 311.51 815.014C312.427 814.813 313.025 814.697 313.304 814.664L318.873 814.013Z" fill="white"/>
<path d="M341.48 820.378L321.987 822.655L318.185 790.314C318.125 789.806 318.497 789.364 319.3 788.988C320.097 788.567 321.068 788.219 322.212 787.945C323.397 787.619 324.497 787.373 325.512 787.207C326.569 786.99 327.283 786.86 327.654 786.816L351.324 784.051C351.696 784.008 352.348 783.955 353.282 783.893C354.262 783.826 355.296 783.822 356.386 783.882C357.516 783.891 358.538 783.983 359.453 784.157C360.362 784.286 360.957 784.544 361.238 784.934C361.421 784.49 361.916 784.104 362.725 783.775C363.574 783.394 364.501 783.075 365.506 782.817C366.557 782.553 367.544 782.344 368.466 782.19C369.43 781.983 370.144 781.853 370.608 781.799L374.994 781.286C375.365 781.243 376.067 781.208 377.099 781.181C378.172 781.103 379.299 781.088 380.481 781.138C381.704 781.136 382.753 781.248 383.626 781.474C384.494 781.654 384.958 781.999 385.018 782.507L388.82 814.848L369.327 817.125L365.802 787.144L361.625 787.632L365.15 817.613L345.657 819.89L342.133 789.909L337.955 790.397L341.48 820.378Z" fill="white"/>
<path d="M388.674 784.472L388.119 779.753L422.232 775.768C422.603 775.725 423.305 775.69 424.337 775.663C425.41 775.585 426.537 775.57 427.719 775.62C428.942 775.618 429.99 775.73 430.864 775.956C431.732 776.136 432.196 776.481 432.256 776.99L435.78 806.97C435.834 807.433 435.463 807.875 434.665 808.297C433.868 808.718 432.877 809.092 431.692 809.418C430.548 809.692 429.448 809.938 428.391 810.155C427.375 810.321 426.682 810.425 426.311 810.468L400.622 813.469C400.251 813.513 399.528 813.574 398.456 813.652C397.424 813.679 396.296 813.693 395.073 813.695C393.891 813.646 392.863 813.508 391.99 813.282C391.116 813.055 390.652 812.711 390.598 812.248L388.355 793.163C388.295 792.654 388.666 792.212 389.469 791.837C390.266 791.415 391.237 791.068 392.381 790.793C393.566 790.467 394.666 790.221 395.682 790.056C396.738 789.839 397.452 789.708 397.824 789.665L404.02 788.941C404.53 788.882 405.252 788.821 406.186 788.759C407.166 788.691 408.201 788.687 409.29 788.748C410.374 788.762 411.35 788.859 412.218 789.039C413.086 789.219 413.66 789.504 413.941 789.893C413.993 789.934 414.027 790.024 414.043 790.162L413.04 781.626L388.674 784.472ZM414.321 792.522L408.125 793.246L409.814 807.612L416.01 806.888L414.321 792.522Z" fill="white"/>
<path d="M457.433 806.833L437.941 809.11L434.139 776.769C434.079 776.261 434.451 775.819 435.254 775.443C436.051 775.022 437.022 774.674 438.165 774.4C439.35 774.074 440.451 773.828 441.466 773.662C442.523 773.445 443.237 773.315 443.608 773.271L467.278 770.506C467.649 770.463 468.302 770.41 469.236 770.348C470.216 770.281 471.25 770.277 472.34 770.337C473.47 770.346 474.492 770.438 475.406 770.612C476.315 770.741 476.91 770.999 477.191 771.389C477.375 770.945 477.87 770.559 478.678 770.23C479.528 769.849 480.455 769.53 481.459 769.272C482.511 769.008 483.498 768.799 484.42 768.645C485.384 768.438 486.098 768.308 486.562 768.254L490.948 767.741C491.319 767.698 492.021 767.663 493.053 767.636C494.126 767.558 495.253 767.543 496.435 767.593C497.658 767.591 498.707 767.703 499.58 767.929C500.448 768.109 500.912 768.453 500.972 768.962L504.773 801.303L485.28 803.58L481.756 773.599L477.579 774.087L481.103 804.068L461.611 806.345L458.086 776.364L453.909 776.852L457.433 806.833Z" fill="white"/>
<path d="M521.12 784.69L520.565 779.97L541.45 777.531L542.005 782.25L521.12 784.69Z" fill="white"/>
<path d="M581.456 745.56L600.949 743.283L606.097 787.075C606.151 787.538 605.78 787.98 604.982 788.401C604.185 788.822 603.194 789.196 602.009 789.522C600.865 789.797 599.765 790.042 598.708 790.26C597.692 790.425 596.999 790.53 596.628 790.573L571.565 793.501C571.194 793.544 570.472 793.605 569.399 793.683C568.367 793.71 567.24 793.725 566.017 793.727C564.835 793.677 563.807 793.539 562.933 793.313C562.06 793.087 561.596 792.742 561.542 792.28L558.017 762.299C557.958 761.79 558.329 761.348 559.132 760.973C559.929 760.551 560.9 760.203 562.044 759.929C563.229 759.603 564.329 759.357 565.345 759.191C566.401 758.974 567.115 758.844 567.486 758.801L573.125 758.142C573.636 758.082 574.358 758.021 575.292 757.959C576.272 757.892 577.306 757.888 578.396 757.948C579.479 757.962 580.455 758.06 581.323 758.24C582.191 758.42 582.766 758.704 583.047 759.093L581.456 745.56ZM580.757 787.643L586.326 786.992L583.357 761.731L577.788 762.381L580.757 787.643Z" fill="white"/>
<path d="M651.78 779.346L652.335 784.065L618.223 788.05C617.851 788.094 617.129 788.155 616.056 788.233C615.024 788.26 613.897 788.274 612.674 788.276C611.492 788.227 610.464 788.089 609.591 787.863C608.717 787.636 608.253 787.292 608.199 786.829L604.675 756.848C604.615 756.34 604.986 755.897 605.789 755.522C606.586 755.101 607.557 754.753 608.701 754.479C609.886 754.153 610.986 753.907 612.002 753.741C613.059 753.524 613.772 753.394 614.144 753.35L639.206 750.423C639.577 750.379 640.279 750.344 641.311 750.318C642.384 750.239 643.511 750.225 644.693 750.274C645.916 750.272 646.965 750.384 647.838 750.61C648.706 750.79 649.17 751.135 649.23 751.644L651.596 771.77C651.65 772.232 651.278 772.675 650.481 773.096C649.684 773.517 648.693 773.891 647.508 774.217C646.364 774.492 645.263 774.737 644.207 774.955C643.191 775.12 642.498 775.225 642.126 775.268L636.487 775.927C636.023 775.981 635.301 776.042 634.321 776.109C633.341 776.177 632.309 776.204 631.225 776.19C630.136 776.129 629.158 776.009 628.289 775.829C627.421 775.649 626.847 775.364 626.566 774.975L627.414 782.193L651.78 779.346ZM626.256 772.338L631.825 771.687L630.014 756.28L624.445 756.931L626.256 772.338Z" fill="white"/>
<path d="M690.319 744.452L690.874 749.171L671.102 751.481L672.293 761.613L680.369 760.67C680.74 760.626 681.39 760.551 682.318 760.442C683.293 760.328 684.389 760.247 685.606 760.199C686.865 760.099 688.062 760.076 689.198 760.131C690.374 760.134 691.353 760.254 692.134 760.492C692.909 760.682 693.326 761.032 693.386 761.541L695.165 776.67C695.219 777.133 694.848 777.575 694.05 777.997C693.253 778.418 692.262 778.792 691.077 779.118C689.933 779.392 688.833 779.638 687.776 779.855C686.76 780.021 686.067 780.125 685.696 780.169L655.133 783.739L654.579 779.019L675.394 776.588L674.171 766.178L666.095 767.121C665.724 767.165 665.051 767.243 664.076 767.357C663.148 767.465 662.055 767.57 660.796 767.67C659.578 767.718 658.381 767.741 657.205 767.738C656.069 767.683 655.111 767.537 654.33 767.3C653.55 767.062 653.132 766.712 653.078 766.25L651.332 751.398C651.272 750.889 651.644 750.447 652.446 750.072C653.244 749.651 654.214 749.303 655.358 749.028C656.543 748.702 657.644 748.457 658.659 748.291C659.716 748.074 660.43 747.943 660.801 747.9L690.319 744.452Z" fill="white"/>
<path d="M712.583 738.334L693.09 740.611L692.43 734.989C692.37 734.48 692.741 734.038 693.544 733.663C694.341 733.242 695.312 732.894 696.456 732.619C697.641 732.293 698.741 732.048 699.757 731.882C700.814 731.665 701.527 731.534 701.899 731.491L711.645 730.353L712.583 738.334ZM693.429 744.089L712.922 741.812L717 776.512L697.508 778.789L693.429 744.089Z" fill="white"/>
<path d="M739.512 781.41L745.081 780.759L744.021 771.737L728.705 773.526C728.334 773.57 727.612 773.631 726.539 773.709C725.507 773.736 724.379 773.75 723.156 773.752C721.974 773.703 720.946 773.565 720.073 773.339C719.199 773.112 718.736 772.768 718.681 772.305L717.719 764.116C717.659 763.607 718.03 763.165 718.833 762.79C719.63 762.368 720.601 762.02 721.745 761.746C722.93 761.42 724.03 761.174 725.046 761.009C726.102 760.792 726.816 760.661 727.188 760.618L742.503 758.829L740.684 743.353L735.115 744.003L736.526 756.009L726.78 757.148C726.409 757.191 725.686 757.252 724.613 757.331C723.582 757.357 722.454 757.372 721.231 757.374C720.049 757.324 719.021 757.187 718.148 756.96C717.274 756.734 716.81 756.39 716.756 755.927L715.345 743.921C715.285 743.412 715.656 742.97 716.459 742.595C717.256 742.173 718.227 741.825 719.371 741.551C720.556 741.225 721.656 740.979 722.672 740.813C723.729 740.596 724.443 740.466 724.814 740.422L762.059 736.072L762.614 740.791L751.545 742.084L751.618 742.709C752.32 742.673 753.14 742.648 754.079 742.632C755.065 742.611 756.032 742.638 756.982 742.715C757.979 742.786 758.795 742.925 759.431 743.133C760.113 743.334 760.479 743.643 760.528 744.06L762.274 758.911C762.328 759.374 761.957 759.816 761.159 760.237C760.362 760.659 759.371 761.033 758.186 761.359C757.042 761.633 755.942 761.879 754.885 762.096C753.869 762.262 753.176 762.366 752.805 762.409L737.489 764.199L737.897 767.669L753.213 765.879C753.584 765.836 754.286 765.801 755.317 765.774C756.39 765.696 757.518 765.681 758.7 765.731C759.923 765.729 760.971 765.841 761.845 766.067C762.713 766.247 763.177 766.592 763.236 767.101L764.852 780.842C764.906 781.304 764.535 781.746 763.737 782.168C762.94 782.589 761.946 782.94 760.756 783.22C759.617 783.54 758.517 783.786 757.455 783.957C756.445 784.169 755.754 784.297 755.383 784.34L730.32 787.268C729.949 787.311 729.224 787.349 728.146 787.381C727.119 787.454 725.992 787.468 724.763 787.424C723.587 787.421 722.562 787.306 721.688 787.08C720.815 786.854 720.351 786.509 720.296 786.046L719.644 780.494C719.584 779.986 719.953 779.52 720.75 779.099C721.553 778.724 722.524 778.376 723.662 778.055C724.853 777.775 725.953 777.53 726.963 777.318C728.025 777.147 728.742 777.04 729.113 776.996L738.859 775.858L739.512 781.41Z" fill="white"/>
<path d="M786.996 768.335L767.503 770.612L763.424 735.912L798.233 731.846C798.604 731.803 799.306 731.768 800.338 731.741C801.411 731.662 802.538 731.648 803.72 731.698C804.943 731.695 805.992 731.808 806.865 732.034C807.733 732.214 808.197 732.558 808.257 733.067L812.058 765.408L792.565 767.685L789.041 737.704L783.472 738.354L786.996 768.335Z" fill="white"/>
<path d="M865.341 724.007L865.896 728.726L846.125 731.036L847.316 741.168L855.391 740.225C855.763 740.181 856.413 740.105 857.341 739.997C858.315 739.883 859.411 739.802 860.629 739.754C861.888 739.653 863.085 739.631 864.22 739.686C865.397 739.689 866.376 739.809 867.156 740.046C867.931 740.237 868.349 740.587 868.409 741.096L870.187 756.225C870.242 756.688 869.87 757.13 869.073 757.551C868.275 757.973 867.284 758.347 866.099 758.673C864.955 758.947 863.855 759.193 862.799 759.41C861.783 759.576 861.089 759.68 860.718 759.723L830.156 763.293L829.601 758.574L850.417 756.143L849.193 745.733L841.118 746.676C840.746 746.719 840.073 746.798 839.099 746.912C838.171 747.02 837.077 747.125 835.819 747.225C834.601 747.273 833.404 747.296 832.227 747.292C831.092 747.238 830.134 747.091 829.353 746.854C828.572 746.617 828.155 746.267 828.1 745.805L826.355 730.953C826.295 730.444 826.666 730.002 827.469 729.627C828.266 729.205 829.237 728.857 830.381 728.583C831.566 728.257 832.666 728.011 833.682 727.846C834.738 727.629 835.452 727.498 835.824 727.455L865.341 724.007Z" fill="white"/>
<path d="M869.169 729.751L868.615 725.032L874.88 724.3L873.738 714.584L891.839 712.469L892.981 722.185L901.335 721.209L901.889 725.929L893.535 726.904L896.342 750.778L904.696 749.802L905.25 754.521L887.15 756.636C886.779 756.679 886.057 756.74 884.984 756.819C883.952 756.845 882.824 756.86 881.601 756.862C880.419 756.812 879.391 756.674 878.518 756.448C877.644 756.222 877.18 755.877 877.126 755.415L874.393 732.166C874.344 731.749 874.605 731.367 875.176 731.019C875.793 730.665 876.558 730.365 877.469 730.118C878.376 729.824 879.288 729.577 880.205 729.376C881.169 729.17 881.996 729.003 882.687 728.875L882.605 728.181L869.169 729.751Z" fill="white"/>
<path d="M903.279 719.575L922.772 717.298L926.296 747.279L931.866 746.628L928.342 716.648L947.834 714.371L951.636 746.711C951.69 747.174 951.319 747.616 950.521 748.037C949.724 748.459 948.733 748.832 947.548 749.158C946.404 749.433 945.304 749.678 944.247 749.896C943.232 750.061 942.538 750.166 942.167 750.209L917.105 753.137C916.733 753.18 916.011 753.241 914.938 753.319C913.906 753.346 912.779 753.361 911.556 753.363C910.374 753.313 909.346 753.175 908.473 752.949C907.599 752.723 907.135 752.378 907.081 751.916L903.279 719.575Z" fill="white"/>
<path d="M973.653 699.746L993.146 697.469L998.293 741.261C998.348 741.723 997.976 742.165 997.179 742.587C996.381 743.008 995.39 743.382 994.205 743.708C993.061 743.982 991.961 744.228 990.904 744.445C989.889 744.611 989.195 744.715 988.824 744.759L963.762 747.686C963.39 747.73 962.668 747.791 961.596 747.869C960.564 747.896 959.436 747.91 958.213 747.913C957.031 747.863 956.003 747.725 955.13 747.499C954.256 747.272 953.792 746.928 953.738 746.465L950.214 716.485C950.154 715.976 950.526 715.534 951.328 715.158C952.126 714.737 953.096 714.389 954.24 714.115C955.425 713.789 956.525 713.543 957.541 713.377C958.598 713.16 959.312 713.03 959.683 712.986L965.322 712.328C965.832 712.268 966.555 712.207 967.488 712.145C968.468 712.077 969.503 712.074 970.592 712.134C971.676 712.148 972.652 712.245 973.52 712.425C974.388 712.605 974.963 712.89 975.244 713.279L973.653 699.746ZM972.954 741.829L978.523 741.178L975.553 715.917L969.984 716.567L972.954 741.829Z" fill="white"/>
<path d="M1015.75 702.919L996.255 705.197L995.595 699.575C995.535 699.066 995.906 698.624 996.709 698.249C997.506 697.828 998.477 697.48 999.621 697.205C1000.81 696.879 1001.91 696.633 1002.92 696.468C1003.98 696.251 1004.69 696.12 1005.06 696.077L1014.81 694.939L1015.75 702.919ZM996.594 708.675L1016.09 706.398L1020.17 741.098L1000.67 743.375L996.594 708.675Z" fill="white"/>
<path d="M1057.12 736.781L1032.06 739.708C1031.69 739.752 1030.96 739.813 1029.89 739.891C1028.86 739.918 1027.73 739.932 1026.51 739.935C1025.33 739.885 1024.3 739.747 1023.43 739.521C1022.55 739.295 1022.09 738.95 1022.03 738.487L1018.51 708.507C1018.45 707.998 1018.82 707.556 1019.62 707.18C1020.42 706.759 1021.39 706.411 1022.54 706.137C1023.72 705.811 1024.82 705.565 1025.84 705.399C1026.89 705.182 1027.61 705.052 1027.98 705.009L1053.04 702.081C1053.41 702.037 1054.11 702.002 1055.15 701.976C1056.22 701.897 1057.35 701.883 1058.53 701.932C1059.75 701.93 1060.8 702.042 1061.67 702.269C1062.54 702.449 1063 702.793 1063.06 703.302L1066.59 733.283C1066.64 733.745 1066.27 734.187 1065.47 734.609C1064.68 735.03 1063.69 735.404 1062.5 735.73C1061.36 736.004 1060.26 736.25 1059.2 736.467C1058.18 736.633 1057.49 736.737 1057.12 736.781ZM1041.25 733.851L1046.82 733.2L1043.85 707.939L1038.28 708.589L1041.25 733.851Z" fill="white"/>
<path d="M84.5696 461.253C88.3776 460.558 92.0294 463.072 92.7262 466.868L99.844 505.643C100.541 509.439 98.0187 513.08 94.2108 513.774L77.498 516.823C73.69 517.518 70.0382 515.004 69.3414 511.208L62.2236 472.433C61.5268 468.637 64.0489 464.996 67.8568 464.301L84.5696 461.253Z" fill="white"/>
<path d="M79.4264 383.124C83.2975 383.154 86.4118 386.306 86.3824 390.165L86.0826 429.582C86.0533 433.441 82.8914 436.546 79.0203 436.517L62.0305 436.388C58.1594 436.359 55.0451 433.207 55.0744 429.348L55.3742 389.93C55.4036 386.071 58.5655 382.967 62.4365 382.996L79.4264 383.124Z" fill="white"/>
<path d="M85.6432 300.171C89.4776 300.701 92.1546 304.23 91.6225 308.052L86.1871 347.097C85.655 350.919 82.1152 353.588 78.2808 353.058L61.4517 350.73C57.6173 350.199 54.9402 346.67 55.4723 342.848L60.9078 303.803C61.4399 299.981 64.9797 297.312 68.8141 297.842L85.6432 300.171Z" fill="white"/>
<path d="M108.008 536.092C111.098 533.768 115.493 534.381 117.825 537.462L141.641 568.929C143.972 572.01 143.357 576.391 140.267 578.715L126.704 588.917C123.614 591.241 119.219 590.628 116.887 587.547L93.0711 556.08C90.7395 552.999 91.3545 548.618 94.4448 546.293L108.008 536.092Z" fill="white"/>
<path d="M95.375 507.935C97.1621 507.193 99.2136 508.036 99.9573 509.818L112.428 539.69C113.172 541.471 112.326 543.516 110.539 544.257L98.7919 549.131C97.0049 549.872 94.9534 549.029 94.2097 547.248L81.739 517.376C80.9953 515.595 81.841 513.549 83.628 512.808L95.375 507.935Z" fill="white"/>
<path d="M76.4644 428.699C78.3495 428.261 80.2337 429.43 80.6729 431.309L88.0375 462.82C88.4767 464.7 87.3046 466.578 85.4195 467.016L73.0277 469.894C71.1426 470.332 69.2584 469.163 68.8192 467.284L61.4545 435.773C61.0153 433.893 62.1875 432.015 64.0726 431.577L76.4644 428.699Z" fill="white"/>
<path d="M75.0242 347.992C76.9593 347.948 78.5633 349.477 78.6069 351.406L79.3372 383.753C79.3807 385.682 77.8473 387.281 75.9122 387.324L63.1918 387.61C61.2567 387.653 59.6527 386.125 59.6091 384.196L58.8788 351.848C58.8353 349.919 60.3687 348.32 62.3038 348.277L75.0242 347.992Z" fill="white"/>
<path d="M99.7669 216.859C103.562 217.621 106.018 221.306 105.254 225.089L97.4427 263.731C96.678 267.514 92.9817 269.963 89.1868 269.2L72.5312 265.855C68.7363 265.092 66.2799 261.408 67.0446 257.625L74.8555 218.982C75.6202 215.199 79.3165 212.751 83.1114 213.513L99.7669 216.859Z" fill="white"/>
<path d="M124.048 142.398C127.632 143.855 129.352 147.934 127.89 151.507L112.951 188.005C111.489 191.578 107.397 193.292 103.813 191.834L88.0819 185.436C84.4976 183.978 82.7776 179.899 84.2401 176.326L99.179 139.829C100.641 136.255 104.733 134.541 108.317 135.999L124.048 142.398Z" fill="white"/>
<path d="M160.674 67.6541C164.038 69.5639 165.212 73.8306 163.296 77.184L143.726 111.437C141.811 114.79 137.531 115.96 134.167 114.051L119.403 105.668C116.039 103.758 114.865 99.4916 116.781 96.1383L136.351 61.8853C138.267 58.532 142.547 57.3618 145.911 59.2717L160.674 67.6541Z" fill="white"/>
<path d="M87.3796 264.71C89.293 265.002 90.6068 266.784 90.3141 268.692L85.4068 300.675C85.1141 302.582 83.3258 303.892 81.4125 303.6L68.835 301.683C66.9217 301.391 65.6079 299.608 65.9005 297.701L70.8079 265.717C71.1006 263.81 72.8889 262.5 74.8022 262.792L87.3796 264.71Z" fill="white"/>
<path d="M104.347 183.629C106.26 183.92 107.576 185.701 107.285 187.609L102.405 219.596C102.114 221.504 100.326 222.815 98.4128 222.525L85.8337 220.618C83.9202 220.328 82.6048 218.546 82.8959 216.639L87.776 184.651C88.067 182.743 89.8542 181.432 91.7678 181.722L104.347 183.629Z" fill="white"/>
<path d="M133.026 108.142C134.84 108.817 135.761 110.829 135.084 112.637L123.731 142.949C123.054 144.756 121.036 145.674 119.222 145L107.302 140.563C105.489 139.888 104.568 137.876 105.245 136.068L116.597 105.756C117.274 103.949 119.293 103.03 121.106 103.705L133.026 108.142Z" fill="white"/>
<path d="M1075.09 355.898C1071.28 355.203 1067.63 357.717 1066.93 361.514L1059.82 400.289C1059.12 404.085 1061.64 407.725 1065.45 408.42L1082.16 411.468C1085.97 412.163 1089.62 409.649 1090.32 405.853L1097.44 367.078C1098.13 363.282 1095.61 359.641 1091.8 358.947L1075.09 355.898Z" fill="white"/>
<path d="M1080.23 277.769C1076.36 277.799 1073.25 280.951 1073.28 284.81L1073.58 324.228C1073.61 328.087 1076.77 331.191 1080.64 331.162L1097.63 331.033C1101.5 331.004 1104.61 327.852 1104.59 323.993L1104.29 284.575C1104.26 280.716 1101.09 277.612 1097.22 277.641L1080.23 277.769Z" fill="white"/>
<path d="M1074.02 194.816C1070.18 195.346 1067.51 198.875 1068.04 202.697L1073.47 241.742C1074 245.565 1077.54 248.233 1081.38 247.703L1098.21 245.375C1102.04 244.844 1104.72 241.316 1104.19 237.493L1098.75 198.448C1098.22 194.626 1094.68 191.957 1090.85 192.488L1074.02 194.816Z" fill="white"/>
<path d="M1051.65 430.738C1048.56 428.413 1044.17 429.026 1041.83 432.107L1018.02 463.574C1015.69 466.655 1016.3 471.036 1019.39 473.361L1032.96 483.562C1036.05 485.886 1040.44 485.273 1042.77 482.192L1066.59 450.725C1068.92 447.644 1068.31 443.263 1065.22 440.939L1051.65 430.738Z" fill="white"/>
<path d="M1064.28 402.58C1062.5 401.838 1060.45 402.682 1059.7 404.463L1047.23 434.335C1046.49 436.116 1047.33 438.161 1049.12 438.903L1060.87 443.776C1062.66 444.518 1064.71 443.674 1065.45 441.893L1077.92 412.021C1078.66 410.24 1077.82 408.195 1076.03 407.453L1064.28 402.58Z" fill="white"/>
<path d="M1083.2 323.344C1081.31 322.907 1079.43 324.075 1078.99 325.954L1071.62 357.466C1071.18 359.345 1072.36 361.223 1074.24 361.661L1086.63 364.539C1088.52 364.977 1090.4 363.808 1090.84 361.929L1098.21 330.418C1098.64 328.539 1097.47 326.66 1095.59 326.222L1083.2 323.344Z" fill="white"/>
<path d="M1084.64 242.637C1082.7 242.593 1081.1 244.122 1081.05 246.051L1080.32 278.398C1080.28 280.327 1081.81 281.926 1083.75 281.97L1096.47 282.255C1098.4 282.299 1100.01 280.77 1100.05 278.841L1100.78 246.494C1100.82 244.565 1099.29 242.966 1097.36 242.922L1084.64 242.637Z" fill="white"/>
<path d="M1060.71 111.504C1056.91 112.266 1054.45 115.951 1055.22 119.734L1063.03 158.376C1063.79 162.159 1067.49 164.608 1071.29 163.846L1087.94 160.5C1091.74 159.738 1094.19 156.053 1093.43 152.27L1085.62 113.628C1084.85 109.845 1081.16 107.396 1077.36 108.158L1060.71 111.504Z" fill="white"/>
<path d="M1036.42 37.0428C1032.84 38.5007 1031.12 42.5791 1032.58 46.1522L1047.52 82.6498C1048.98 86.2229 1053.07 87.9376 1056.66 86.4796L1072.39 80.0808C1075.97 78.6229 1077.69 74.5444 1076.23 70.9713L1061.29 34.4738C1059.83 30.9007 1055.74 29.186 1052.16 30.644L1036.42 37.0428Z" fill="white"/>
<path d="M999.798 -37.7007C996.434 -35.7909 995.26 -31.5242 997.176 -28.1708L1016.75 6.08213C1018.66 9.43547 1022.94 10.6056 1026.31 8.69575L1041.07 0.313414C1044.43 -1.59646 1045.61 -5.86314 1043.69 -9.21648L1024.12 -43.4694C1022.21 -46.8228 1017.93 -47.9929 1014.56 -46.0831L999.798 -37.7007Z" fill="white"/>
<path d="M1074.29 158.432C1072.37 158.652 1070.99 160.384 1071.21 162.301L1074.91 194.446C1075.13 196.363 1076.86 197.739 1078.79 197.519L1091.43 196.075C1093.35 195.855 1094.73 194.123 1094.51 192.206L1090.81 160.061C1090.59 158.144 1088.86 156.768 1086.93 156.988L1074.29 158.432Z" fill="white"/>
<path d="M1056.13 78.2747C1054.21 78.5648 1052.9 80.3464 1053.19 82.254L1058.07 114.242C1058.36 116.149 1060.15 117.46 1062.06 117.17L1074.64 115.263C1076.55 114.973 1077.87 113.191 1077.58 111.284L1072.7 79.2962C1072.41 77.3886 1070.62 76.0774 1068.7 76.3675L1056.13 78.2747Z" fill="white"/>
<path d="M1027.45 2.78702C1025.63 3.46192 1024.71 5.47443 1025.39 7.28209L1036.74 37.5937C1037.42 39.4014 1039.44 40.3197 1041.25 39.6448L1053.17 35.2083C1054.98 34.5334 1055.9 32.5209 1055.23 30.7132L1043.87 0.401565C1043.2 -1.4061 1041.18 -2.32438 1039.37 -1.64948L1027.45 2.78702Z" fill="white"/>
<path d="M300.152 702.909L274.924 705.851L264.347 616.011L289.576 613.068L300.152 702.909Z" fill="white"/>
<path d="M546.302 737.648L445.357 749.439L419.66 530.829C419.361 528.285 421.32 525.945 425.539 523.811C429.758 521.676 434.843 519.91 440.795 518.511C446.72 516.881 452.337 515.638 457.648 514.784C462.931 513.698 466.616 513.032 468.705 512.788L618.382 495.304C620.471 495.06 624.211 494.858 629.603 494.697C634.967 494.305 640.721 494.219 646.863 494.439C652.978 494.429 658.335 494.975 662.935 496.08C667.534 497.184 669.983 499.008 670.283 501.553L695.98 720.163L595.034 731.955L583.981 637.918L535.248 643.611L546.302 737.648ZM532.393 619.321L581.125 613.628L570.765 525.49L522.033 531.183L532.393 619.321Z" stroke="white" stroke-width="22.9895" mask="url(#path-2-inside-1_1157_4526)"/>
<path d="M689.987 512.267L687.051 487.283L834.292 470.083C836.38 469.839 840.12 469.636 845.512 469.475C851.109 469.056 857.094 468.943 863.468 469.137C870.048 469.072 875.637 469.591 880.236 470.696C884.836 471.8 887.299 473.74 887.625 476.516L814.62 680.977L908.604 669.998L911.541 694.982L758.382 712.874C756.294 713.118 752.451 713.449 746.855 713.868C741.463 714.029 735.594 714.129 729.246 714.167C722.872 713.973 717.269 713.338 712.438 712.261C707.838 711.156 705.491 709.203 705.397 706.4L778.054 501.979L689.987 512.267Z" stroke="white" stroke-width="22.9895" mask="url(#path-2-inside-1_1157_4526)"/>
<path d="M1075.25 675.859L974.3 687.651L950.03 481.186L896.077 487.489L893.222 463.199L1102.07 438.802L1104.93 463.092L1050.98 469.394L1075.25 675.859Z" stroke="white" stroke-width="22.9895" mask="url(#path-2-inside-1_1157_4526)"/>
<path d="M361.895 749.447L359.76 731.311L382.186 728.696L385.437 756.317C385.788 759.293 384.847 761.76 382.614 763.718C380.382 765.675 377.958 766.806 375.342 767.111L176.319 790.324C169.405 791.131 163.173 789.689 157.624 785.999C152.261 782.288 149.164 776.898 148.332 769.83L126.324 582.895C125.492 575.827 127.254 569.871 131.609 565.026C136.151 560.159 141.879 557.323 148.793 556.516L387.06 528.726C393.974 527.92 400.112 529.372 405.475 533.084C411.024 536.773 414.215 542.152 415.047 549.22L430.814 683.144C431.755 691.142 429.653 697.421 424.506 701.981C419.338 706.355 413.016 708.978 405.541 709.85L341.63 717.304C340.135 717.478 337.414 717.701 333.468 717.973C329.687 718.037 325.521 718.052 320.97 718.017C316.419 717.982 312.303 717.613 308.621 716.911C304.939 716.21 302.626 715.065 301.681 713.478C301.131 715.239 299.146 716.885 295.727 718.415C292.494 719.924 288.773 721.301 284.562 722.546C280.33 723.605 276.262 724.457 272.36 725.1C268.457 725.744 265.572 726.175 263.703 726.393L237.914 729.401C236.419 729.575 233.512 729.82 229.191 730.135C225.036 730.243 220.497 730.301 215.572 730.31C210.813 730.11 206.674 729.556 203.157 728.646C199.64 727.737 197.772 726.352 197.553 724.492L184.743 615.679C184.502 613.633 185.998 611.856 189.23 610.347C192.441 608.653 196.349 607.254 200.955 606.151C205.726 604.841 210.157 603.853 214.246 603.187C218.5 602.314 221.375 601.79 222.87 601.616L326.586 589.519C328.828 589.257 332.027 589.073 336.182 588.965C340.502 588.65 344.949 588.603 349.521 588.824C354.259 588.837 358.293 589.309 361.623 590.241C364.931 590.986 366.706 592.382 366.947 594.428L378.64 693.754L405.831 690.583C407.139 690.43 407.914 689.774 408.156 688.615C408.399 687.455 408.465 686.41 408.356 685.48L392.655 552.115C392.523 550.999 392.216 549.998 391.733 549.111C391.414 548.017 390.508 547.557 389.013 547.731L151.307 575.456C149.999 575.609 149.224 576.265 148.981 577.424C148.717 578.398 148.651 579.443 148.782 580.559L170.724 766.935C170.812 767.679 170.993 768.413 171.267 769.135C171.564 770.043 172.036 770.837 172.684 771.515L361.895 749.447ZM274.924 705.851L300.152 702.909L289.576 613.068L264.347 616.011L274.924 705.851Z" stroke="white" stroke-width="22.9895" mask="url(#path-2-inside-1_1157_4526)"/>
<path d="M183.602 808.428L183.047 803.709L217.159 799.724C217.531 799.68 218.232 799.645 219.264 799.619C220.337 799.54 221.465 799.526 222.647 799.575C223.87 799.573 224.918 799.685 225.791 799.911C226.659 800.091 227.123 800.436 227.183 800.945L230.707 830.926C230.762 831.388 230.39 831.83 229.593 832.252C228.796 832.673 227.804 833.047 226.62 833.373C225.476 833.647 224.375 833.893 223.319 834.11C222.303 834.276 221.61 834.38 221.238 834.424L195.549 837.425C195.178 837.468 194.456 837.529 193.383 837.607C192.351 837.634 191.224 837.649 190.001 837.651C188.819 837.601 187.791 837.463 186.917 837.237C186.044 837.011 185.58 836.666 185.526 836.204L183.282 817.119C183.222 816.61 183.594 816.168 184.397 815.792C185.194 815.371 186.165 815.023 187.309 814.749C188.494 814.423 189.594 814.177 190.61 814.011C191.666 813.794 192.38 813.664 192.751 813.62L198.947 812.897C199.458 812.837 200.18 812.776 201.114 812.714C202.094 812.646 203.128 812.643 204.218 812.703C205.301 812.717 206.277 812.814 207.145 812.994C208.013 813.174 208.588 813.459 208.869 813.848C208.921 813.889 208.955 813.979 208.971 814.118L207.968 805.582L183.602 808.428ZM209.248 816.477L203.053 817.201L204.741 831.567L210.937 830.843L209.248 816.477Z" stroke="white" stroke-width="22.9895" mask="url(#path-2-inside-1_1157_4526)"/>
<path d="M271.299 823.792L271.854 828.511L242.615 831.927C242.243 831.97 241.521 832.031 240.448 832.109C239.416 832.136 238.289 832.151 237.066 832.153C235.884 832.103 234.856 831.965 233.983 831.739C233.109 831.513 232.645 831.168 232.591 830.706C232.585 830.659 232.907 829.989 233.554 828.694C234.196 827.352 235.007 825.64 235.985 823.555C237.009 821.466 238.113 819.25 239.297 816.907C240.474 814.518 241.614 812.204 242.715 809.965C243.863 807.72 244.837 805.801 245.637 804.206C246.432 802.566 246.965 801.495 247.236 800.994L230.04 803.003L229.486 798.284L258.029 794.95C258.4 794.906 259.102 794.871 260.134 794.845C261.206 794.766 262.334 794.752 263.516 794.801C264.739 794.799 265.787 794.911 266.661 795.137C267.529 795.317 267.993 795.662 268.053 796.171C268.058 796.217 267.74 796.911 267.097 798.252C266.45 799.547 265.614 801.24 264.589 803.329C263.611 805.413 262.533 807.65 261.355 810.039C260.172 812.381 259.006 814.675 257.859 816.92C256.758 819.159 255.809 821.099 255.014 822.739C254.214 824.334 253.678 825.381 253.408 825.882L271.299 823.792Z" stroke="white" stroke-width="22.9895" mask="url(#path-2-inside-1_1157_4526)"/>
<path d="M270.59 799.673L270.035 794.954L276.301 794.222L275.158 784.506L293.259 782.392L294.401 792.108L302.755 791.132L303.31 795.851L294.956 796.827L297.762 820.701L306.116 819.725L306.671 824.444L288.57 826.559C288.199 826.602 287.477 826.663 286.404 826.741C285.372 826.768 284.245 826.782 283.022 826.785C281.84 826.735 280.812 826.597 279.938 826.371C279.065 826.145 278.601 825.8 278.547 825.337L275.814 802.088C275.765 801.672 276.026 801.29 276.596 800.942C277.213 800.588 277.978 800.288 278.89 800.041C279.796 799.747 280.708 799.5 281.626 799.299C282.589 799.092 283.417 798.925 284.107 798.798L284.026 798.104L270.59 799.673Z" stroke="white" stroke-width="22.9895" mask="url(#path-2-inside-1_1157_4526)"/>
<path d="M318.873 814.013L319.762 821.578C319.806 821.948 319.421 822.275 318.607 822.557C317.84 822.835 317.021 823.071 316.15 823.266C315.273 823.416 314.673 823.509 314.348 823.547L308.778 824.198L307.889 816.633C307.846 816.263 308.208 815.939 308.975 815.662C309.789 815.38 310.634 815.164 311.51 815.014C312.427 814.813 313.025 814.697 313.304 814.664L318.873 814.013Z" stroke="white" stroke-width="22.9895" mask="url(#path-2-inside-1_1157_4526)"/>
<path d="M341.48 820.378L321.987 822.655L318.185 790.314C318.125 789.806 318.497 789.364 319.3 788.988C320.097 788.567 321.068 788.219 322.212 787.945C323.397 787.619 324.497 787.373 325.512 787.207C326.569 786.99 327.283 786.86 327.654 786.816L351.324 784.051C351.696 784.008 352.348 783.955 353.282 783.893C354.262 783.826 355.296 783.822 356.386 783.882C357.516 783.891 358.538 783.983 359.453 784.157C360.362 784.286 360.957 784.544 361.238 784.934C361.421 784.49 361.916 784.104 362.725 783.775C363.574 783.394 364.501 783.075 365.506 782.817C366.557 782.553 367.544 782.344 368.466 782.19C369.43 781.983 370.144 781.853 370.608 781.799L374.994 781.286C375.365 781.243 376.067 781.208 377.099 781.181C378.172 781.103 379.299 781.088 380.481 781.138C381.704 781.136 382.753 781.248 383.626 781.474C384.494 781.654 384.958 781.999 385.018 782.507L388.82 814.848L369.327 817.125L365.802 787.144L361.625 787.632L365.15 817.613L345.657 819.89L342.133 789.909L337.955 790.397L341.48 820.378Z" stroke="white" stroke-width="22.9895" mask="url(#path-2-inside-1_1157_4526)"/>
<path d="M388.674 784.472L388.119 779.753L422.232 775.768C422.603 775.725 423.305 775.69 424.337 775.663C425.41 775.585 426.537 775.57 427.719 775.62C428.942 775.618 429.99 775.73 430.864 775.956C431.732 776.136 432.196 776.481 432.256 776.99L435.78 806.97C435.834 807.433 435.463 807.875 434.665 808.297C433.868 808.718 432.877 809.092 431.692 809.418C430.548 809.692 429.448 809.938 428.391 810.155C427.375 810.321 426.682 810.425 426.311 810.468L400.622 813.469C400.251 813.513 399.528 813.574 398.456 813.652C397.424 813.679 396.296 813.693 395.073 813.695C393.891 813.646 392.863 813.508 391.99 813.282C391.116 813.055 390.652 812.711 390.598 812.248L388.355 793.163C388.295 792.654 388.666 792.212 389.469 791.837C390.266 791.415 391.237 791.068 392.381 790.793C393.566 790.467 394.666 790.221 395.682 790.056C396.738 789.839 397.452 789.708 397.824 789.665L404.02 788.941C404.53 788.882 405.252 788.821 406.186 788.759C407.166 788.691 408.201 788.687 409.29 788.748C410.374 788.762 411.35 788.859 412.218 789.039C413.086 789.219 413.66 789.504 413.941 789.893C413.993 789.934 414.027 790.024 414.043 790.162L413.04 781.626L388.674 784.472ZM414.321 792.522L408.125 793.246L409.814 807.612L416.01 806.888L414.321 792.522Z" stroke="white" stroke-width="22.9895" mask="url(#path-2-inside-1_1157_4526)"/>
<path d="M457.433 806.833L437.941 809.11L434.139 776.769C434.079 776.261 434.451 775.819 435.254 775.443C436.051 775.022 437.022 774.674 438.165 774.4C439.35 774.074 440.451 773.828 441.466 773.662C442.523 773.445 443.237 773.315 443.608 773.271L467.278 770.506C467.649 770.463 468.302 770.41 469.236 770.348C470.216 770.281 471.25 770.277 472.34 770.337C473.47 770.346 474.492 770.438 475.406 770.612C476.315 770.741 476.91 770.999 477.191 771.389C477.375 770.945 477.87 770.559 478.678 770.23C479.528 769.849 480.455 769.53 481.459 769.272C482.511 769.008 483.498 768.799 484.42 768.645C485.384 768.438 486.098 768.308 486.562 768.254L490.948 767.741C491.319 767.698 492.021 767.663 493.053 767.636C494.126 767.558 495.253 767.543 496.435 767.593C497.658 767.591 498.707 767.703 499.58 767.929C500.448 768.109 500.912 768.453 500.972 768.962L504.773 801.303L485.28 803.58L481.756 773.599L477.579 774.087L481.103 804.068L461.611 806.345L458.086 776.364L453.909 776.852L457.433 806.833Z" stroke="white" stroke-width="22.9895" mask="url(#path-2-inside-1_1157_4526)"/>
<path d="M521.12 784.69L520.565 779.97L541.45 777.531L542.005 782.25L521.12 784.69Z" stroke="white" stroke-width="22.9895" mask="url(#path-2-inside-1_1157_4526)"/>
<path d="M581.456 745.56L600.949 743.283L606.097 787.075C606.151 787.538 605.78 787.98 604.982 788.401C604.185 788.822 603.194 789.196 602.009 789.522C600.865 789.797 599.765 790.042 598.708 790.26C597.692 790.425 596.999 790.53 596.628 790.573L571.565 793.501C571.194 793.544 570.472 793.605 569.399 793.683C568.367 793.71 567.24 793.725 566.017 793.727C564.835 793.677 563.807 793.539 562.933 793.313C562.06 793.087 561.596 792.742 561.542 792.28L558.017 762.299C557.958 761.79 558.329 761.348 559.132 760.973C559.929 760.551 560.9 760.203 562.044 759.929C563.229 759.603 564.329 759.357 565.345 759.191C566.401 758.974 567.115 758.844 567.486 758.801L573.125 758.142C573.636 758.082 574.358 758.021 575.292 757.959C576.272 757.892 577.306 757.888 578.396 757.948C579.479 757.962 580.455 758.06 581.323 758.24C582.191 758.42 582.766 758.704 583.047 759.093L581.456 745.56ZM580.757 787.643L586.326 786.992L583.357 761.731L577.788 762.381L580.757 787.643Z" stroke="white" stroke-width="22.9895" mask="url(#path-2-inside-1_1157_4526)"/>
<path d="M651.78 779.346L652.335 784.065L618.223 788.05C617.851 788.094 617.129 788.155 616.056 788.233C615.024 788.26 613.897 788.274 612.674 788.276C611.492 788.227 610.464 788.089 609.591 787.863C608.717 787.636 608.253 787.292 608.199 786.829L604.675 756.848C604.615 756.34 604.986 755.897 605.789 755.522C606.586 755.101 607.557 754.753 608.701 754.479C609.886 754.153 610.986 753.907 612.002 753.741C613.059 753.524 613.772 753.394 614.144 753.35L639.206 750.423C639.577 750.379 640.279 750.344 641.311 750.318C642.384 750.239 643.511 750.225 644.693 750.274C645.916 750.272 646.965 750.384 647.838 750.61C648.706 750.79 649.17 751.135 649.23 751.644L651.596 771.77C651.65 772.232 651.278 772.675 650.481 773.096C649.684 773.517 648.693 773.891 647.508 774.217C646.364 774.492 645.263 774.737 644.207 774.955C643.191 775.12 642.498 775.225 642.126 775.268L636.487 775.927C636.023 775.981 635.301 776.042 634.321 776.109C633.341 776.177 632.309 776.204 631.225 776.19C630.136 776.129 629.158 776.009 628.289 775.829C627.421 775.649 626.847 775.364 626.566 774.975L627.414 782.193L651.78 779.346ZM626.256 772.338L631.825 771.687L630.014 756.28L624.445 756.931L626.256 772.338Z" stroke="white" stroke-width="22.9895" mask="url(#path-2-inside-1_1157_4526)"/>
<path d="M690.319 744.452L690.874 749.171L671.102 751.481L672.293 761.613L680.369 760.67C680.74 760.626 681.39 760.551 682.318 760.442C683.293 760.328 684.389 760.247 685.606 760.199C686.865 760.099 688.062 760.076 689.198 760.131C690.374 760.134 691.353 760.254 692.134 760.492C692.909 760.682 693.326 761.032 693.386 761.541L695.165 776.67C695.219 777.133 694.848 777.575 694.05 777.997C693.253 778.418 692.262 778.792 691.077 779.118C689.933 779.392 688.833 779.638 687.776 779.855C686.76 780.021 686.067 780.125 685.696 780.169L655.133 783.739L654.579 779.019L675.394 776.588L674.171 766.178L666.095 767.121C665.724 767.165 665.051 767.243 664.076 767.357C663.148 767.465 662.055 767.57 660.796 767.67C659.578 767.718 658.381 767.741 657.205 767.738C656.069 767.683 655.111 767.537 654.33 767.3C653.55 767.062 653.132 766.712 653.078 766.25L651.332 751.398C651.272 750.889 651.644 750.447 652.446 750.072C653.244 749.651 654.214 749.303 655.358 749.028C656.543 748.702 657.644 748.457 658.659 748.291C659.716 748.074 660.43 747.943 660.801 747.9L690.319 744.452Z" stroke="white" stroke-width="22.9895" mask="url(#path-2-inside-1_1157_4526)"/>
<path d="M712.583 738.334L693.09 740.611L692.43 734.989C692.37 734.48 692.741 734.038 693.544 733.663C694.341 733.242 695.312 732.894 696.456 732.619C697.641 732.293 698.741 732.048 699.757 731.882C700.814 731.665 701.527 731.534 701.899 731.491L711.645 730.353L712.583 738.334ZM693.429 744.089L712.922 741.812L717 776.512L697.508 778.789L693.429 744.089Z" stroke="white" stroke-width="22.9895" mask="url(#path-2-inside-1_1157_4526)"/>
<path d="M739.512 781.41L745.081 780.759L744.021 771.737L728.705 773.526C728.334 773.57 727.612 773.631 726.539 773.709C725.507 773.736 724.379 773.75 723.156 773.752C721.974 773.703 720.946 773.565 720.073 773.339C719.199 773.112 718.736 772.768 718.681 772.305L717.719 764.116C717.659 763.607 718.03 763.165 718.833 762.79C719.63 762.368 720.601 762.02 721.745 761.746C722.93 761.42 724.03 761.174 725.046 761.009C726.102 760.792 726.816 760.661 727.188 760.618L742.503 758.829L740.684 743.353L735.115 744.003L736.526 756.009L726.78 757.148C726.409 757.191 725.686 757.252 724.613 757.331C723.582 757.357 722.454 757.372 721.231 757.374C720.049 757.324 719.021 757.187 718.148 756.96C717.274 756.734 716.81 756.39 716.756 755.927L715.345 743.921C715.285 743.412 715.656 742.97 716.459 742.595C717.256 742.173 718.227 741.825 719.371 741.551C720.556 741.225 721.656 740.979 722.672 740.813C723.729 740.596 724.443 740.466 724.814 740.422L762.059 736.072L762.614 740.791L751.545 742.084L751.618 742.709C752.32 742.673 753.14 742.648 754.079 742.632C755.065 742.611 756.032 742.638 756.982 742.715C757.979 742.786 758.795 742.925 759.431 743.133C760.113 743.334 760.479 743.643 760.528 744.06L762.274 758.911C762.328 759.374 761.957 759.816 761.159 760.237C760.362 760.659 759.371 761.033 758.186 761.359C757.042 761.633 755.942 761.879 754.885 762.096C753.869 762.262 753.176 762.366 752.805 762.409L737.489 764.199L737.897 767.669L753.213 765.879C753.584 765.836 754.286 765.801 755.317 765.774C756.39 765.696 757.518 765.681 758.7 765.731C759.923 765.729 760.971 765.841 761.845 766.067C762.713 766.247 763.177 766.592 763.236 767.101L764.852 780.842C764.906 781.304 764.535 781.746 763.737 782.168C762.94 782.589 761.946 782.94 760.756 783.22C759.617 783.54 758.517 783.786 757.455 783.957C756.445 784.169 755.754 784.297 755.383 784.34L730.32 787.268C729.949 787.311 729.224 787.349 728.146 787.381C727.119 787.454 725.992 787.468 724.763 787.424C723.587 787.421 722.562 787.306 721.688 787.08C720.815 786.854 720.351 786.509 720.296 786.046L719.644 780.494C719.584 779.986 719.953 779.52 720.75 779.099C721.553 778.724 722.524 778.376 723.662 778.055C724.853 777.775 725.953 777.53 726.963 777.318C728.025 777.147 728.742 777.04 729.113 776.996L738.859 775.858L739.512 781.41Z" stroke="white" stroke-width="22.9895" mask="url(#path-2-inside-1_1157_4526)"/>
<path d="M786.996 768.335L767.503 770.612L763.424 735.912L798.233 731.846C798.604 731.803 799.306 731.768 800.338 731.741C801.411 731.662 802.538 731.648 803.72 731.698C804.943 731.695 805.992 731.808 806.865 732.034C807.733 732.214 808.197 732.558 808.257 733.067L812.058 765.408L792.565 767.685L789.041 737.704L783.472 738.354L786.996 768.335Z" stroke="white" stroke-width="22.9895" mask="url(#path-2-inside-1_1157_4526)"/>
<path d="M865.341 724.007L865.896 728.726L846.125 731.036L847.316 741.168L855.391 740.225C855.763 740.181 856.413 740.105 857.341 739.997C858.315 739.883 859.411 739.802 860.629 739.754C861.888 739.653 863.085 739.631 864.22 739.686C865.397 739.689 866.376 739.809 867.156 740.046C867.931 740.237 868.349 740.587 868.409 741.096L870.187 756.225C870.242 756.688 869.87 757.13 869.073 757.551C868.275 757.973 867.284 758.347 866.099 758.673C864.955 758.947 863.855 759.193 862.799 759.41C861.783 759.576 861.089 759.68 860.718 759.723L830.156 763.293L829.601 758.574L850.417 756.143L849.193 745.733L841.118 746.676C840.746 746.719 840.073 746.798 839.099 746.912C838.171 747.02 837.077 747.125 835.819 747.225C834.601 747.273 833.404 747.296 832.227 747.292C831.092 747.238 830.134 747.091 829.353 746.854C828.572 746.617 828.155 746.267 828.1 745.805L826.355 730.953C826.295 730.444 826.666 730.002 827.469 729.627C828.266 729.205 829.237 728.857 830.381 728.583C831.566 728.257 832.666 728.011 833.682 727.846C834.738 727.629 835.452 727.498 835.824 727.455L865.341 724.007Z" stroke="white" stroke-width="22.9895" mask="url(#path-2-inside-1_1157_4526)"/>
<path d="M869.169 729.751L868.615 725.032L874.88 724.3L873.738 714.584L891.839 712.469L892.981 722.185L901.335 721.209L901.889 725.929L893.535 726.904L896.342 750.778L904.696 749.802L905.25 754.521L887.15 756.636C886.779 756.679 886.057 756.74 884.984 756.819C883.952 756.845 882.824 756.86 881.601 756.862C880.419 756.812 879.391 756.674 878.518 756.448C877.644 756.222 877.18 755.877 877.126 755.415L874.393 732.166C874.344 731.749 874.605 731.367 875.176 731.019C875.793 730.665 876.558 730.365 877.469 730.118C878.376 729.824 879.288 729.577 880.205 729.376C881.169 729.17 881.996 729.003 882.687 728.875L882.605 728.181L869.169 729.751Z" stroke="white" stroke-width="22.9895" mask="url(#path-2-inside-1_1157_4526)"/>
<path d="M903.279 719.575L922.772 717.298L926.296 747.279L931.866 746.628L928.342 716.648L947.834 714.371L951.636 746.711C951.69 747.174 951.319 747.616 950.521 748.037C949.724 748.459 948.733 748.832 947.548 749.158C946.404 749.433 945.304 749.678 944.247 749.896C943.232 750.061 942.538 750.166 942.167 750.209L917.105 753.137C916.733 753.18 916.011 753.241 914.938 753.319C913.906 753.346 912.779 753.361 911.556 753.363C910.374 753.313 909.346 753.175 908.473 752.949C907.599 752.723 907.135 752.378 907.081 751.916L903.279 719.575Z" stroke="white" stroke-width="22.9895" mask="url(#path-2-inside-1_1157_4526)"/>
<path d="M973.653 699.746L993.146 697.469L998.293 741.261C998.348 741.723 997.976 742.165 997.179 742.587C996.381 743.008 995.39 743.382 994.205 743.708C993.061 743.982 991.961 744.228 990.904 744.445C989.889 744.611 989.195 744.715 988.824 744.759L963.762 747.686C963.39 747.73 962.668 747.791 961.596 747.869C960.564 747.896 959.436 747.91 958.213 747.913C957.031 747.863 956.003 747.725 955.13 747.499C954.256 747.272 953.792 746.928 953.738 746.465L950.214 716.485C950.154 715.976 950.526 715.534 951.328 715.158C952.126 714.737 953.096 714.389 954.24 714.115C955.425 713.789 956.525 713.543 957.541 713.377C958.598 713.16 959.312 713.03 959.683 712.986L965.322 712.328C965.832 712.268 966.555 712.207 967.488 712.145C968.468 712.077 969.503 712.074 970.592 712.134C971.676 712.148 972.652 712.245 973.52 712.425C974.388 712.605 974.963 712.89 975.244 713.279L973.653 699.746ZM972.954 741.829L978.523 741.178L975.553 715.917L969.984 716.567L972.954 741.829Z" stroke="white" stroke-width="22.9895" mask="url(#path-2-inside-1_1157_4526)"/>
<path d="M1015.75 702.919L996.255 705.197L995.595 699.575C995.535 699.066 995.906 698.624 996.709 698.249C997.506 697.828 998.477 697.48 999.621 697.205C1000.81 696.879 1001.91 696.633 1002.92 696.468C1003.98 696.251 1004.69 696.12 1005.06 696.077L1014.81 694.939L1015.75 702.919ZM996.594 708.675L1016.09 706.398L1020.17 741.098L1000.67 743.375L996.594 708.675Z" stroke="white" stroke-width="22.9895" mask="url(#path-2-inside-1_1157_4526)"/>
<path d="M1057.12 736.781L1032.06 739.708C1031.69 739.752 1030.96 739.813 1029.89 739.891C1028.86 739.918 1027.73 739.932 1026.51 739.935C1025.33 739.885 1024.3 739.747 1023.43 739.521C1022.55 739.295 1022.09 738.95 1022.03 738.487L1018.51 708.507C1018.45 707.998 1018.82 707.556 1019.62 707.18C1020.42 706.759 1021.39 706.411 1022.54 706.137C1023.72 705.811 1024.82 705.565 1025.84 705.399C1026.89 705.182 1027.61 705.052 1027.98 705.009L1053.04 702.081C1053.41 702.037 1054.11 702.002 1055.15 701.976C1056.22 701.897 1057.35 701.883 1058.53 701.932C1059.75 701.93 1060.8 702.042 1061.67 702.269C1062.54 702.449 1063 702.793 1063.06 703.302L1066.59 733.283C1066.64 733.745 1066.27 734.187 1065.47 734.609C1064.68 735.03 1063.69 735.404 1062.5 735.73C1061.36 736.004 1060.26 736.25 1059.2 736.467C1058.18 736.633 1057.49 736.737 1057.12 736.781ZM1041.25 733.851L1046.82 733.2L1043.85 707.939L1038.28 708.589L1041.25 733.851Z" stroke="white" stroke-width="22.9895" mask="url(#path-2-inside-1_1157_4526)"/>
<path d="M84.5696 461.253C88.3776 460.558 92.0294 463.072 92.7262 466.868L99.844 505.643C100.541 509.439 98.0187 513.08 94.2108 513.774L77.498 516.823C73.69 517.518 70.0382 515.004 69.3414 511.208L62.2236 472.433C61.5268 468.637 64.0489 464.996 67.8568 464.301L84.5696 461.253Z" stroke="white" stroke-width="22.9895" mask="url(#path-2-inside-1_1157_4526)"/>
<path d="M79.4264 383.124C83.2975 383.154 86.4118 386.306 86.3824 390.165L86.0826 429.582C86.0533 433.441 82.8914 436.546 79.0203 436.517L62.0305 436.388C58.1594 436.359 55.0451 433.207 55.0744 429.348L55.3742 389.93C55.4036 386.071 58.5655 382.967 62.4365 382.996L79.4264 383.124Z" stroke="white" stroke-width="22.9895" mask="url(#path-2-inside-1_1157_4526)"/>
<path d="M85.6432 300.171C89.4776 300.701 92.1546 304.23 91.6225 308.052L86.1871 347.097C85.655 350.919 82.1152 353.588 78.2808 353.058L61.4517 350.73C57.6173 350.199 54.9402 346.67 55.4723 342.848L60.9078 303.803C61.4399 299.981 64.9797 297.312 68.8141 297.842L85.6432 300.171Z" stroke="white" stroke-width="22.9895" mask="url(#path-2-inside-1_1157_4526)"/>
<path d="M108.008 536.092C111.098 533.768 115.493 534.381 117.825 537.462L141.641 568.929C143.972 572.01 143.357 576.391 140.267 578.715L126.704 588.917C123.614 591.241 119.219 590.628 116.887 587.547L93.0711 556.08C90.7395 552.999 91.3545 548.618 94.4448 546.293L108.008 536.092Z" stroke="white" stroke-width="22.9895" mask="url(#path-2-inside-1_1157_4526)"/>
<path d="M95.375 507.935C97.1621 507.193 99.2136 508.036 99.9573 509.818L112.428 539.69C113.172 541.471 112.326 543.516 110.539 544.257L98.7919 549.131C97.0049 549.872 94.9534 549.029 94.2097 547.248L81.739 517.376C80.9953 515.595 81.841 513.549 83.628 512.808L95.375 507.935Z" stroke="white" stroke-width="22.9895" mask="url(#path-2-inside-1_1157_4526)"/>
<path d="M76.4644 428.699C78.3495 428.261 80.2337 429.43 80.6729 431.309L88.0375 462.82C88.4767 464.7 87.3046 466.578 85.4195 467.016L73.0277 469.894C71.1426 470.332 69.2584 469.163 68.8192 467.284L61.4545 435.773C61.0153 433.893 62.1875 432.015 64.0726 431.577L76.4644 428.699Z" stroke="white" stroke-width="22.9895" mask="url(#path-2-inside-1_1157_4526)"/>
<path d="M75.0242 347.992C76.9593 347.948 78.5633 349.477 78.6069 351.406L79.3372 383.753C79.3807 385.682 77.8473 387.281 75.9122 387.324L63.1918 387.61C61.2567 387.653 59.6527 386.125 59.6091 384.196L58.8788 351.848C58.8353 349.919 60.3687 348.32 62.3038 348.277L75.0242 347.992Z" stroke="white" stroke-width="22.9895" mask="url(#path-2-inside-1_1157_4526)"/>
<path d="M99.7669 216.859C103.562 217.621 106.018 221.306 105.254 225.089L97.4427 263.731C96.678 267.514 92.9817 269.963 89.1868 269.2L72.5312 265.855C68.7363 265.092 66.2799 261.408 67.0446 257.625L74.8555 218.982C75.6202 215.199 79.3165 212.751 83.1114 213.513L99.7669 216.859Z" stroke="white" stroke-width="22.9895" mask="url(#path-2-inside-1_1157_4526)"/>
<path d="M124.048 142.398C127.632 143.855 129.352 147.934 127.89 151.507L112.951 188.005C111.489 191.578 107.397 193.292 103.813 191.834L88.0819 185.436C84.4976 183.978 82.7776 179.899 84.2401 176.326L99.179 139.829C100.641 136.255 104.733 134.541 108.317 135.999L124.048 142.398Z" stroke="white" stroke-width="22.9895" mask="url(#path-2-inside-1_1157_4526)"/>
<path d="M160.674 67.6541C164.038 69.5639 165.212 73.8306 163.296 77.184L143.726 111.437C141.811 114.79 137.531 115.96 134.167 114.051L119.403 105.668C116.039 103.758 114.865 99.4916 116.781 96.1383L136.351 61.8853C138.267 58.532 142.547 57.3618 145.911 59.2717L160.674 67.6541Z" stroke="white" stroke-width="22.9895" mask="url(#path-2-inside-1_1157_4526)"/>
<path d="M87.3796 264.71C89.293 265.002 90.6068 266.784 90.3141 268.692L85.4068 300.675C85.1141 302.582 83.3258 303.892 81.4125 303.6L68.835 301.683C66.9217 301.391 65.6079 299.608 65.9005 297.701L70.8079 265.717C71.1006 263.81 72.8889 262.5 74.8022 262.792L87.3796 264.71Z" stroke="white" stroke-width="22.9895" mask="url(#path-2-inside-1_1157_4526)"/>
<path d="M104.347 183.629C106.26 183.92 107.576 185.701 107.285 187.609L102.405 219.596C102.114 221.504 100.326 222.815 98.4128 222.525L85.8337 220.618C83.9202 220.328 82.6048 218.546 82.8959 216.639L87.776 184.651C88.067 182.743 89.8542 181.432 91.7678 181.722L104.347 183.629Z" stroke="white" stroke-width="22.9895" mask="url(#path-2-inside-1_1157_4526)"/>
<path d="M133.026 108.142C134.84 108.817 135.761 110.829 135.084 112.637L123.731 142.949C123.054 144.756 121.036 145.674 119.222 145L107.302 140.563C105.489 139.888 104.568 137.876 105.245 136.068L116.597 105.756C117.274 103.949 119.293 103.03 121.106 103.705L133.026 108.142Z" stroke="white" stroke-width="22.9895" mask="url(#path-2-inside-1_1157_4526)"/>
<path d="M1075.09 355.898C1071.28 355.203 1067.63 357.717 1066.93 361.514L1059.82 400.289C1059.12 404.085 1061.64 407.725 1065.45 408.42L1082.16 411.468C1085.97 412.163 1089.62 409.649 1090.32 405.853L1097.44 367.078C1098.13 363.282 1095.61 359.641 1091.8 358.947L1075.09 355.898Z" stroke="white" stroke-width="22.9895" mask="url(#path-2-inside-1_1157_4526)"/>
<path d="M1080.23 277.769C1076.36 277.799 1073.25 280.951 1073.28 284.81L1073.58 324.228C1073.61 328.087 1076.77 331.191 1080.64 331.162L1097.63 331.033C1101.5 331.004 1104.61 327.852 1104.59 323.993L1104.29 284.575C1104.26 280.716 1101.09 277.612 1097.22 277.641L1080.23 277.769Z" stroke="white" stroke-width="22.9895" mask="url(#path-2-inside-1_1157_4526)"/>
<path d="M1074.02 194.816C1070.18 195.346 1067.51 198.875 1068.04 202.697L1073.47 241.742C1074 245.565 1077.54 248.233 1081.38 247.703L1098.21 245.375C1102.04 244.844 1104.72 241.316 1104.19 237.493L1098.75 198.448C1098.22 194.626 1094.68 191.957 1090.85 192.488L1074.02 194.816Z" stroke="white" stroke-width="22.9895" mask="url(#path-2-inside-1_1157_4526)"/>
<path d="M1051.65 430.738C1048.56 428.413 1044.17 429.026 1041.83 432.107L1018.02 463.574C1015.69 466.655 1016.3 471.036 1019.39 473.361L1032.96 483.562C1036.05 485.886 1040.44 485.273 1042.77 482.192L1066.59 450.725C1068.92 447.644 1068.31 443.263 1065.22 440.939L1051.65 430.738Z" stroke="white" stroke-width="22.9895" mask="url(#path-2-inside-1_1157_4526)"/>
<path d="M1064.28 402.58C1062.5 401.838 1060.45 402.682 1059.7 404.463L1047.23 434.335C1046.49 436.116 1047.33 438.161 1049.12 438.903L1060.87 443.776C1062.66 444.518 1064.71 443.674 1065.45 441.893L1077.92 412.021C1078.66 410.24 1077.82 408.195 1076.03 407.453L1064.28 402.58Z" stroke="white" stroke-width="22.9895" mask="url(#path-2-inside-1_1157_4526)"/>
<path d="M1083.2 323.344C1081.31 322.907 1079.43 324.075 1078.99 325.954L1071.62 357.466C1071.18 359.345 1072.36 361.223 1074.24 361.661L1086.63 364.539C1088.52 364.977 1090.4 363.808 1090.84 361.929L1098.21 330.418C1098.64 328.539 1097.47 326.66 1095.59 326.222L1083.2 323.344Z" stroke="white" stroke-width="22.9895" mask="url(#path-2-inside-1_1157_4526)"/>
<path d="M1084.64 242.637C1082.7 242.593 1081.1 244.122 1081.05 246.051L1080.32 278.398C1080.28 280.327 1081.81 281.926 1083.75 281.97L1096.47 282.255C1098.4 282.299 1100.01 280.77 1100.05 278.841L1100.78 246.494C1100.82 244.565 1099.29 242.966 1097.36 242.922L1084.64 242.637Z" stroke="white" stroke-width="22.9895" mask="url(#path-2-inside-1_1157_4526)"/>
<path d="M1060.71 111.504C1056.91 112.266 1054.45 115.951 1055.22 119.734L1063.03 158.376C1063.79 162.159 1067.49 164.608 1071.29 163.846L1087.94 160.5C1091.74 159.738 1094.19 156.053 1093.43 152.27L1085.62 113.628C1084.85 109.845 1081.16 107.396 1077.36 108.158L1060.71 111.504Z" stroke="white" stroke-width="22.9895" mask="url(#path-2-inside-1_1157_4526)"/>
<path d="M1036.42 37.0428C1032.84 38.5007 1031.12 42.5791 1032.58 46.1522L1047.52 82.6498C1048.98 86.2229 1053.07 87.9376 1056.66 86.4796L1072.39 80.0808C1075.97 78.6229 1077.69 74.5444 1076.23 70.9713L1061.29 34.4738C1059.83 30.9007 1055.74 29.186 1052.16 30.644L1036.42 37.0428Z" stroke="white" stroke-width="22.9895" mask="url(#path-2-inside-1_1157_4526)"/>
<path d="M999.798 -37.7007C996.434 -35.7909 995.26 -31.5242 997.176 -28.1708L1016.75 6.08213C1018.66 9.43547 1022.94 10.6056 1026.31 8.69575L1041.07 0.313414C1044.43 -1.59646 1045.61 -5.86314 1043.69 -9.21648L1024.12 -43.4694C1022.21 -46.8228 1017.93 -47.9929 1014.56 -46.0831L999.798 -37.7007Z" stroke="white" stroke-width="22.9895" mask="url(#path-2-inside-1_1157_4526)"/>
<path d="M1074.29 158.432C1072.37 158.652 1070.99 160.384 1071.21 162.301L1074.91 194.446C1075.13 196.363 1076.86 197.739 1078.79 197.519L1091.43 196.075C1093.35 195.855 1094.73 194.123 1094.51 192.206L1090.81 160.061C1090.59 158.144 1088.86 156.768 1086.93 156.988L1074.29 158.432Z" stroke="white" stroke-width="22.9895" mask="url(#path-2-inside-1_1157_4526)"/>
<path d="M1056.13 78.2747C1054.21 78.5648 1052.9 80.3464 1053.19 82.254L1058.07 114.242C1058.36 116.149 1060.15 117.46 1062.06 117.17L1074.64 115.263C1076.55 114.973 1077.87 113.191 1077.58 111.284L1072.7 79.2962C1072.41 77.3886 1070.62 76.0774 1068.7 76.3675L1056.13 78.2747Z" stroke="white" stroke-width="22.9895" mask="url(#path-2-inside-1_1157_4526)"/>
<path d="M1027.45 2.78702C1025.63 3.46192 1024.71 5.47443 1025.39 7.28209L1036.74 37.5937C1037.42 39.4014 1039.44 40.3197 1041.25 39.6448L1053.17 35.2083C1054.98 34.5334 1055.9 32.5209 1055.23 30.7132L1043.87 0.401565C1043.2 -1.4061 1041.18 -2.32438 1039.37 -1.64948L1027.45 2.78702Z" stroke="white" stroke-width="22.9895" mask="url(#path-2-inside-1_1157_4526)"/>
<path d="M300.152 702.909L274.924 705.851L264.347 616.011L289.576 613.068L300.152 702.909Z" stroke="white" stroke-width="22.9895" mask="url(#path-2-inside-1_1157_4526)"/>
</g>
<defs>
<clipPath id="clip0_1157_4526">
<rect width="1200" height="1200" rx="600" fill="white"/>
</clipPath>
</defs>
</svg>
