<svg width="822" height="693" viewBox="0 0 822 693" fill="none" xmlns="http://www.w3.org/2000/svg">
<mask id="path-1-inside-1_1155_4524" fill="white">
<path d="M384.614 614.352L305.578 623.584L285.458 452.42C285.224 450.428 286.758 448.596 290.061 446.925C293.364 445.254 297.346 443.871 302.006 442.776C306.645 441.499 311.043 440.526 315.201 439.857C319.337 439.007 322.223 438.486 323.858 438.295L441.051 424.605C442.686 424.414 445.614 424.256 449.836 424.13C454.036 423.823 458.541 423.756 463.35 423.928C468.138 423.92 472.332 424.348 475.934 425.212C479.535 426.077 481.453 427.506 481.687 429.498L501.807 600.662L422.77 609.895L414.115 536.267L375.96 540.724L384.614 614.352ZM373.724 521.706L411.88 517.249L403.768 448.24L365.612 452.697L373.724 521.706Z"/>
<path d="M497.115 437.886L494.816 418.325L610.1 404.858C611.735 404.667 614.664 404.508 618.885 404.382C623.267 404.054 627.954 403.966 632.945 404.117C638.096 404.066 642.472 404.473 646.073 405.338C649.674 406.202 651.603 407.721 651.858 409.895L594.698 569.981L668.284 561.385L670.584 580.946L550.666 594.955C549.031 595.146 546.022 595.405 541.64 595.734C537.419 595.859 532.823 595.937 527.853 595.967C522.863 595.815 518.476 595.318 514.693 594.475C511.092 593.61 509.254 592.08 509.18 589.886L566.068 429.832L497.115 437.886Z"/>
<path d="M798.758 565.974L719.722 575.206L700.72 413.551L658.476 418.486L656.24 399.468L819.764 380.366L822 399.384L779.756 404.319L798.758 565.974Z"/>
<path d="M240.23 623.59L238.559 609.391L256.117 607.343L258.663 628.969C258.937 631.3 258.2 633.231 256.453 634.764C254.705 636.296 252.807 637.182 250.758 637.421L94.9306 655.596C89.5169 656.227 84.6376 655.098 80.2927 652.21C76.0941 649.304 73.669 645.084 73.0175 639.549L55.7863 493.186C55.1348 487.652 56.5139 482.988 59.9238 479.195C63.48 475.385 67.965 473.164 73.3787 472.532L259.933 450.774C265.347 450.142 270.153 451.279 274.351 454.185C278.696 457.074 281.195 461.286 281.846 466.82L294.191 571.677C294.928 577.939 293.282 582.856 289.253 586.426C285.206 589.851 280.256 591.904 274.404 592.587L224.363 598.423C223.193 598.56 221.062 598.735 217.973 598.947C215.012 598.997 211.75 599.009 208.187 598.981C204.624 598.954 201.401 598.666 198.518 598.116C195.635 597.567 193.824 596.67 193.085 595.428C192.654 596.807 191.1 598.096 188.422 599.294C185.892 600.475 182.978 601.553 179.681 602.528C176.367 603.357 173.183 604.024 170.127 604.528C167.071 605.032 164.812 605.369 163.349 605.54L143.157 607.895C141.987 608.031 139.71 608.223 136.328 608.47C133.075 608.554 129.52 608.6 125.664 608.606C121.938 608.45 118.698 608.016 115.944 607.304C113.19 606.592 111.728 605.508 111.556 604.051L101.526 518.855C101.338 517.253 102.509 515.861 105.039 514.68C107.553 513.354 110.613 512.258 114.22 511.395C117.955 510.369 121.424 509.595 124.626 509.074C127.957 508.39 130.208 507.98 131.378 507.844L212.584 498.372C214.34 498.167 216.845 498.023 220.098 497.939C223.48 497.692 226.962 497.655 230.542 497.828C234.251 497.838 237.41 498.208 240.017 498.937C242.607 499.521 243.997 500.614 244.185 502.216L253.341 579.985L274.63 577.502C275.654 577.382 276.261 576.869 276.451 575.961C276.641 575.053 276.693 574.235 276.607 573.507L264.314 469.086C264.211 468.212 263.97 467.428 263.592 466.734C263.343 465.878 262.633 465.517 261.462 465.654L75.3471 487.361C74.3228 487.481 73.7159 487.995 73.5261 488.903C73.3192 489.665 73.2672 490.483 73.37 491.357L90.5498 637.283C90.6184 637.866 90.7601 638.44 90.975 639.005C91.2071 639.716 91.5769 640.338 92.0844 640.869L240.23 623.59ZM172.135 589.456L191.888 587.152L183.607 516.811L163.854 519.115L172.135 589.456Z"/>
<path d="M100.632 669.77L100.198 666.075L126.907 662.955C127.198 662.921 127.747 662.894 128.555 662.873C129.395 662.812 130.278 662.8 131.203 662.839C132.161 662.837 132.982 662.925 133.666 663.102C134.345 663.243 134.709 663.513 134.755 663.911L137.515 687.385C137.557 687.748 137.266 688.094 136.642 688.424C136.018 688.754 135.242 689.046 134.314 689.302C133.418 689.516 132.557 689.709 131.73 689.879C130.934 690.008 130.391 690.09 130.101 690.124L109.987 692.474C109.697 692.508 109.131 692.555 108.291 692.617C107.483 692.638 106.6 692.649 105.643 692.651C104.717 692.612 103.913 692.504 103.229 692.327C102.545 692.15 102.182 691.88 102.139 691.518L100.382 676.575C100.336 676.176 100.626 675.83 101.255 675.536C101.879 675.206 102.639 674.934 103.535 674.719C104.463 674.464 105.324 674.272 106.119 674.142C106.947 673.972 107.506 673.87 107.796 673.836L112.648 673.269C113.047 673.222 113.613 673.175 114.344 673.126C115.111 673.073 115.921 673.07 116.774 673.118C117.623 673.129 118.387 673.205 119.066 673.346C119.746 673.487 120.196 673.709 120.416 674.014C120.456 674.046 120.483 674.117 120.496 674.225L119.71 667.542L100.632 669.77ZM120.713 676.073L115.862 676.639L117.184 687.887L122.035 687.321L120.713 676.073Z"/>
<path d="M169.297 681.8L169.731 685.495L146.838 688.169C146.547 688.203 145.982 688.251 145.142 688.312C144.334 688.333 143.451 688.344 142.493 688.346C141.568 688.307 140.763 688.199 140.079 688.022C139.395 687.845 139.032 687.575 138.989 687.213C138.985 687.177 139.237 686.652 139.744 685.638C140.246 684.587 140.881 683.246 141.647 681.615C142.449 679.978 143.313 678.243 144.24 676.409C145.162 674.539 146.054 672.727 146.916 670.974C147.815 669.216 148.577 667.713 149.204 666.465C149.827 665.18 150.244 664.342 150.456 663.95L136.992 665.523L136.558 661.828L158.906 659.217C159.197 659.183 159.746 659.156 160.554 659.135C161.394 659.074 162.277 659.062 163.203 659.101C164.16 659.099 164.981 659.187 165.665 659.364C166.345 659.505 166.708 659.775 166.755 660.173C166.759 660.21 166.51 660.753 166.007 661.803C165.5 662.817 164.845 664.142 164.043 665.778C163.277 667.41 162.433 669.161 161.511 671.032C160.584 672.866 159.672 674.662 158.773 676.419C157.911 678.172 157.169 679.691 156.546 680.976C155.919 682.224 155.5 683.044 155.288 683.436L169.297 681.8Z"/>
<path d="M168.741 662.916L168.307 659.221L173.213 658.648L172.318 651.041L186.49 649.385L187.385 656.992L193.926 656.228L194.36 659.923L187.819 660.687L190.016 679.38L196.557 678.615L196.991 682.31L182.819 683.966C182.529 684 181.963 684.048 181.123 684.109C180.315 684.13 179.432 684.141 178.475 684.143C177.549 684.104 176.745 683.996 176.061 683.819C175.377 683.642 175.014 683.372 174.971 683.01L172.831 664.807C172.793 664.481 172.997 664.181 173.444 663.909C173.927 663.632 174.526 663.397 175.24 663.203C175.95 662.974 176.664 662.78 177.382 662.623C178.137 662.461 178.784 662.33 179.325 662.23L179.261 661.687L168.741 662.916Z"/>
<path d="M206.545 674.144L207.242 680.066C207.276 680.356 206.974 680.612 206.337 680.833C205.736 681.05 205.095 681.235 204.413 681.388C203.727 681.505 203.257 681.579 203.002 681.608L198.642 682.118L197.945 676.195C197.911 675.905 198.195 675.652 198.795 675.435C199.432 675.213 200.094 675.044 200.78 674.927C201.499 674.77 201.967 674.678 202.185 674.653L206.545 674.144Z"/>
<path d="M224.245 679.127L208.983 680.91L206.007 655.588C205.96 655.19 206.251 654.844 206.879 654.55C207.504 654.22 208.264 653.947 209.159 653.733C210.087 653.477 210.949 653.285 211.744 653.155C212.571 652.985 213.13 652.883 213.421 652.849L231.953 650.684C232.244 650.65 232.755 650.609 233.486 650.56C234.253 650.508 235.064 650.505 235.916 650.552C236.801 650.559 237.602 650.631 238.318 650.767C239.029 650.868 239.495 651.07 239.715 651.375C239.859 651.028 240.247 650.725 240.88 650.468C241.544 650.17 242.27 649.92 243.057 649.718C243.88 649.512 244.653 649.348 245.375 649.227C246.13 649.065 246.689 648.963 247.052 648.921L250.486 648.519C250.777 648.486 251.326 648.458 252.134 648.437C252.974 648.376 253.857 648.364 254.783 648.403C255.74 648.402 256.561 648.489 257.245 648.666C257.924 648.807 258.288 649.077 258.334 649.476L261.311 674.797L246.049 676.58L243.289 653.106L240.019 653.488L242.778 676.962L227.516 678.745L224.757 655.271L221.486 655.653L224.245 679.127Z"/>
<path d="M261.197 651.014L260.763 647.319L287.472 644.199C287.762 644.165 288.312 644.138 289.12 644.117C289.96 644.055 290.842 644.044 291.768 644.083C292.726 644.081 293.546 644.169 294.23 644.346C294.91 644.487 295.273 644.757 295.32 645.155L298.079 668.629C298.122 668.991 297.831 669.337 297.207 669.667C296.582 669.997 295.806 670.29 294.879 670.545C293.983 670.76 293.121 670.953 292.294 671.123C291.499 671.252 290.956 671.334 290.665 671.368L270.552 673.718C270.261 673.751 269.696 673.799 268.856 673.861C268.048 673.881 267.165 673.893 266.207 673.894C265.282 673.856 264.477 673.748 263.793 673.571C263.109 673.393 262.746 673.124 262.703 672.761L260.947 657.819C260.9 657.42 261.191 657.074 261.82 656.78C262.444 656.45 263.204 656.178 264.1 655.963C265.027 655.708 265.889 655.515 266.684 655.386C267.511 655.216 268.07 655.114 268.361 655.08L273.212 654.513C273.612 654.466 274.177 654.419 274.908 654.37C275.676 654.317 276.486 654.314 277.339 654.361C278.187 654.372 278.951 654.448 279.631 654.589C280.311 654.73 280.76 654.953 280.98 655.258C281.021 655.29 281.048 655.36 281.06 655.469L280.275 648.785L261.197 651.014ZM281.278 657.316L276.426 657.883L277.749 669.131L282.6 668.564L281.278 657.316Z"/>
<path d="M315.033 668.521L299.771 670.304L296.795 644.983C296.748 644.584 297.039 644.238 297.667 643.945C298.291 643.615 299.051 643.342 299.947 643.127C300.875 642.872 301.736 642.68 302.532 642.55C303.359 642.38 303.918 642.278 304.209 642.244L322.741 640.079C323.032 640.045 323.543 640.004 324.274 639.955C325.041 639.902 325.851 639.899 326.704 639.947C327.589 639.953 328.39 640.025 329.106 640.162C329.817 640.262 330.283 640.465 330.503 640.77C330.647 640.423 331.035 640.12 331.667 639.863C332.332 639.565 333.058 639.315 333.845 639.112C334.668 638.906 335.441 638.742 336.163 638.621C336.918 638.46 337.477 638.358 337.84 638.315L341.274 637.914C341.565 637.88 342.114 637.853 342.922 637.832C343.762 637.77 344.645 637.759 345.57 637.798C346.528 637.796 347.349 637.884 348.033 638.061C348.712 638.202 349.076 638.472 349.122 638.87L352.099 664.192L336.837 665.974L334.077 642.501L330.807 642.883L333.566 666.357L318.304 668.139L315.545 644.665L312.274 645.047L315.033 668.521Z"/>
<path d="M364.898 651.184L364.463 647.489L380.816 645.579L381.25 649.274L364.898 651.184Z"/>
<path d="M412.139 620.547L427.401 618.764L431.431 653.052C431.474 653.414 431.183 653.76 430.559 654.09C429.935 654.42 429.159 654.713 428.231 654.968C427.335 655.183 426.474 655.375 425.646 655.545C424.851 655.675 424.308 655.757 424.017 655.791L404.395 658.083C404.104 658.117 403.539 658.164 402.698 658.226C401.89 658.247 401.008 658.258 400.05 658.26C399.125 658.221 398.32 658.113 397.636 657.936C396.952 657.759 396.589 657.489 396.546 657.127L393.787 633.653C393.74 633.254 394.031 632.908 394.66 632.614C395.284 632.284 396.044 632.012 396.94 631.797C397.867 631.542 398.729 631.35 399.524 631.22C400.351 631.05 400.91 630.948 401.201 630.914L405.616 630.398C406.016 630.351 406.581 630.304 407.312 630.255C408.08 630.202 408.89 630.199 409.743 630.247C410.591 630.258 411.355 630.334 412.035 630.475C412.714 630.615 413.164 630.838 413.384 631.143L412.139 620.547ZM411.591 653.496L415.952 652.987L413.627 633.208L409.266 633.717L411.591 653.496Z"/>
<path d="M467.2 647L467.635 650.695L440.926 653.815C440.635 653.849 440.07 653.897 439.229 653.958C438.422 653.979 437.539 653.991 436.581 653.992C435.656 653.954 434.851 653.846 434.167 653.668C433.483 653.491 433.12 653.222 433.077 652.859L430.318 629.385C430.271 628.987 430.562 628.641 431.191 628.347C431.815 628.017 432.575 627.745 433.471 627.53C434.398 627.275 435.26 627.082 436.055 626.953C436.882 626.782 437.441 626.68 437.732 626.646L457.355 624.354C457.646 624.32 458.195 624.293 459.003 624.272C459.843 624.211 460.726 624.199 461.651 624.238C462.609 624.236 463.43 624.324 464.113 624.501C464.793 624.642 465.156 624.912 465.203 625.31L467.055 641.068C467.098 641.431 466.807 641.777 466.183 642.107C465.559 642.437 464.783 642.729 463.855 642.985C462.959 643.199 462.098 643.392 461.27 643.562C460.475 643.691 459.932 643.773 459.642 643.807L455.226 644.323C454.863 644.365 454.298 644.413 453.53 644.466C452.763 644.519 451.955 644.54 451.106 644.529C450.254 644.482 449.487 644.387 448.808 644.247C448.128 644.106 447.678 643.883 447.458 643.578L448.122 649.229L467.2 647ZM447.215 641.513L451.576 641.004L450.158 628.941L445.797 629.45L447.215 641.513Z"/>
<path d="M497.374 619.679L497.809 623.374L482.328 625.183L483.261 633.116L489.584 632.377C489.875 632.343 490.383 632.284 491.11 632.199C491.873 632.11 492.731 632.046 493.685 632.008C494.67 631.93 495.608 631.912 496.497 631.956C497.418 631.958 498.184 632.052 498.795 632.238C499.402 632.387 499.729 632.661 499.776 633.06L501.169 644.905C501.211 645.268 500.92 645.614 500.296 645.944C499.672 646.274 498.896 646.566 497.968 646.822C497.072 647.036 496.211 647.229 495.383 647.399C494.588 647.528 494.045 647.61 493.755 647.644L469.826 650.439L469.391 646.745L485.689 644.841L484.731 636.69L478.408 637.429C478.117 637.463 477.59 637.524 476.827 637.613C476.101 637.698 475.244 637.78 474.259 637.858C473.306 637.896 472.368 637.914 471.447 637.911C470.558 637.868 469.808 637.754 469.197 637.568C468.585 637.383 468.258 637.109 468.216 636.746L466.849 625.118C466.802 624.72 467.093 624.373 467.722 624.08C468.346 623.75 469.106 623.477 470.002 623.263C470.929 623.007 471.791 622.815 472.586 622.685C473.413 622.515 473.972 622.413 474.263 622.379L497.374 619.679Z"/>
<path d="M514.807 614.889L499.544 616.672L499.027 612.27C498.98 611.872 499.271 611.526 499.9 611.232C500.524 610.902 501.284 610.63 502.18 610.415C503.107 610.16 503.969 609.967 504.764 609.838C505.591 609.667 506.15 609.565 506.441 609.531L514.072 608.64L514.807 614.889ZM499.809 619.395L515.072 617.612L518.265 644.781L503.003 646.564L499.809 619.395Z"/>
<path d="M535.891 648.616L540.252 648.107L539.421 641.043L527.43 642.444C527.139 642.478 526.573 642.525 525.733 642.587C524.925 642.608 524.043 642.619 523.085 642.621C522.16 642.582 521.355 642.474 520.671 642.297C519.987 642.119 519.624 641.85 519.581 641.488L518.828 635.076C518.781 634.677 519.072 634.331 519.7 634.037C520.324 633.707 521.084 633.435 521.98 633.22C522.908 632.965 523.769 632.772 524.564 632.643C525.392 632.473 525.951 632.371 526.241 632.337L538.233 630.936L536.809 618.819L532.448 619.328L533.553 628.728L525.922 629.62C525.631 629.654 525.066 629.701 524.226 629.763C523.418 629.784 522.535 629.795 521.578 629.797C520.652 629.758 519.847 629.65 519.164 629.473C518.48 629.296 518.116 629.026 518.074 628.664L516.969 619.263C516.922 618.865 517.213 618.519 517.841 618.225C518.466 617.895 519.226 617.623 520.121 617.408C521.049 617.153 521.911 616.96 522.706 616.831C523.533 616.66 524.092 616.558 524.383 616.524L553.545 613.118L553.979 616.813L545.312 617.825L545.37 618.314C545.919 618.287 546.561 618.267 547.297 618.254C548.068 618.238 548.826 618.259 549.57 618.319C550.35 618.375 550.989 618.484 551.487 618.646C552.021 618.804 552.307 619.046 552.346 619.372L553.713 631.001C553.755 631.363 553.464 631.709 552.84 632.039C552.216 632.369 551.44 632.661 550.512 632.917C549.616 633.132 548.755 633.324 547.928 633.494C547.132 633.624 546.589 633.705 546.299 633.739L534.307 635.14L534.626 637.857L546.618 636.456C546.909 636.422 547.458 636.395 548.266 636.374C549.106 636.313 549.989 636.301 550.914 636.34C551.872 636.338 552.693 636.426 553.377 636.603C554.056 636.744 554.42 637.014 554.466 637.412L555.731 648.171C555.774 648.534 555.483 648.88 554.859 649.21C554.234 649.54 553.456 649.814 552.524 650.033C551.633 650.284 550.771 650.477 549.94 650.611C549.149 650.776 548.608 650.876 548.317 650.91L528.694 653.202C528.404 653.236 527.836 653.266 526.992 653.291C526.188 653.348 525.305 653.36 524.343 653.325C523.422 653.323 522.62 653.233 521.936 653.056C521.252 652.878 520.888 652.609 520.846 652.246L520.335 647.899C520.288 647.501 520.577 647.137 521.201 646.807C521.83 646.513 522.59 646.241 523.481 645.99C524.413 645.77 525.275 645.578 526.066 645.412C526.897 645.278 527.458 645.194 527.749 645.16L535.38 644.269L535.891 648.616Z"/>
<path d="M573.069 638.379L557.807 640.162L554.613 612.993L581.867 609.809C582.158 609.775 582.707 609.748 583.515 609.727C584.355 609.666 585.238 609.654 586.164 609.693C587.121 609.691 587.942 609.779 588.626 609.956C589.306 610.097 589.669 610.367 589.716 610.765L592.692 636.087L577.43 637.87L574.671 614.396L570.31 614.905L573.069 638.379Z"/>
<path d="M634.411 603.672L634.845 607.367L619.365 609.175L620.298 617.108L626.621 616.37C626.911 616.336 627.42 616.276 628.147 616.191C628.91 616.102 629.768 616.039 630.721 616.001C631.707 615.922 632.644 615.905 633.533 615.948C634.455 615.95 635.221 616.044 635.832 616.23C636.439 616.379 636.766 616.653 636.813 617.052L638.205 628.897C638.248 629.26 637.957 629.606 637.333 629.936C636.708 630.266 635.932 630.558 635.004 630.814C634.109 631.029 633.247 631.221 632.42 631.391C631.625 631.521 631.082 631.602 630.791 631.636L606.862 634.432L606.428 630.737L622.726 628.833L621.768 620.682L615.445 621.421C615.154 621.455 614.627 621.516 613.864 621.605C613.137 621.69 612.281 621.772 611.296 621.85C610.342 621.888 609.405 621.906 608.484 621.903C607.595 621.86 606.845 621.746 606.233 621.56C605.622 621.375 605.295 621.101 605.253 620.739L603.886 609.11C603.839 608.712 604.13 608.366 604.758 608.072C605.383 607.742 606.143 607.469 607.038 607.255C607.966 606.999 608.827 606.807 609.623 606.677C610.45 606.507 611.009 606.405 611.3 606.371L634.411 603.672Z"/>
<path d="M637.408 608.169L636.974 604.474L641.88 603.901L640.985 596.294L655.157 594.638L656.052 602.245L662.593 601.481L663.027 605.176L656.486 605.94L658.683 624.633L665.224 623.868L665.658 627.563L651.486 629.219C651.196 629.253 650.63 629.301 649.79 629.362C648.982 629.383 648.099 629.394 647.142 629.396C646.216 629.357 645.412 629.249 644.728 629.072C644.044 628.895 643.681 628.625 643.638 628.263L641.498 610.06C641.46 609.734 641.664 609.434 642.111 609.162C642.594 608.885 643.193 608.65 643.907 608.456C644.617 608.227 645.331 608.033 646.049 607.876C646.803 607.714 647.451 607.583 647.992 607.483L647.928 606.94L637.408 608.169Z"/>
<path d="M664.115 600.202L679.377 598.419L682.137 621.893L686.497 621.383L683.738 597.909L699 596.127L701.977 621.448C702.019 621.81 701.728 622.156 701.104 622.486C700.48 622.816 699.704 623.109 698.776 623.364C697.88 623.579 697.019 623.772 696.192 623.942C695.396 624.071 694.853 624.153 694.563 624.187L674.94 626.479C674.649 626.513 674.084 626.561 673.244 626.622C672.436 626.643 671.553 626.654 670.595 626.656C669.67 626.617 668.865 626.509 668.181 626.332C667.497 626.155 667.134 625.885 667.091 625.523L664.115 600.202Z"/>
<path d="M719.215 584.676L734.477 582.894L738.508 617.181C738.55 617.543 738.259 617.889 737.635 618.219C737.011 618.549 736.235 618.842 735.307 619.097C734.411 619.312 733.55 619.504 732.723 619.674C731.927 619.804 731.384 619.886 731.094 619.92L711.471 622.212C711.18 622.246 710.615 622.294 709.775 622.355C708.967 622.376 708.084 622.387 707.126 622.389C706.201 622.35 705.396 622.242 704.712 622.065C704.028 621.888 703.665 621.618 703.622 621.256L700.863 597.782C700.816 597.383 701.107 597.037 701.736 596.744C702.36 596.414 703.12 596.141 704.016 595.926C704.943 595.671 705.805 595.479 706.6 595.349C707.427 595.179 707.986 595.077 708.277 595.043L712.692 594.527C713.092 594.48 713.657 594.433 714.388 594.384C715.156 594.331 715.966 594.328 716.819 594.376C717.667 594.387 718.431 594.463 719.111 594.604C719.791 594.745 720.241 594.967 720.461 595.272L719.215 584.676ZM718.668 617.625L723.028 617.116L720.703 597.337L716.343 597.846L718.668 617.625Z"/>
<path d="M752.174 587.161L736.912 588.944L736.395 584.542C736.348 584.144 736.639 583.798 737.267 583.504C737.892 583.174 738.652 582.902 739.547 582.687C740.475 582.432 741.337 582.239 742.132 582.11C742.959 581.939 743.518 581.837 743.809 581.803L751.44 580.912L752.174 587.161ZM737.177 591.667L752.439 589.884L755.633 617.053L740.371 618.836L737.177 591.667Z"/>
<path d="M784.567 613.673L764.944 615.965C764.653 615.999 764.088 616.047 763.248 616.108C762.44 616.129 761.557 616.141 760.6 616.142C759.674 616.104 758.869 615.996 758.185 615.818C757.502 615.641 757.138 615.372 757.096 615.009L754.336 591.535C754.29 591.137 754.58 590.791 755.209 590.497C755.833 590.167 756.593 589.895 757.489 589.68C758.417 589.425 759.278 589.232 760.073 589.103C760.901 588.932 761.46 588.83 761.75 588.797L781.373 586.504C781.664 586.47 782.213 586.443 783.021 586.422C783.861 586.361 784.744 586.349 785.67 586.388C786.627 586.386 787.448 586.474 788.132 586.651C788.811 586.792 789.175 587.062 789.222 587.46L791.981 610.934C792.023 611.297 791.733 611.643 791.108 611.973C790.484 612.303 789.708 612.595 788.78 612.85C787.885 613.065 787.023 613.258 786.196 613.428C785.401 613.557 784.858 613.639 784.567 613.673ZM772.141 611.379L776.501 610.87L774.177 591.091L769.816 591.6L772.141 611.379Z"/>
<path d="M23.0939 397.944C26.0754 397.4 28.9346 399.369 29.4802 402.341L35.0532 432.701C35.5987 435.673 33.6241 438.523 30.6426 439.067L17.557 441.454C14.5755 441.998 11.7163 440.029 11.1707 437.057L5.59773 406.698C5.05214 403.725 7.02683 400.875 10.0083 400.331L23.0939 397.944Z"/>
<path d="M19.0669 336.772C22.0978 336.795 24.5362 339.263 24.5132 342.285L24.2785 373.147C24.2555 376.169 21.7799 378.6 18.749 378.577L5.44649 378.476C2.41559 378.453 -0.022819 375.985 0.000161102 372.964L0.234893 342.101C0.257874 339.08 2.73354 336.649 5.76444 336.672L19.0669 336.772Z"/>
<path d="M23.9344 271.823C26.9367 272.238 29.0327 275.001 28.616 277.994L24.3603 308.564C23.9437 311.557 21.1721 313.647 18.1699 313.231L4.99334 311.408C1.99112 310.993 -0.104913 308.23 0.311721 305.237L4.56746 274.667C4.9841 271.674 7.75563 269.584 10.7579 270L23.9344 271.823Z"/>
<path d="M41.4452 456.541C43.8647 454.721 47.3061 455.201 49.1316 457.613L67.7787 482.251C69.6043 484.663 69.1227 488.094 66.7031 489.913L56.0838 497.901C53.6642 499.72 50.2228 499.24 48.3973 496.828L29.7502 472.191C27.9247 469.779 28.4062 466.348 30.8258 464.528L41.4452 456.541Z"/>
<path d="M31.5541 434.494C32.9533 433.914 34.5596 434.574 35.1419 435.969L44.906 459.358C45.4883 460.752 44.8261 462.354 43.4269 462.934L34.2294 466.75C32.8303 467.33 31.224 466.67 30.6417 465.275L20.8776 441.887C20.2953 440.492 20.9575 438.891 22.3566 438.31L31.5541 434.494Z"/>
<path d="M16.7477 372.456C18.2237 372.113 19.699 373.028 20.0429 374.499L25.8091 399.172C26.153 400.643 25.2353 402.114 23.7593 402.456L14.0569 404.71C12.581 405.053 11.1057 404.138 10.7618 402.666L4.99555 377.994C4.65168 376.523 5.56942 375.052 7.04539 374.709L16.7477 372.456Z"/>
<path d="M15.6202 309.265C17.1353 309.231 18.3912 310.428 18.4253 311.938L18.9971 337.265C19.0312 338.775 17.8306 340.027 16.3154 340.061L6.35576 340.284C4.84065 340.318 3.58476 339.122 3.55066 337.611L2.97887 312.284C2.94478 310.774 4.14537 309.522 5.66049 309.488L15.6202 309.265Z"/>
<path d="M34.9928 206.592C37.9641 207.189 39.8874 210.074 39.2887 213.036L33.173 243.291C32.5743 246.253 29.6803 248.171 26.709 247.574L13.6682 244.954C10.697 244.357 8.77364 241.472 9.37237 238.51L15.4881 208.255C16.0868 205.293 18.9808 203.376 21.9521 203.973L34.9928 206.592Z"/>
<path d="M54.0042 148.292C56.8106 149.433 58.1573 152.626 57.0122 155.424L45.3156 184C44.1705 186.798 40.9672 188.141 38.1608 186.999L25.8439 181.989C23.0375 180.847 21.6908 177.654 22.8359 174.857L34.5325 146.28C35.6776 143.483 38.8809 142.14 41.6872 143.282L54.0042 148.292Z"/>
<path d="M82.6812 89.7701C85.315 91.2655 86.2341 94.6062 84.734 97.2317L69.4116 124.051C67.9116 126.676 64.5604 127.592 61.9267 126.097L50.3672 119.534C47.7334 118.039 46.8143 114.698 48.3144 112.072L63.6368 85.2534C65.1369 82.6279 68.488 81.7117 71.1218 83.2071L82.6812 89.7701Z"/>
<path d="M25.294 244.058C26.7921 244.286 27.8208 245.682 27.5916 247.176L23.7493 272.218C23.5202 273.711 22.12 274.736 20.6219 274.508L10.7742 273.006C9.27617 272.778 8.2475 271.382 8.47664 269.889L12.3189 244.847C12.5481 243.353 13.9483 242.328 15.4463 242.556L25.294 244.058Z"/>
<path d="M38.5788 180.575C40.077 180.802 41.1069 182.197 40.879 183.691L37.058 208.736C36.8302 210.229 35.4309 211.256 33.9326 211.029L24.0836 209.536C22.5854 209.308 21.5555 207.913 21.7834 206.42L25.6044 181.375C25.8322 179.881 27.2315 178.854 28.7298 179.082L38.5788 180.575Z"/>
<path d="M61.0339 121.471C62.4537 121.999 63.1749 123.575 62.6448 124.99L53.7562 148.723C53.2262 150.138 51.6455 150.857 50.2257 150.329L40.8928 146.855C39.473 146.327 38.7518 144.751 39.2818 143.336L48.1704 119.603C48.7005 118.188 50.2812 117.469 51.701 117.997L61.0339 121.471Z"/>
<path d="M798.637 315.455C795.656 314.911 792.796 316.88 792.251 319.852L786.678 350.211C786.132 353.184 788.107 356.034 791.088 356.578L804.174 358.965C807.155 359.509 810.015 357.54 810.56 354.568L816.133 324.208C816.679 321.236 814.704 318.386 811.723 317.842L798.637 315.455Z"/>
<path d="M802.664 254.283C799.633 254.306 797.195 256.774 797.218 259.796L797.453 290.658C797.475 293.68 799.951 296.11 802.982 296.088L816.285 295.987C819.315 295.964 821.754 293.496 821.731 290.475L821.496 259.612C821.473 256.591 818.997 254.16 815.967 254.183L802.664 254.283Z"/>
<path d="M797.797 189.333C794.794 189.749 792.698 192.512 793.115 195.504L797.371 226.075C797.787 229.068 800.559 231.157 803.561 230.742L816.738 228.919C819.74 228.504 821.836 225.741 821.419 222.748L817.164 192.178C816.747 189.185 813.975 187.095 810.973 187.511L797.797 189.333Z"/>
<path d="M780.286 374.052C777.866 372.232 774.425 372.712 772.599 375.124L753.952 399.762C752.127 402.174 752.608 405.604 755.028 407.424L765.647 415.411C768.067 417.231 771.508 416.751 773.334 414.339L791.981 389.701C793.806 387.289 793.325 383.859 790.905 382.039L780.286 374.052Z"/>
<path d="M790.177 352.005C788.778 351.425 787.171 352.085 786.589 353.48L776.825 376.868C776.243 378.263 776.905 379.864 778.304 380.445L787.502 384.261C788.901 384.841 790.507 384.181 791.089 382.786L800.853 359.398C801.436 358.003 800.774 356.402 799.374 355.821L790.177 352.005Z"/>
<path d="M804.983 289.967C803.507 289.624 802.032 290.539 801.688 292.01L795.922 316.683C795.578 318.154 796.496 319.625 797.972 319.967L807.674 322.221C809.15 322.564 810.625 321.649 810.969 320.177L816.735 295.505C817.079 294.034 816.162 292.563 814.686 292.22L804.983 289.967Z"/>
<path d="M806.111 226.776C804.596 226.742 803.34 227.938 803.306 229.449L802.734 254.776C802.7 256.286 803.9 257.538 805.416 257.572L815.375 257.795C816.89 257.829 818.146 256.632 818.18 255.122L818.752 229.795C818.786 228.285 817.586 227.033 816.07 226.999L806.111 226.776Z"/>
<path d="M787.374 124.103C784.403 124.7 782.479 127.585 783.078 130.547L789.194 160.802C789.793 163.764 792.687 165.682 795.658 165.085L808.699 162.465C811.67 161.868 813.593 158.983 812.995 156.021L806.879 125.766C806.28 122.804 803.386 120.887 800.415 121.483L787.374 124.103Z"/>
<path d="M768.363 65.8026C765.556 66.9441 764.21 70.1374 765.355 72.935L777.051 101.511C778.196 104.309 781.4 105.651 784.206 104.51L796.523 99.4999C799.329 98.3583 800.676 95.1651 799.531 92.3675L787.834 63.7911C786.689 60.9935 783.486 59.651 780.68 60.7925L768.363 65.8026Z"/>
<path d="M739.686 7.28101C737.052 8.77637 736.133 12.117 737.633 14.7426L752.955 41.5615C754.455 44.187 757.806 45.1032 760.44 43.6078L772 37.0448C774.634 35.5494 775.553 32.2087 774.053 29.5832L758.73 2.7643C757.23 0.138753 753.879 -0.777441 751.245 0.717927L739.686 7.28101Z"/>
<path d="M798.012 160.846C796.507 161.018 795.426 162.375 795.599 163.876L798.493 189.044C798.665 190.545 800.026 191.622 801.531 191.45L811.429 190.319C812.934 190.147 814.015 188.791 813.842 187.29L810.948 162.121C810.776 160.62 809.415 159.543 807.91 159.715L798.012 160.846Z"/>
<path d="M783.788 98.0857C782.29 98.3129 781.26 99.7078 781.488 101.201L785.309 126.247C785.537 127.74 786.936 128.767 788.434 128.54L798.283 127.046C799.782 126.819 800.811 125.424 800.584 123.931L796.763 98.8856C796.535 97.392 795.135 96.3653 793.637 96.5925L783.788 98.0857Z"/>
<path d="M761.333 38.9815C759.913 39.5099 759.192 41.0857 759.722 42.501L768.611 66.234C769.141 67.6493 770.721 68.3683 772.141 67.8399L781.474 64.3662C782.894 63.8378 783.615 62.2621 783.085 60.8467L774.197 37.1138C773.666 35.6984 772.086 34.9795 770.666 35.5079L761.333 38.9815Z"/>
<path d="M191.888 587.152L172.135 589.456L163.854 519.115L183.607 516.811L191.888 587.152Z"/>
</mask>
<path d="M384.614 614.352L305.578 623.584L285.458 452.42C285.224 450.428 286.758 448.596 290.061 446.925C293.364 445.254 297.346 443.871 302.006 442.776C306.645 441.499 311.043 440.526 315.201 439.857C319.337 439.007 322.223 438.486 323.858 438.295L441.051 424.605C442.686 424.414 445.614 424.256 449.836 424.13C454.036 423.823 458.541 423.756 463.35 423.928C468.138 423.92 472.332 424.348 475.934 425.212C479.535 426.077 481.453 427.506 481.687 429.498L501.807 600.662L422.77 609.895L414.115 536.267L375.96 540.724L384.614 614.352ZM373.724 521.706L411.88 517.249L403.768 448.24L365.612 452.697L373.724 521.706Z" fill="white"/>
<path d="M497.115 437.886L494.816 418.325L610.1 404.858C611.735 404.667 614.664 404.508 618.885 404.382C623.267 404.054 627.954 403.966 632.945 404.117C638.096 404.066 642.472 404.473 646.073 405.338C649.674 406.202 651.603 407.721 651.858 409.895L594.698 569.981L668.284 561.385L670.584 580.946L550.666 594.955C549.031 595.146 546.022 595.405 541.64 595.734C537.419 595.859 532.823 595.937 527.853 595.967C522.863 595.815 518.476 595.318 514.693 594.475C511.092 593.61 509.254 592.08 509.18 589.886L566.068 429.832L497.115 437.886Z" fill="white"/>
<path d="M798.758 565.974L719.722 575.206L700.72 413.551L658.476 418.486L656.24 399.468L819.764 380.366L822 399.384L779.756 404.319L798.758 565.974Z" fill="white"/>
<path d="M240.23 623.59L238.559 609.391L256.117 607.343L258.663 628.969C258.937 631.3 258.2 633.231 256.453 634.764C254.705 636.296 252.807 637.182 250.758 637.421L94.9306 655.596C89.5169 656.227 84.6376 655.098 80.2927 652.21C76.0941 649.304 73.669 645.084 73.0175 639.549L55.7863 493.186C55.1348 487.652 56.5139 482.988 59.9238 479.195C63.48 475.385 67.965 473.164 73.3787 472.532L259.933 450.774C265.347 450.142 270.153 451.279 274.351 454.185C278.696 457.074 281.195 461.286 281.846 466.82L294.191 571.677C294.928 577.939 293.282 582.856 289.253 586.426C285.206 589.851 280.256 591.904 274.404 592.587L224.363 598.423C223.193 598.56 221.062 598.735 217.973 598.947C215.012 598.997 211.75 599.009 208.187 598.981C204.624 598.954 201.401 598.666 198.518 598.116C195.635 597.567 193.824 596.67 193.085 595.428C192.654 596.807 191.1 598.096 188.422 599.294C185.892 600.475 182.978 601.553 179.681 602.528C176.367 603.357 173.183 604.024 170.127 604.528C167.071 605.032 164.812 605.369 163.349 605.54L143.157 607.895C141.987 608.031 139.71 608.223 136.328 608.47C133.075 608.554 129.52 608.6 125.664 608.606C121.938 608.45 118.698 608.016 115.944 607.304C113.19 606.592 111.728 605.508 111.556 604.051L101.526 518.855C101.338 517.253 102.509 515.861 105.039 514.68C107.553 513.354 110.613 512.258 114.22 511.395C117.955 510.369 121.424 509.595 124.626 509.074C127.957 508.39 130.208 507.98 131.378 507.844L212.584 498.372C214.34 498.167 216.845 498.023 220.098 497.939C223.48 497.692 226.962 497.655 230.542 497.828C234.251 497.838 237.41 498.208 240.017 498.937C242.607 499.521 243.997 500.614 244.185 502.216L253.341 579.985L274.63 577.502C275.654 577.382 276.261 576.869 276.451 575.961C276.641 575.053 276.693 574.235 276.607 573.507L264.314 469.086C264.211 468.212 263.97 467.428 263.592 466.734C263.343 465.878 262.633 465.517 261.462 465.654L75.3471 487.361C74.3228 487.481 73.7159 487.995 73.5261 488.903C73.3192 489.665 73.2672 490.483 73.37 491.357L90.5498 637.283C90.6184 637.866 90.7601 638.44 90.975 639.005C91.2071 639.716 91.5769 640.338 92.0844 640.869L240.23 623.59ZM172.135 589.456L191.888 587.152L183.607 516.811L163.854 519.115L172.135 589.456Z" fill="white"/>
<path d="M100.632 669.77L100.198 666.075L126.907 662.955C127.198 662.921 127.747 662.894 128.555 662.873C129.395 662.812 130.278 662.8 131.203 662.839C132.161 662.837 132.982 662.925 133.666 663.102C134.345 663.243 134.709 663.513 134.755 663.911L137.515 687.385C137.557 687.748 137.266 688.094 136.642 688.424C136.018 688.754 135.242 689.046 134.314 689.302C133.418 689.516 132.557 689.709 131.73 689.879C130.934 690.008 130.391 690.09 130.101 690.124L109.987 692.474C109.697 692.508 109.131 692.555 108.291 692.617C107.483 692.638 106.6 692.649 105.643 692.651C104.717 692.612 103.913 692.504 103.229 692.327C102.545 692.15 102.182 691.88 102.139 691.518L100.382 676.575C100.336 676.176 100.626 675.83 101.255 675.536C101.879 675.206 102.639 674.934 103.535 674.719C104.463 674.464 105.324 674.272 106.119 674.142C106.947 673.972 107.506 673.87 107.796 673.836L112.648 673.269C113.047 673.222 113.613 673.175 114.344 673.126C115.111 673.073 115.921 673.07 116.774 673.118C117.623 673.129 118.387 673.205 119.066 673.346C119.746 673.487 120.196 673.709 120.416 674.014C120.456 674.046 120.483 674.117 120.496 674.225L119.71 667.542L100.632 669.77ZM120.713 676.073L115.862 676.639L117.184 687.887L122.035 687.321L120.713 676.073Z" fill="white"/>
<path d="M169.297 681.8L169.731 685.495L146.838 688.169C146.547 688.203 145.982 688.251 145.142 688.312C144.334 688.333 143.451 688.344 142.493 688.346C141.568 688.307 140.763 688.199 140.079 688.022C139.395 687.845 139.032 687.575 138.989 687.213C138.985 687.177 139.237 686.652 139.744 685.638C140.246 684.587 140.881 683.246 141.647 681.615C142.449 679.978 143.313 678.243 144.24 676.409C145.162 674.539 146.054 672.727 146.916 670.974C147.815 669.216 148.577 667.713 149.204 666.465C149.827 665.18 150.244 664.342 150.456 663.95L136.992 665.523L136.558 661.828L158.906 659.217C159.197 659.183 159.746 659.156 160.554 659.135C161.394 659.074 162.277 659.062 163.203 659.101C164.16 659.099 164.981 659.187 165.665 659.364C166.345 659.505 166.708 659.775 166.755 660.173C166.759 660.21 166.51 660.753 166.007 661.803C165.5 662.817 164.845 664.142 164.043 665.778C163.277 667.41 162.433 669.161 161.511 671.032C160.584 672.866 159.672 674.662 158.773 676.419C157.911 678.172 157.169 679.691 156.546 680.976C155.919 682.224 155.5 683.044 155.288 683.436L169.297 681.8Z" fill="white"/>
<path d="M168.741 662.916L168.307 659.221L173.213 658.648L172.318 651.041L186.49 649.385L187.385 656.992L193.926 656.228L194.36 659.923L187.819 660.687L190.016 679.38L196.557 678.615L196.991 682.31L182.819 683.966C182.529 684 181.963 684.048 181.123 684.109C180.315 684.13 179.432 684.141 178.475 684.143C177.549 684.104 176.745 683.996 176.061 683.819C175.377 683.642 175.014 683.372 174.971 683.01L172.831 664.807C172.793 664.481 172.997 664.181 173.444 663.909C173.927 663.632 174.526 663.397 175.24 663.203C175.95 662.974 176.664 662.78 177.382 662.623C178.137 662.461 178.784 662.33 179.325 662.23L179.261 661.687L168.741 662.916Z" fill="white"/>
<path d="M206.545 674.144L207.242 680.066C207.276 680.356 206.974 680.612 206.337 680.833C205.736 681.05 205.095 681.235 204.413 681.388C203.727 681.505 203.257 681.579 203.002 681.608L198.642 682.118L197.945 676.195C197.911 675.905 198.195 675.652 198.795 675.435C199.432 675.213 200.094 675.044 200.78 674.927C201.499 674.77 201.967 674.678 202.185 674.653L206.545 674.144Z" fill="white"/>
<path d="M224.245 679.127L208.983 680.91L206.007 655.588C205.96 655.19 206.251 654.844 206.879 654.55C207.504 654.22 208.264 653.947 209.159 653.733C210.087 653.477 210.949 653.285 211.744 653.155C212.571 652.985 213.13 652.883 213.421 652.849L231.953 650.684C232.244 650.65 232.755 650.609 233.486 650.56C234.253 650.508 235.064 650.505 235.916 650.552C236.801 650.559 237.602 650.631 238.318 650.767C239.029 650.868 239.495 651.07 239.715 651.375C239.859 651.028 240.247 650.725 240.88 650.468C241.544 650.17 242.27 649.92 243.057 649.718C243.88 649.512 244.653 649.348 245.375 649.227C246.13 649.065 246.689 648.963 247.052 648.921L250.486 648.519C250.777 648.486 251.326 648.458 252.134 648.437C252.974 648.376 253.857 648.364 254.783 648.403C255.74 648.402 256.561 648.489 257.245 648.666C257.924 648.807 258.288 649.077 258.334 649.476L261.311 674.797L246.049 676.58L243.289 653.106L240.019 653.488L242.778 676.962L227.516 678.745L224.757 655.271L221.486 655.653L224.245 679.127Z" fill="white"/>
<path d="M261.197 651.014L260.763 647.319L287.472 644.199C287.762 644.165 288.312 644.138 289.12 644.117C289.96 644.055 290.842 644.044 291.768 644.083C292.726 644.081 293.546 644.169 294.23 644.346C294.91 644.487 295.273 644.757 295.32 645.155L298.079 668.629C298.122 668.991 297.831 669.337 297.207 669.667C296.582 669.997 295.806 670.29 294.879 670.545C293.983 670.76 293.121 670.953 292.294 671.123C291.499 671.252 290.956 671.334 290.665 671.368L270.552 673.718C270.261 673.751 269.696 673.799 268.856 673.861C268.048 673.881 267.165 673.893 266.207 673.894C265.282 673.856 264.477 673.748 263.793 673.571C263.109 673.393 262.746 673.124 262.703 672.761L260.947 657.819C260.9 657.42 261.191 657.074 261.82 656.78C262.444 656.45 263.204 656.178 264.1 655.963C265.027 655.708 265.889 655.515 266.684 655.386C267.511 655.216 268.07 655.114 268.361 655.08L273.212 654.513C273.612 654.466 274.177 654.419 274.908 654.37C275.676 654.317 276.486 654.314 277.339 654.361C278.187 654.372 278.951 654.448 279.631 654.589C280.311 654.73 280.76 654.953 280.98 655.258C281.021 655.29 281.048 655.36 281.06 655.469L280.275 648.785L261.197 651.014ZM281.278 657.316L276.426 657.883L277.749 669.131L282.6 668.564L281.278 657.316Z" fill="white"/>
<path d="M315.033 668.521L299.771 670.304L296.795 644.983C296.748 644.584 297.039 644.238 297.667 643.945C298.291 643.615 299.051 643.342 299.947 643.127C300.875 642.872 301.736 642.68 302.532 642.55C303.359 642.38 303.918 642.278 304.209 642.244L322.741 640.079C323.032 640.045 323.543 640.004 324.274 639.955C325.041 639.902 325.851 639.899 326.704 639.947C327.589 639.953 328.39 640.025 329.106 640.162C329.817 640.262 330.283 640.465 330.503 640.77C330.647 640.423 331.035 640.12 331.667 639.863C332.332 639.565 333.058 639.315 333.845 639.112C334.668 638.906 335.441 638.742 336.163 638.621C336.918 638.46 337.477 638.358 337.84 638.315L341.274 637.914C341.565 637.88 342.114 637.853 342.922 637.832C343.762 637.77 344.645 637.759 345.57 637.798C346.528 637.796 347.349 637.884 348.033 638.061C348.712 638.202 349.076 638.472 349.122 638.87L352.099 664.192L336.837 665.974L334.077 642.501L330.807 642.883L333.566 666.357L318.304 668.139L315.545 644.665L312.274 645.047L315.033 668.521Z" fill="white"/>
<path d="M364.898 651.184L364.463 647.489L380.816 645.579L381.25 649.274L364.898 651.184Z" fill="white"/>
<path d="M412.139 620.547L427.401 618.764L431.431 653.052C431.474 653.414 431.183 653.76 430.559 654.09C429.935 654.42 429.159 654.713 428.231 654.968C427.335 655.183 426.474 655.375 425.646 655.545C424.851 655.675 424.308 655.757 424.017 655.791L404.395 658.083C404.104 658.117 403.539 658.164 402.698 658.226C401.89 658.247 401.008 658.258 400.05 658.26C399.125 658.221 398.32 658.113 397.636 657.936C396.952 657.759 396.589 657.489 396.546 657.127L393.787 633.653C393.74 633.254 394.031 632.908 394.66 632.614C395.284 632.284 396.044 632.012 396.94 631.797C397.867 631.542 398.729 631.35 399.524 631.22C400.351 631.05 400.91 630.948 401.201 630.914L405.616 630.398C406.016 630.351 406.581 630.304 407.312 630.255C408.08 630.202 408.89 630.199 409.743 630.247C410.591 630.258 411.355 630.334 412.035 630.475C412.714 630.615 413.164 630.838 413.384 631.143L412.139 620.547ZM411.591 653.496L415.952 652.987L413.627 633.208L409.266 633.717L411.591 653.496Z" fill="white"/>
<path d="M467.2 647L467.635 650.695L440.926 653.815C440.635 653.849 440.07 653.897 439.229 653.958C438.422 653.979 437.539 653.991 436.581 653.992C435.656 653.954 434.851 653.846 434.167 653.668C433.483 653.491 433.12 653.222 433.077 652.859L430.318 629.385C430.271 628.987 430.562 628.641 431.191 628.347C431.815 628.017 432.575 627.745 433.471 627.53C434.398 627.275 435.26 627.082 436.055 626.953C436.882 626.782 437.441 626.68 437.732 626.646L457.355 624.354C457.646 624.32 458.195 624.293 459.003 624.272C459.843 624.211 460.726 624.199 461.651 624.238C462.609 624.236 463.43 624.324 464.113 624.501C464.793 624.642 465.156 624.912 465.203 625.31L467.055 641.068C467.098 641.431 466.807 641.777 466.183 642.107C465.559 642.437 464.783 642.729 463.855 642.985C462.959 643.199 462.098 643.392 461.27 643.562C460.475 643.691 459.932 643.773 459.642 643.807L455.226 644.323C454.863 644.365 454.298 644.413 453.53 644.466C452.763 644.519 451.955 644.54 451.106 644.529C450.254 644.482 449.487 644.387 448.808 644.247C448.128 644.106 447.678 643.883 447.458 643.578L448.122 649.229L467.2 647ZM447.215 641.513L451.576 641.004L450.158 628.941L445.797 629.45L447.215 641.513Z" fill="white"/>
<path d="M497.374 619.679L497.809 623.374L482.328 625.183L483.261 633.116L489.584 632.377C489.875 632.343 490.383 632.284 491.11 632.199C491.873 632.11 492.731 632.046 493.685 632.008C494.67 631.93 495.608 631.912 496.497 631.956C497.418 631.958 498.184 632.052 498.795 632.238C499.402 632.387 499.729 632.661 499.776 633.06L501.169 644.905C501.211 645.268 500.92 645.614 500.296 645.944C499.672 646.274 498.896 646.566 497.968 646.822C497.072 647.036 496.211 647.229 495.383 647.399C494.588 647.528 494.045 647.61 493.755 647.644L469.826 650.439L469.391 646.745L485.689 644.841L484.731 636.69L478.408 637.429C478.117 637.463 477.59 637.524 476.827 637.613C476.101 637.698 475.244 637.78 474.259 637.858C473.306 637.896 472.368 637.914 471.447 637.911C470.558 637.868 469.808 637.754 469.197 637.568C468.585 637.383 468.258 637.109 468.216 636.746L466.849 625.118C466.802 624.72 467.093 624.373 467.722 624.08C468.346 623.75 469.106 623.477 470.002 623.263C470.929 623.007 471.791 622.815 472.586 622.685C473.413 622.515 473.972 622.413 474.263 622.379L497.374 619.679Z" fill="white"/>
<path d="M514.807 614.889L499.544 616.672L499.027 612.27C498.98 611.872 499.271 611.526 499.9 611.232C500.524 610.902 501.284 610.63 502.18 610.415C503.107 610.16 503.969 609.967 504.764 609.838C505.591 609.667 506.15 609.565 506.441 609.531L514.072 608.64L514.807 614.889ZM499.809 619.395L515.072 617.612L518.265 644.781L503.003 646.564L499.809 619.395Z" fill="white"/>
<path d="M535.891 648.616L540.252 648.107L539.421 641.043L527.43 642.444C527.139 642.478 526.573 642.525 525.733 642.587C524.925 642.608 524.043 642.619 523.085 642.621C522.16 642.582 521.355 642.474 520.671 642.297C519.987 642.119 519.624 641.85 519.581 641.488L518.828 635.076C518.781 634.677 519.072 634.331 519.7 634.037C520.324 633.707 521.084 633.435 521.98 633.22C522.908 632.965 523.769 632.772 524.564 632.643C525.392 632.473 525.951 632.371 526.241 632.337L538.233 630.936L536.809 618.819L532.448 619.328L533.553 628.728L525.922 629.62C525.631 629.654 525.066 629.701 524.226 629.763C523.418 629.784 522.535 629.795 521.578 629.797C520.652 629.758 519.847 629.65 519.164 629.473C518.48 629.296 518.116 629.026 518.074 628.664L516.969 619.263C516.922 618.865 517.213 618.519 517.841 618.225C518.466 617.895 519.226 617.623 520.121 617.408C521.049 617.153 521.911 616.96 522.706 616.831C523.533 616.66 524.092 616.558 524.383 616.524L553.545 613.118L553.979 616.813L545.312 617.825L545.37 618.314C545.919 618.287 546.561 618.267 547.297 618.254C548.068 618.238 548.826 618.259 549.57 618.319C550.35 618.375 550.989 618.484 551.487 618.646C552.021 618.804 552.307 619.046 552.346 619.372L553.713 631.001C553.755 631.363 553.464 631.709 552.84 632.039C552.216 632.369 551.44 632.661 550.512 632.917C549.616 633.132 548.755 633.324 547.928 633.494C547.132 633.624 546.589 633.705 546.299 633.739L534.307 635.14L534.626 637.857L546.618 636.456C546.909 636.422 547.458 636.395 548.266 636.374C549.106 636.313 549.989 636.301 550.914 636.34C551.872 636.338 552.693 636.426 553.377 636.603C554.056 636.744 554.42 637.014 554.466 637.412L555.731 648.171C555.774 648.534 555.483 648.88 554.859 649.21C554.234 649.54 553.456 649.814 552.524 650.033C551.633 650.284 550.771 650.477 549.94 650.611C549.149 650.776 548.608 650.876 548.317 650.91L528.694 653.202C528.404 653.236 527.836 653.266 526.992 653.291C526.188 653.348 525.305 653.36 524.343 653.325C523.422 653.323 522.62 653.233 521.936 653.056C521.252 652.878 520.888 652.609 520.846 652.246L520.335 647.899C520.288 647.501 520.577 647.137 521.201 646.807C521.83 646.513 522.59 646.241 523.481 645.99C524.413 645.77 525.275 645.578 526.066 645.412C526.897 645.278 527.458 645.194 527.749 645.16L535.38 644.269L535.891 648.616Z" fill="white"/>
<path d="M573.069 638.379L557.807 640.162L554.613 612.993L581.867 609.809C582.158 609.775 582.707 609.748 583.515 609.727C584.355 609.666 585.238 609.654 586.164 609.693C587.121 609.691 587.942 609.779 588.626 609.956C589.306 610.097 589.669 610.367 589.716 610.765L592.692 636.087L577.43 637.87L574.671 614.396L570.31 614.905L573.069 638.379Z" fill="white"/>
<path d="M634.411 603.672L634.845 607.367L619.365 609.175L620.298 617.108L626.621 616.37C626.911 616.336 627.42 616.276 628.147 616.191C628.91 616.102 629.768 616.039 630.721 616.001C631.707 615.922 632.644 615.905 633.533 615.948C634.455 615.95 635.221 616.044 635.832 616.23C636.439 616.379 636.766 616.653 636.813 617.052L638.205 628.897C638.248 629.26 637.957 629.606 637.333 629.936C636.708 630.266 635.932 630.558 635.004 630.814C634.109 631.029 633.247 631.221 632.42 631.391C631.625 631.521 631.082 631.602 630.791 631.636L606.862 634.432L606.428 630.737L622.726 628.833L621.768 620.682L615.445 621.421C615.154 621.455 614.627 621.516 613.864 621.605C613.137 621.69 612.281 621.772 611.296 621.85C610.342 621.888 609.405 621.906 608.484 621.903C607.595 621.86 606.845 621.746 606.233 621.56C605.622 621.375 605.295 621.101 605.253 620.739L603.886 609.11C603.839 608.712 604.13 608.366 604.758 608.072C605.383 607.742 606.143 607.469 607.038 607.255C607.966 606.999 608.827 606.807 609.623 606.677C610.45 606.507 611.009 606.405 611.3 606.371L634.411 603.672Z" fill="white"/>
<path d="M637.408 608.169L636.974 604.474L641.88 603.901L640.985 596.294L655.157 594.638L656.052 602.245L662.593 601.481L663.027 605.176L656.486 605.94L658.683 624.633L665.224 623.868L665.658 627.563L651.486 629.219C651.196 629.253 650.63 629.301 649.79 629.362C648.982 629.383 648.099 629.394 647.142 629.396C646.216 629.357 645.412 629.249 644.728 629.072C644.044 628.895 643.681 628.625 643.638 628.263L641.498 610.06C641.46 609.734 641.664 609.434 642.111 609.162C642.594 608.885 643.193 608.65 643.907 608.456C644.617 608.227 645.331 608.033 646.049 607.876C646.803 607.714 647.451 607.583 647.992 607.483L647.928 606.94L637.408 608.169Z" fill="white"/>
<path d="M664.115 600.202L679.377 598.419L682.137 621.893L686.497 621.383L683.738 597.909L699 596.127L701.977 621.448C702.019 621.81 701.728 622.156 701.104 622.486C700.48 622.816 699.704 623.109 698.776 623.364C697.88 623.579 697.019 623.772 696.192 623.942C695.396 624.071 694.853 624.153 694.563 624.187L674.94 626.479C674.649 626.513 674.084 626.561 673.244 626.622C672.436 626.643 671.553 626.654 670.595 626.656C669.67 626.617 668.865 626.509 668.181 626.332C667.497 626.155 667.134 625.885 667.091 625.523L664.115 600.202Z" fill="white"/>
<path d="M719.215 584.676L734.477 582.894L738.508 617.181C738.55 617.543 738.259 617.889 737.635 618.219C737.011 618.549 736.235 618.842 735.307 619.097C734.411 619.312 733.55 619.504 732.723 619.674C731.927 619.804 731.384 619.886 731.094 619.92L711.471 622.212C711.18 622.246 710.615 622.294 709.775 622.355C708.967 622.376 708.084 622.387 707.126 622.389C706.201 622.35 705.396 622.242 704.712 622.065C704.028 621.888 703.665 621.618 703.622 621.256L700.863 597.782C700.816 597.383 701.107 597.037 701.736 596.744C702.36 596.414 703.12 596.141 704.016 595.926C704.943 595.671 705.805 595.479 706.6 595.349C707.427 595.179 707.986 595.077 708.277 595.043L712.692 594.527C713.092 594.48 713.657 594.433 714.388 594.384C715.156 594.331 715.966 594.328 716.819 594.376C717.667 594.387 718.431 594.463 719.111 594.604C719.791 594.745 720.241 594.967 720.461 595.272L719.215 584.676ZM718.668 617.625L723.028 617.116L720.703 597.337L716.343 597.846L718.668 617.625Z" fill="white"/>
<path d="M752.174 587.161L736.912 588.944L736.395 584.542C736.348 584.144 736.639 583.798 737.267 583.504C737.892 583.174 738.652 582.902 739.547 582.687C740.475 582.432 741.337 582.239 742.132 582.11C742.959 581.939 743.518 581.837 743.809 581.803L751.44 580.912L752.174 587.161ZM737.177 591.667L752.439 589.884L755.633 617.053L740.371 618.836L737.177 591.667Z" fill="white"/>
<path d="M784.567 613.673L764.944 615.965C764.653 615.999 764.088 616.047 763.248 616.108C762.44 616.129 761.557 616.141 760.6 616.142C759.674 616.104 758.869 615.996 758.185 615.818C757.502 615.641 757.138 615.372 757.096 615.009L754.336 591.535C754.29 591.137 754.58 590.791 755.209 590.497C755.833 590.167 756.593 589.895 757.489 589.68C758.417 589.425 759.278 589.232 760.073 589.103C760.901 588.932 761.46 588.83 761.75 588.797L781.373 586.504C781.664 586.47 782.213 586.443 783.021 586.422C783.861 586.361 784.744 586.349 785.67 586.388C786.627 586.386 787.448 586.474 788.132 586.651C788.811 586.792 789.175 587.062 789.222 587.46L791.981 610.934C792.023 611.297 791.733 611.643 791.108 611.973C790.484 612.303 789.708 612.595 788.78 612.85C787.885 613.065 787.023 613.258 786.196 613.428C785.401 613.557 784.858 613.639 784.567 613.673ZM772.141 611.379L776.501 610.87L774.177 591.091L769.816 591.6L772.141 611.379Z" fill="white"/>
<path d="M23.0939 397.944C26.0754 397.4 28.9346 399.369 29.4802 402.341L35.0532 432.701C35.5987 435.673 33.6241 438.523 30.6426 439.067L17.557 441.454C14.5755 441.998 11.7163 440.029 11.1707 437.057L5.59773 406.698C5.05214 403.725 7.02683 400.875 10.0083 400.331L23.0939 397.944Z" fill="white"/>
<path d="M19.0669 336.772C22.0978 336.795 24.5362 339.263 24.5132 342.285L24.2785 373.147C24.2555 376.169 21.7799 378.6 18.749 378.577L5.44649 378.476C2.41559 378.453 -0.022819 375.985 0.000161102 372.964L0.234893 342.101C0.257874 339.08 2.73354 336.649 5.76444 336.672L19.0669 336.772Z" fill="white"/>
<path d="M23.9344 271.823C26.9367 272.238 29.0327 275.001 28.616 277.994L24.3603 308.564C23.9437 311.557 21.1721 313.647 18.1699 313.231L4.99334 311.408C1.99112 310.993 -0.104913 308.23 0.311721 305.237L4.56746 274.667C4.9841 271.674 7.75563 269.584 10.7579 270L23.9344 271.823Z" fill="white"/>
<path d="M41.4452 456.541C43.8647 454.721 47.3061 455.201 49.1316 457.613L67.7787 482.251C69.6043 484.663 69.1227 488.094 66.7031 489.913L56.0838 497.901C53.6642 499.72 50.2228 499.24 48.3973 496.828L29.7502 472.191C27.9247 469.779 28.4062 466.348 30.8258 464.528L41.4452 456.541Z" fill="white"/>
<path d="M31.5541 434.494C32.9533 433.914 34.5596 434.574 35.1419 435.969L44.906 459.358C45.4883 460.752 44.8261 462.354 43.4269 462.934L34.2294 466.75C32.8303 467.33 31.224 466.67 30.6417 465.275L20.8776 441.887C20.2953 440.492 20.9575 438.891 22.3566 438.31L31.5541 434.494Z" fill="white"/>
<path d="M16.7477 372.456C18.2237 372.113 19.699 373.028 20.0429 374.499L25.8091 399.172C26.153 400.643 25.2353 402.114 23.7593 402.456L14.0569 404.71C12.581 405.053 11.1057 404.138 10.7618 402.666L4.99555 377.994C4.65168 376.523 5.56942 375.052 7.04539 374.709L16.7477 372.456Z" fill="white"/>
<path d="M15.6202 309.265C17.1353 309.231 18.3912 310.428 18.4253 311.938L18.9971 337.265C19.0312 338.775 17.8306 340.027 16.3154 340.061L6.35576 340.284C4.84065 340.318 3.58476 339.122 3.55066 337.611L2.97887 312.284C2.94478 310.774 4.14537 309.522 5.66049 309.488L15.6202 309.265Z" fill="white"/>
<path d="M34.9928 206.592C37.9641 207.189 39.8874 210.074 39.2887 213.036L33.173 243.291C32.5743 246.253 29.6803 248.171 26.709 247.574L13.6682 244.954C10.697 244.357 8.77364 241.472 9.37237 238.51L15.4881 208.255C16.0868 205.293 18.9808 203.376 21.9521 203.973L34.9928 206.592Z" fill="white"/>
<path d="M54.0042 148.292C56.8106 149.433 58.1573 152.626 57.0122 155.424L45.3156 184C44.1705 186.798 40.9672 188.141 38.1608 186.999L25.8439 181.989C23.0375 180.847 21.6908 177.654 22.8359 174.857L34.5325 146.28C35.6776 143.483 38.8809 142.14 41.6872 143.282L54.0042 148.292Z" fill="white"/>
<path d="M82.6812 89.7701C85.315 91.2655 86.2341 94.6062 84.734 97.2317L69.4116 124.051C67.9116 126.676 64.5604 127.592 61.9267 126.097L50.3672 119.534C47.7334 118.039 46.8143 114.698 48.3144 112.072L63.6368 85.2534C65.1369 82.6279 68.488 81.7117 71.1218 83.2071L82.6812 89.7701Z" fill="white"/>
<path d="M25.294 244.058C26.7921 244.286 27.8208 245.682 27.5916 247.176L23.7493 272.218C23.5202 273.711 22.12 274.736 20.6219 274.508L10.7742 273.006C9.27617 272.778 8.2475 271.382 8.47664 269.889L12.3189 244.847C12.5481 243.353 13.9483 242.328 15.4463 242.556L25.294 244.058Z" fill="white"/>
<path d="M38.5788 180.575C40.077 180.802 41.1069 182.197 40.879 183.691L37.058 208.736C36.8302 210.229 35.4309 211.256 33.9326 211.029L24.0836 209.536C22.5854 209.308 21.5555 207.913 21.7834 206.42L25.6044 181.375C25.8322 179.881 27.2315 178.854 28.7298 179.082L38.5788 180.575Z" fill="white"/>
<path d="M61.0339 121.471C62.4537 121.999 63.1749 123.575 62.6448 124.99L53.7562 148.723C53.2262 150.138 51.6455 150.857 50.2257 150.329L40.8928 146.855C39.473 146.327 38.7518 144.751 39.2818 143.336L48.1704 119.603C48.7005 118.188 50.2812 117.469 51.701 117.997L61.0339 121.471Z" fill="white"/>
<path d="M798.637 315.455C795.656 314.911 792.796 316.88 792.251 319.852L786.678 350.211C786.132 353.184 788.107 356.034 791.088 356.578L804.174 358.965C807.155 359.509 810.015 357.54 810.56 354.568L816.133 324.208C816.679 321.236 814.704 318.386 811.723 317.842L798.637 315.455Z" fill="white"/>
<path d="M802.664 254.283C799.633 254.306 797.195 256.774 797.218 259.796L797.453 290.658C797.475 293.68 799.951 296.11 802.982 296.088L816.285 295.987C819.315 295.964 821.754 293.496 821.731 290.475L821.496 259.612C821.473 256.591 818.997 254.16 815.967 254.183L802.664 254.283Z" fill="white"/>
<path d="M797.797 189.333C794.794 189.749 792.698 192.512 793.115 195.504L797.371 226.075C797.787 229.068 800.559 231.157 803.561 230.742L816.738 228.919C819.74 228.504 821.836 225.741 821.419 222.748L817.164 192.178C816.747 189.185 813.975 187.095 810.973 187.511L797.797 189.333Z" fill="white"/>
<path d="M780.286 374.052C777.866 372.232 774.425 372.712 772.599 375.124L753.952 399.762C752.127 402.174 752.608 405.604 755.028 407.424L765.647 415.411C768.067 417.231 771.508 416.751 773.334 414.339L791.981 389.701C793.806 387.289 793.325 383.859 790.905 382.039L780.286 374.052Z" fill="white"/>
<path d="M790.177 352.005C788.778 351.425 787.171 352.085 786.589 353.48L776.825 376.868C776.243 378.263 776.905 379.864 778.304 380.445L787.502 384.261C788.901 384.841 790.507 384.181 791.089 382.786L800.853 359.398C801.436 358.003 800.774 356.402 799.374 355.821L790.177 352.005Z" fill="white"/>
<path d="M804.983 289.967C803.507 289.624 802.032 290.539 801.688 292.01L795.922 316.683C795.578 318.154 796.496 319.625 797.972 319.967L807.674 322.221C809.15 322.564 810.625 321.649 810.969 320.177L816.735 295.505C817.079 294.034 816.162 292.563 814.686 292.22L804.983 289.967Z" fill="white"/>
<path d="M806.111 226.776C804.596 226.742 803.34 227.938 803.306 229.449L802.734 254.776C802.7 256.286 803.9 257.538 805.416 257.572L815.375 257.795C816.89 257.829 818.146 256.632 818.18 255.122L818.752 229.795C818.786 228.285 817.586 227.033 816.07 226.999L806.111 226.776Z" fill="white"/>
<path d="M787.374 124.103C784.403 124.7 782.479 127.585 783.078 130.547L789.194 160.802C789.793 163.764 792.687 165.682 795.658 165.085L808.699 162.465C811.67 161.868 813.593 158.983 812.995 156.021L806.879 125.766C806.28 122.804 803.386 120.887 800.415 121.483L787.374 124.103Z" fill="white"/>
<path d="M768.363 65.8026C765.556 66.9441 764.21 70.1374 765.355 72.935L777.051 101.511C778.196 104.309 781.4 105.651 784.206 104.51L796.523 99.4999C799.329 98.3583 800.676 95.1651 799.531 92.3675L787.834 63.7911C786.689 60.9935 783.486 59.651 780.68 60.7925L768.363 65.8026Z" fill="white"/>
<path d="M739.686 7.28101C737.052 8.77637 736.133 12.117 737.633 14.7426L752.955 41.5615C754.455 44.187 757.806 45.1032 760.44 43.6078L772 37.0448C774.634 35.5494 775.553 32.2087 774.053 29.5832L758.73 2.7643C757.23 0.138753 753.879 -0.777441 751.245 0.717927L739.686 7.28101Z" fill="white"/>
<path d="M798.012 160.846C796.507 161.018 795.426 162.375 795.599 163.876L798.493 189.044C798.665 190.545 800.026 191.622 801.531 191.45L811.429 190.319C812.934 190.147 814.015 188.791 813.842 187.29L810.948 162.121C810.776 160.62 809.415 159.543 807.91 159.715L798.012 160.846Z" fill="white"/>
<path d="M783.788 98.0857C782.29 98.3129 781.26 99.7078 781.488 101.201L785.309 126.247C785.537 127.74 786.936 128.767 788.434 128.54L798.283 127.046C799.782 126.819 800.811 125.424 800.584 123.931L796.763 98.8856C796.535 97.392 795.135 96.3653 793.637 96.5925L783.788 98.0857Z" fill="white"/>
<path d="M761.333 38.9815C759.913 39.5099 759.192 41.0857 759.722 42.501L768.611 66.234C769.141 67.6493 770.721 68.3683 772.141 67.8399L781.474 64.3662C782.894 63.8378 783.615 62.2621 783.085 60.8467L774.197 37.1138C773.666 35.6984 772.086 34.9795 770.666 35.5079L761.333 38.9815Z" fill="white"/>
<path d="M191.888 587.152L172.135 589.456L163.854 519.115L183.607 516.811L191.888 587.152Z" fill="white"/>
<path d="M384.614 614.352L305.578 623.584L285.458 452.42C285.224 450.428 286.758 448.596 290.061 446.925C293.364 445.254 297.346 443.871 302.006 442.776C306.645 441.499 311.043 440.526 315.201 439.857C319.337 439.007 322.223 438.486 323.858 438.295L441.051 424.605C442.686 424.414 445.614 424.256 449.836 424.13C454.036 423.823 458.541 423.756 463.35 423.928C468.138 423.92 472.332 424.348 475.934 425.212C479.535 426.077 481.453 427.506 481.687 429.498L501.807 600.662L422.77 609.895L414.115 536.267L375.96 540.724L384.614 614.352ZM373.724 521.706L411.88 517.249L403.768 448.24L365.612 452.697L373.724 521.706Z" stroke="white" stroke-width="18" mask="url(#path-1-inside-1_1155_4524)"/>
<path d="M497.115 437.886L494.816 418.325L610.1 404.858C611.735 404.667 614.664 404.508 618.885 404.382C623.267 404.054 627.954 403.966 632.945 404.117C638.096 404.066 642.472 404.473 646.073 405.338C649.674 406.202 651.603 407.721 651.858 409.895L594.698 569.981L668.284 561.385L670.584 580.946L550.666 594.955C549.031 595.146 546.022 595.405 541.64 595.734C537.419 595.859 532.823 595.937 527.853 595.967C522.863 595.815 518.476 595.318 514.693 594.475C511.092 593.61 509.254 592.08 509.18 589.886L566.068 429.832L497.115 437.886Z" stroke="white" stroke-width="18" mask="url(#path-1-inside-1_1155_4524)"/>
<path d="M798.758 565.974L719.722 575.206L700.72 413.551L658.476 418.486L656.24 399.468L819.764 380.366L822 399.384L779.756 404.319L798.758 565.974Z" stroke="white" stroke-width="18" mask="url(#path-1-inside-1_1155_4524)"/>
<path d="M240.23 623.59L238.559 609.391L256.117 607.343L258.663 628.969C258.937 631.3 258.2 633.231 256.453 634.764C254.705 636.296 252.807 637.182 250.758 637.421L94.9306 655.596C89.5169 656.227 84.6376 655.098 80.2927 652.21C76.0941 649.304 73.669 645.084 73.0175 639.549L55.7863 493.186C55.1348 487.652 56.5139 482.988 59.9238 479.195C63.48 475.385 67.965 473.164 73.3787 472.532L259.933 450.774C265.347 450.142 270.153 451.279 274.351 454.185C278.696 457.074 281.195 461.286 281.846 466.82L294.191 571.677C294.928 577.939 293.282 582.856 289.253 586.426C285.206 589.851 280.256 591.904 274.404 592.587L224.363 598.423C223.193 598.56 221.062 598.735 217.973 598.947C215.012 598.997 211.75 599.009 208.187 598.981C204.624 598.954 201.401 598.666 198.518 598.116C195.635 597.567 193.824 596.67 193.085 595.428C192.654 596.807 191.1 598.096 188.422 599.294C185.892 600.475 182.978 601.553 179.681 602.528C176.367 603.357 173.183 604.024 170.127 604.528C167.071 605.032 164.812 605.369 163.349 605.54L143.157 607.895C141.987 608.031 139.71 608.223 136.328 608.47C133.075 608.554 129.52 608.6 125.664 608.606C121.938 608.45 118.698 608.016 115.944 607.304C113.19 606.592 111.728 605.508 111.556 604.051L101.526 518.855C101.338 517.253 102.509 515.861 105.039 514.68C107.553 513.354 110.613 512.258 114.22 511.395C117.955 510.369 121.424 509.595 124.626 509.074C127.957 508.39 130.208 507.98 131.378 507.844L212.584 498.372C214.34 498.167 216.845 498.023 220.098 497.939C223.48 497.692 226.962 497.655 230.542 497.828C234.251 497.838 237.41 498.208 240.017 498.937C242.607 499.521 243.997 500.614 244.185 502.216L253.341 579.985L274.63 577.502C275.654 577.382 276.261 576.869 276.451 575.961C276.641 575.053 276.693 574.235 276.607 573.507L264.314 469.086C264.211 468.212 263.97 467.428 263.592 466.734C263.343 465.878 262.633 465.517 261.462 465.654L75.3471 487.361C74.3228 487.481 73.7159 487.995 73.5261 488.903C73.3192 489.665 73.2672 490.483 73.37 491.357L90.5498 637.283C90.6184 637.866 90.7601 638.44 90.975 639.005C91.2071 639.716 91.5769 640.338 92.0844 640.869L240.23 623.59ZM172.135 589.456L191.888 587.152L183.607 516.811L163.854 519.115L172.135 589.456Z" stroke="white" stroke-width="18" mask="url(#path-1-inside-1_1155_4524)"/>
<path d="M100.632 669.77L100.198 666.075L126.907 662.955C127.198 662.921 127.747 662.894 128.555 662.873C129.395 662.812 130.278 662.8 131.203 662.839C132.161 662.837 132.982 662.925 133.666 663.102C134.345 663.243 134.709 663.513 134.755 663.911L137.515 687.385C137.557 687.748 137.266 688.094 136.642 688.424C136.018 688.754 135.242 689.046 134.314 689.302C133.418 689.516 132.557 689.709 131.73 689.879C130.934 690.008 130.391 690.09 130.101 690.124L109.987 692.474C109.697 692.508 109.131 692.555 108.291 692.617C107.483 692.638 106.6 692.649 105.643 692.651C104.717 692.612 103.913 692.504 103.229 692.327C102.545 692.15 102.182 691.88 102.139 691.518L100.382 676.575C100.336 676.176 100.626 675.83 101.255 675.536C101.879 675.206 102.639 674.934 103.535 674.719C104.463 674.464 105.324 674.272 106.119 674.142C106.947 673.972 107.506 673.87 107.796 673.836L112.648 673.269C113.047 673.222 113.613 673.175 114.344 673.126C115.111 673.073 115.921 673.07 116.774 673.118C117.623 673.129 118.387 673.205 119.066 673.346C119.746 673.487 120.196 673.709 120.416 674.014C120.456 674.046 120.483 674.117 120.496 674.225L119.71 667.542L100.632 669.77ZM120.713 676.073L115.862 676.639L117.184 687.887L122.035 687.321L120.713 676.073Z" stroke="white" stroke-width="18" mask="url(#path-1-inside-1_1155_4524)"/>
<path d="M169.297 681.8L169.731 685.495L146.838 688.169C146.547 688.203 145.982 688.251 145.142 688.312C144.334 688.333 143.451 688.344 142.493 688.346C141.568 688.307 140.763 688.199 140.079 688.022C139.395 687.845 139.032 687.575 138.989 687.213C138.985 687.177 139.237 686.652 139.744 685.638C140.246 684.587 140.881 683.246 141.647 681.615C142.449 679.978 143.313 678.243 144.24 676.409C145.162 674.539 146.054 672.727 146.916 670.974C147.815 669.216 148.577 667.713 149.204 666.465C149.827 665.18 150.244 664.342 150.456 663.95L136.992 665.523L136.558 661.828L158.906 659.217C159.197 659.183 159.746 659.156 160.554 659.135C161.394 659.074 162.277 659.062 163.203 659.101C164.16 659.099 164.981 659.187 165.665 659.364C166.345 659.505 166.708 659.775 166.755 660.173C166.759 660.21 166.51 660.753 166.007 661.803C165.5 662.817 164.845 664.142 164.043 665.778C163.277 667.41 162.433 669.161 161.511 671.032C160.584 672.866 159.672 674.662 158.773 676.419C157.911 678.172 157.169 679.691 156.546 680.976C155.919 682.224 155.5 683.044 155.288 683.436L169.297 681.8Z" stroke="white" stroke-width="18" mask="url(#path-1-inside-1_1155_4524)"/>
<path d="M168.741 662.916L168.307 659.221L173.213 658.648L172.318 651.041L186.49 649.385L187.385 656.992L193.926 656.228L194.36 659.923L187.819 660.687L190.016 679.38L196.557 678.615L196.991 682.31L182.819 683.966C182.529 684 181.963 684.048 181.123 684.109C180.315 684.13 179.432 684.141 178.475 684.143C177.549 684.104 176.745 683.996 176.061 683.819C175.377 683.642 175.014 683.372 174.971 683.01L172.831 664.807C172.793 664.481 172.997 664.181 173.444 663.909C173.927 663.632 174.526 663.397 175.24 663.203C175.95 662.974 176.664 662.78 177.382 662.623C178.137 662.461 178.784 662.33 179.325 662.23L179.261 661.687L168.741 662.916Z" stroke="white" stroke-width="18" mask="url(#path-1-inside-1_1155_4524)"/>
<path d="M206.545 674.144L207.242 680.066C207.276 680.356 206.974 680.612 206.337 680.833C205.736 681.05 205.095 681.235 204.413 681.388C203.727 681.505 203.257 681.579 203.002 681.608L198.642 682.118L197.945 676.195C197.911 675.905 198.195 675.652 198.795 675.435C199.432 675.213 200.094 675.044 200.78 674.927C201.499 674.77 201.967 674.678 202.185 674.653L206.545 674.144Z" stroke="white" stroke-width="18" mask="url(#path-1-inside-1_1155_4524)"/>
<path d="M224.245 679.127L208.983 680.91L206.007 655.588C205.96 655.19 206.251 654.844 206.879 654.55C207.504 654.22 208.264 653.947 209.159 653.733C210.087 653.477 210.949 653.285 211.744 653.155C212.571 652.985 213.13 652.883 213.421 652.849L231.953 650.684C232.244 650.65 232.755 650.609 233.486 650.56C234.253 650.508 235.064 650.505 235.916 650.552C236.801 650.559 237.602 650.631 238.318 650.767C239.029 650.868 239.495 651.07 239.715 651.375C239.859 651.028 240.247 650.725 240.88 650.468C241.544 650.17 242.27 649.92 243.057 649.718C243.88 649.512 244.653 649.348 245.375 649.227C246.13 649.065 246.689 648.963 247.052 648.921L250.486 648.519C250.777 648.486 251.326 648.458 252.134 648.437C252.974 648.376 253.857 648.364 254.783 648.403C255.74 648.402 256.561 648.489 257.245 648.666C257.924 648.807 258.288 649.077 258.334 649.476L261.311 674.797L246.049 676.58L243.289 653.106L240.019 653.488L242.778 676.962L227.516 678.745L224.757 655.271L221.486 655.653L224.245 679.127Z" stroke="white" stroke-width="18" mask="url(#path-1-inside-1_1155_4524)"/>
<path d="M261.197 651.014L260.763 647.319L287.472 644.199C287.762 644.165 288.312 644.138 289.12 644.117C289.96 644.055 290.842 644.044 291.768 644.083C292.726 644.081 293.546 644.169 294.23 644.346C294.91 644.487 295.273 644.757 295.32 645.155L298.079 668.629C298.122 668.991 297.831 669.337 297.207 669.667C296.582 669.997 295.806 670.29 294.879 670.545C293.983 670.76 293.121 670.953 292.294 671.123C291.499 671.252 290.956 671.334 290.665 671.368L270.552 673.718C270.261 673.751 269.696 673.799 268.856 673.861C268.048 673.881 267.165 673.893 266.207 673.894C265.282 673.856 264.477 673.748 263.793 673.571C263.109 673.393 262.746 673.124 262.703 672.761L260.947 657.819C260.9 657.42 261.191 657.074 261.82 656.78C262.444 656.45 263.204 656.178 264.1 655.963C265.027 655.708 265.889 655.515 266.684 655.386C267.511 655.216 268.07 655.114 268.361 655.08L273.212 654.513C273.612 654.466 274.177 654.419 274.908 654.37C275.676 654.317 276.486 654.314 277.339 654.361C278.187 654.372 278.951 654.448 279.631 654.589C280.311 654.73 280.76 654.953 280.98 655.258C281.021 655.29 281.048 655.36 281.06 655.469L280.275 648.785L261.197 651.014ZM281.278 657.316L276.426 657.883L277.749 669.131L282.6 668.564L281.278 657.316Z" stroke="white" stroke-width="18" mask="url(#path-1-inside-1_1155_4524)"/>
<path d="M315.033 668.521L299.771 670.304L296.795 644.983C296.748 644.584 297.039 644.238 297.667 643.945C298.291 643.615 299.051 643.342 299.947 643.127C300.875 642.872 301.736 642.68 302.532 642.55C303.359 642.38 303.918 642.278 304.209 642.244L322.741 640.079C323.032 640.045 323.543 640.004 324.274 639.955C325.041 639.902 325.851 639.899 326.704 639.947C327.589 639.953 328.39 640.025 329.106 640.162C329.817 640.262 330.283 640.465 330.503 640.77C330.647 640.423 331.035 640.12 331.667 639.863C332.332 639.565 333.058 639.315 333.845 639.112C334.668 638.906 335.441 638.742 336.163 638.621C336.918 638.46 337.477 638.358 337.84 638.315L341.274 637.914C341.565 637.88 342.114 637.853 342.922 637.832C343.762 637.77 344.645 637.759 345.57 637.798C346.528 637.796 347.349 637.884 348.033 638.061C348.712 638.202 349.076 638.472 349.122 638.87L352.099 664.192L336.837 665.974L334.077 642.501L330.807 642.883L333.566 666.357L318.304 668.139L315.545 644.665L312.274 645.047L315.033 668.521Z" stroke="white" stroke-width="18" mask="url(#path-1-inside-1_1155_4524)"/>
<path d="M364.898 651.184L364.463 647.489L380.816 645.579L381.25 649.274L364.898 651.184Z" stroke="white" stroke-width="18" mask="url(#path-1-inside-1_1155_4524)"/>
<path d="M412.139 620.547L427.401 618.764L431.431 653.052C431.474 653.414 431.183 653.76 430.559 654.09C429.935 654.42 429.159 654.713 428.231 654.968C427.335 655.183 426.474 655.375 425.646 655.545C424.851 655.675 424.308 655.757 424.017 655.791L404.395 658.083C404.104 658.117 403.539 658.164 402.698 658.226C401.89 658.247 401.008 658.258 400.05 658.26C399.125 658.221 398.32 658.113 397.636 657.936C396.952 657.759 396.589 657.489 396.546 657.127L393.787 633.653C393.74 633.254 394.031 632.908 394.66 632.614C395.284 632.284 396.044 632.012 396.94 631.797C397.867 631.542 398.729 631.35 399.524 631.22C400.351 631.05 400.91 630.948 401.201 630.914L405.616 630.398C406.016 630.351 406.581 630.304 407.312 630.255C408.08 630.202 408.89 630.199 409.743 630.247C410.591 630.258 411.355 630.334 412.035 630.475C412.714 630.615 413.164 630.838 413.384 631.143L412.139 620.547ZM411.591 653.496L415.952 652.987L413.627 633.208L409.266 633.717L411.591 653.496Z" stroke="white" stroke-width="18" mask="url(#path-1-inside-1_1155_4524)"/>
<path d="M467.2 647L467.635 650.695L440.926 653.815C440.635 653.849 440.07 653.897 439.229 653.958C438.422 653.979 437.539 653.991 436.581 653.992C435.656 653.954 434.851 653.846 434.167 653.668C433.483 653.491 433.12 653.222 433.077 652.859L430.318 629.385C430.271 628.987 430.562 628.641 431.191 628.347C431.815 628.017 432.575 627.745 433.471 627.53C434.398 627.275 435.26 627.082 436.055 626.953C436.882 626.782 437.441 626.68 437.732 626.646L457.355 624.354C457.646 624.32 458.195 624.293 459.003 624.272C459.843 624.211 460.726 624.199 461.651 624.238C462.609 624.236 463.43 624.324 464.113 624.501C464.793 624.642 465.156 624.912 465.203 625.31L467.055 641.068C467.098 641.431 466.807 641.777 466.183 642.107C465.559 642.437 464.783 642.729 463.855 642.985C462.959 643.199 462.098 643.392 461.27 643.562C460.475 643.691 459.932 643.773 459.642 643.807L455.226 644.323C454.863 644.365 454.298 644.413 453.53 644.466C452.763 644.519 451.955 644.54 451.106 644.529C450.254 644.482 449.487 644.387 448.808 644.247C448.128 644.106 447.678 643.883 447.458 643.578L448.122 649.229L467.2 647ZM447.215 641.513L451.576 641.004L450.158 628.941L445.797 629.45L447.215 641.513Z" stroke="white" stroke-width="18" mask="url(#path-1-inside-1_1155_4524)"/>
<path d="M497.374 619.679L497.809 623.374L482.328 625.183L483.261 633.116L489.584 632.377C489.875 632.343 490.383 632.284 491.11 632.199C491.873 632.11 492.731 632.046 493.685 632.008C494.67 631.93 495.608 631.912 496.497 631.956C497.418 631.958 498.184 632.052 498.795 632.238C499.402 632.387 499.729 632.661 499.776 633.06L501.169 644.905C501.211 645.268 500.92 645.614 500.296 645.944C499.672 646.274 498.896 646.566 497.968 646.822C497.072 647.036 496.211 647.229 495.383 647.399C494.588 647.528 494.045 647.61 493.755 647.644L469.826 650.439L469.391 646.745L485.689 644.841L484.731 636.69L478.408 637.429C478.117 637.463 477.59 637.524 476.827 637.613C476.101 637.698 475.244 637.78 474.259 637.858C473.306 637.896 472.368 637.914 471.447 637.911C470.558 637.868 469.808 637.754 469.197 637.568C468.585 637.383 468.258 637.109 468.216 636.746L466.849 625.118C466.802 624.72 467.093 624.373 467.722 624.08C468.346 623.75 469.106 623.477 470.002 623.263C470.929 623.007 471.791 622.815 472.586 622.685C473.413 622.515 473.972 622.413 474.263 622.379L497.374 619.679Z" stroke="white" stroke-width="18" mask="url(#path-1-inside-1_1155_4524)"/>
<path d="M514.807 614.889L499.544 616.672L499.027 612.27C498.98 611.872 499.271 611.526 499.9 611.232C500.524 610.902 501.284 610.63 502.18 610.415C503.107 610.16 503.969 609.967 504.764 609.838C505.591 609.667 506.15 609.565 506.441 609.531L514.072 608.64L514.807 614.889ZM499.809 619.395L515.072 617.612L518.265 644.781L503.003 646.564L499.809 619.395Z" stroke="white" stroke-width="18" mask="url(#path-1-inside-1_1155_4524)"/>
<path d="M535.891 648.616L540.252 648.107L539.421 641.043L527.43 642.444C527.139 642.478 526.573 642.525 525.733 642.587C524.925 642.608 524.043 642.619 523.085 642.621C522.16 642.582 521.355 642.474 520.671 642.297C519.987 642.119 519.624 641.85 519.581 641.488L518.828 635.076C518.781 634.677 519.072 634.331 519.7 634.037C520.324 633.707 521.084 633.435 521.98 633.22C522.908 632.965 523.769 632.772 524.564 632.643C525.392 632.473 525.951 632.371 526.241 632.337L538.233 630.936L536.809 618.819L532.448 619.328L533.553 628.728L525.922 629.62C525.631 629.654 525.066 629.701 524.226 629.763C523.418 629.784 522.535 629.795 521.578 629.797C520.652 629.758 519.847 629.65 519.164 629.473C518.48 629.296 518.116 629.026 518.074 628.664L516.969 619.263C516.922 618.865 517.213 618.519 517.841 618.225C518.466 617.895 519.226 617.623 520.121 617.408C521.049 617.153 521.911 616.96 522.706 616.831C523.533 616.66 524.092 616.558 524.383 616.524L553.545 613.118L553.979 616.813L545.312 617.825L545.37 618.314C545.919 618.287 546.561 618.267 547.297 618.254C548.068 618.238 548.826 618.259 549.57 618.319C550.35 618.375 550.989 618.484 551.487 618.646C552.021 618.804 552.307 619.046 552.346 619.372L553.713 631.001C553.755 631.363 553.464 631.709 552.84 632.039C552.216 632.369 551.44 632.661 550.512 632.917C549.616 633.132 548.755 633.324 547.928 633.494C547.132 633.624 546.589 633.705 546.299 633.739L534.307 635.14L534.626 637.857L546.618 636.456C546.909 636.422 547.458 636.395 548.266 636.374C549.106 636.313 549.989 636.301 550.914 636.34C551.872 636.338 552.693 636.426 553.377 636.603C554.056 636.744 554.42 637.014 554.466 637.412L555.731 648.171C555.774 648.534 555.483 648.88 554.859 649.21C554.234 649.54 553.456 649.814 552.524 650.033C551.633 650.284 550.771 650.477 549.94 650.611C549.149 650.776 548.608 650.876 548.317 650.91L528.694 653.202C528.404 653.236 527.836 653.266 526.992 653.291C526.188 653.348 525.305 653.36 524.343 653.325C523.422 653.323 522.62 653.233 521.936 653.056C521.252 652.878 520.888 652.609 520.846 652.246L520.335 647.899C520.288 647.501 520.577 647.137 521.201 646.807C521.83 646.513 522.59 646.241 523.481 645.99C524.413 645.77 525.275 645.578 526.066 645.412C526.897 645.278 527.458 645.194 527.749 645.16L535.38 644.269L535.891 648.616Z" stroke="white" stroke-width="18" mask="url(#path-1-inside-1_1155_4524)"/>
<path d="M573.069 638.379L557.807 640.162L554.613 612.993L581.867 609.809C582.158 609.775 582.707 609.748 583.515 609.727C584.355 609.666 585.238 609.654 586.164 609.693C587.121 609.691 587.942 609.779 588.626 609.956C589.306 610.097 589.669 610.367 589.716 610.765L592.692 636.087L577.43 637.87L574.671 614.396L570.31 614.905L573.069 638.379Z" stroke="white" stroke-width="18" mask="url(#path-1-inside-1_1155_4524)"/>
<path d="M634.411 603.672L634.845 607.367L619.365 609.175L620.298 617.108L626.621 616.37C626.911 616.336 627.42 616.276 628.147 616.191C628.91 616.102 629.768 616.039 630.721 616.001C631.707 615.922 632.644 615.905 633.533 615.948C634.455 615.95 635.221 616.044 635.832 616.23C636.439 616.379 636.766 616.653 636.813 617.052L638.205 628.897C638.248 629.26 637.957 629.606 637.333 629.936C636.708 630.266 635.932 630.558 635.004 630.814C634.109 631.029 633.247 631.221 632.42 631.391C631.625 631.521 631.082 631.602 630.791 631.636L606.862 634.432L606.428 630.737L622.726 628.833L621.768 620.682L615.445 621.421C615.154 621.455 614.627 621.516 613.864 621.605C613.137 621.69 612.281 621.772 611.296 621.85C610.342 621.888 609.405 621.906 608.484 621.903C607.595 621.86 606.845 621.746 606.233 621.56C605.622 621.375 605.295 621.101 605.253 620.739L603.886 609.11C603.839 608.712 604.13 608.366 604.758 608.072C605.383 607.742 606.143 607.469 607.038 607.255C607.966 606.999 608.827 606.807 609.623 606.677C610.45 606.507 611.009 606.405 611.3 606.371L634.411 603.672Z" stroke="white" stroke-width="18" mask="url(#path-1-inside-1_1155_4524)"/>
<path d="M637.408 608.169L636.974 604.474L641.88 603.901L640.985 596.294L655.157 594.638L656.052 602.245L662.593 601.481L663.027 605.176L656.486 605.94L658.683 624.633L665.224 623.868L665.658 627.563L651.486 629.219C651.196 629.253 650.63 629.301 649.79 629.362C648.982 629.383 648.099 629.394 647.142 629.396C646.216 629.357 645.412 629.249 644.728 629.072C644.044 628.895 643.681 628.625 643.638 628.263L641.498 610.06C641.46 609.734 641.664 609.434 642.111 609.162C642.594 608.885 643.193 608.65 643.907 608.456C644.617 608.227 645.331 608.033 646.049 607.876C646.803 607.714 647.451 607.583 647.992 607.483L647.928 606.94L637.408 608.169Z" stroke="white" stroke-width="18" mask="url(#path-1-inside-1_1155_4524)"/>
<path d="M664.115 600.202L679.377 598.419L682.137 621.893L686.497 621.383L683.738 597.909L699 596.127L701.977 621.448C702.019 621.81 701.728 622.156 701.104 622.486C700.48 622.816 699.704 623.109 698.776 623.364C697.88 623.579 697.019 623.772 696.192 623.942C695.396 624.071 694.853 624.153 694.563 624.187L674.94 626.479C674.649 626.513 674.084 626.561 673.244 626.622C672.436 626.643 671.553 626.654 670.595 626.656C669.67 626.617 668.865 626.509 668.181 626.332C667.497 626.155 667.134 625.885 667.091 625.523L664.115 600.202Z" stroke="white" stroke-width="18" mask="url(#path-1-inside-1_1155_4524)"/>
<path d="M719.215 584.676L734.477 582.894L738.508 617.181C738.55 617.543 738.259 617.889 737.635 618.219C737.011 618.549 736.235 618.842 735.307 619.097C734.411 619.312 733.55 619.504 732.723 619.674C731.927 619.804 731.384 619.886 731.094 619.92L711.471 622.212C711.18 622.246 710.615 622.294 709.775 622.355C708.967 622.376 708.084 622.387 707.126 622.389C706.201 622.35 705.396 622.242 704.712 622.065C704.028 621.888 703.665 621.618 703.622 621.256L700.863 597.782C700.816 597.383 701.107 597.037 701.736 596.744C702.36 596.414 703.12 596.141 704.016 595.926C704.943 595.671 705.805 595.479 706.6 595.349C707.427 595.179 707.986 595.077 708.277 595.043L712.692 594.527C713.092 594.48 713.657 594.433 714.388 594.384C715.156 594.331 715.966 594.328 716.819 594.376C717.667 594.387 718.431 594.463 719.111 594.604C719.791 594.745 720.241 594.967 720.461 595.272L719.215 584.676ZM718.668 617.625L723.028 617.116L720.703 597.337L716.343 597.846L718.668 617.625Z" stroke="white" stroke-width="18" mask="url(#path-1-inside-1_1155_4524)"/>
<path d="M752.174 587.161L736.912 588.944L736.395 584.542C736.348 584.144 736.639 583.798 737.267 583.504C737.892 583.174 738.652 582.902 739.547 582.687C740.475 582.432 741.337 582.239 742.132 582.11C742.959 581.939 743.518 581.837 743.809 581.803L751.44 580.912L752.174 587.161ZM737.177 591.667L752.439 589.884L755.633 617.053L740.371 618.836L737.177 591.667Z" stroke="white" stroke-width="18" mask="url(#path-1-inside-1_1155_4524)"/>
<path d="M784.567 613.673L764.944 615.965C764.653 615.999 764.088 616.047 763.248 616.108C762.44 616.129 761.557 616.141 760.6 616.142C759.674 616.104 758.869 615.996 758.185 615.818C757.502 615.641 757.138 615.372 757.096 615.009L754.336 591.535C754.29 591.137 754.58 590.791 755.209 590.497C755.833 590.167 756.593 589.895 757.489 589.68C758.417 589.425 759.278 589.232 760.073 589.103C760.901 588.932 761.46 588.83 761.75 588.797L781.373 586.504C781.664 586.47 782.213 586.443 783.021 586.422C783.861 586.361 784.744 586.349 785.67 586.388C786.627 586.386 787.448 586.474 788.132 586.651C788.811 586.792 789.175 587.062 789.222 587.46L791.981 610.934C792.023 611.297 791.733 611.643 791.108 611.973C790.484 612.303 789.708 612.595 788.78 612.85C787.885 613.065 787.023 613.258 786.196 613.428C785.401 613.557 784.858 613.639 784.567 613.673ZM772.141 611.379L776.501 610.87L774.177 591.091L769.816 591.6L772.141 611.379Z" stroke="white" stroke-width="18" mask="url(#path-1-inside-1_1155_4524)"/>
<path d="M23.0939 397.944C26.0754 397.4 28.9346 399.369 29.4802 402.341L35.0532 432.701C35.5987 435.673 33.6241 438.523 30.6426 439.067L17.557 441.454C14.5755 441.998 11.7163 440.029 11.1707 437.057L5.59773 406.698C5.05214 403.725 7.02683 400.875 10.0083 400.331L23.0939 397.944Z" stroke="white" stroke-width="18" mask="url(#path-1-inside-1_1155_4524)"/>
<path d="M19.0669 336.772C22.0978 336.795 24.5362 339.263 24.5132 342.285L24.2785 373.147C24.2555 376.169 21.7799 378.6 18.749 378.577L5.44649 378.476C2.41559 378.453 -0.022819 375.985 0.000161102 372.964L0.234893 342.101C0.257874 339.08 2.73354 336.649 5.76444 336.672L19.0669 336.772Z" stroke="white" stroke-width="18" mask="url(#path-1-inside-1_1155_4524)"/>
<path d="M23.9344 271.823C26.9367 272.238 29.0327 275.001 28.616 277.994L24.3603 308.564C23.9437 311.557 21.1721 313.647 18.1699 313.231L4.99334 311.408C1.99112 310.993 -0.104913 308.23 0.311721 305.237L4.56746 274.667C4.9841 271.674 7.75563 269.584 10.7579 270L23.9344 271.823Z" stroke="white" stroke-width="18" mask="url(#path-1-inside-1_1155_4524)"/>
<path d="M41.4452 456.541C43.8647 454.721 47.3061 455.201 49.1316 457.613L67.7787 482.251C69.6043 484.663 69.1227 488.094 66.7031 489.913L56.0838 497.901C53.6642 499.72 50.2228 499.24 48.3973 496.828L29.7502 472.191C27.9247 469.779 28.4062 466.348 30.8258 464.528L41.4452 456.541Z" stroke="white" stroke-width="18" mask="url(#path-1-inside-1_1155_4524)"/>
<path d="M31.5541 434.494C32.9533 433.914 34.5596 434.574 35.1419 435.969L44.906 459.358C45.4883 460.752 44.8261 462.354 43.4269 462.934L34.2294 466.75C32.8303 467.33 31.224 466.67 30.6417 465.275L20.8776 441.887C20.2953 440.492 20.9575 438.891 22.3566 438.31L31.5541 434.494Z" stroke="white" stroke-width="18" mask="url(#path-1-inside-1_1155_4524)"/>
<path d="M16.7477 372.456C18.2237 372.113 19.699 373.028 20.0429 374.499L25.8091 399.172C26.153 400.643 25.2353 402.114 23.7593 402.456L14.0569 404.71C12.581 405.053 11.1057 404.138 10.7618 402.666L4.99555 377.994C4.65168 376.523 5.56942 375.052 7.04539 374.709L16.7477 372.456Z" stroke="white" stroke-width="18" mask="url(#path-1-inside-1_1155_4524)"/>
<path d="M15.6202 309.265C17.1353 309.231 18.3912 310.428 18.4253 311.938L18.9971 337.265C19.0312 338.775 17.8306 340.027 16.3154 340.061L6.35576 340.284C4.84065 340.318 3.58476 339.122 3.55066 337.611L2.97887 312.284C2.94478 310.774 4.14537 309.522 5.66049 309.488L15.6202 309.265Z" stroke="white" stroke-width="18" mask="url(#path-1-inside-1_1155_4524)"/>
<path d="M34.9928 206.592C37.9641 207.189 39.8874 210.074 39.2887 213.036L33.173 243.291C32.5743 246.253 29.6803 248.171 26.709 247.574L13.6682 244.954C10.697 244.357 8.77364 241.472 9.37237 238.51L15.4881 208.255C16.0868 205.293 18.9808 203.376 21.9521 203.973L34.9928 206.592Z" stroke="white" stroke-width="18" mask="url(#path-1-inside-1_1155_4524)"/>
<path d="M54.0042 148.292C56.8106 149.433 58.1573 152.626 57.0122 155.424L45.3156 184C44.1705 186.798 40.9672 188.141 38.1608 186.999L25.8439 181.989C23.0375 180.847 21.6908 177.654 22.8359 174.857L34.5325 146.28C35.6776 143.483 38.8809 142.14 41.6872 143.282L54.0042 148.292Z" stroke="white" stroke-width="18" mask="url(#path-1-inside-1_1155_4524)"/>
<path d="M82.6812 89.7701C85.315 91.2655 86.2341 94.6062 84.734 97.2317L69.4116 124.051C67.9116 126.676 64.5604 127.592 61.9267 126.097L50.3672 119.534C47.7334 118.039 46.8143 114.698 48.3144 112.072L63.6368 85.2534C65.1369 82.6279 68.488 81.7117 71.1218 83.2071L82.6812 89.7701Z" stroke="white" stroke-width="18" mask="url(#path-1-inside-1_1155_4524)"/>
<path d="M25.294 244.058C26.7921 244.286 27.8208 245.682 27.5916 247.176L23.7493 272.218C23.5202 273.711 22.12 274.736 20.6219 274.508L10.7742 273.006C9.27617 272.778 8.2475 271.382 8.47664 269.889L12.3189 244.847C12.5481 243.353 13.9483 242.328 15.4463 242.556L25.294 244.058Z" stroke="white" stroke-width="18" mask="url(#path-1-inside-1_1155_4524)"/>
<path d="M38.5788 180.575C40.077 180.802 41.1069 182.197 40.879 183.691L37.058 208.736C36.8302 210.229 35.4309 211.256 33.9326 211.029L24.0836 209.536C22.5854 209.308 21.5555 207.913 21.7834 206.42L25.6044 181.375C25.8322 179.881 27.2315 178.854 28.7298 179.082L38.5788 180.575Z" stroke="white" stroke-width="18" mask="url(#path-1-inside-1_1155_4524)"/>
<path d="M61.0339 121.471C62.4537 121.999 63.1749 123.575 62.6448 124.99L53.7562 148.723C53.2262 150.138 51.6455 150.857 50.2257 150.329L40.8928 146.855C39.473 146.327 38.7518 144.751 39.2818 143.336L48.1704 119.603C48.7005 118.188 50.2812 117.469 51.701 117.997L61.0339 121.471Z" stroke="white" stroke-width="18" mask="url(#path-1-inside-1_1155_4524)"/>
<path d="M798.637 315.455C795.656 314.911 792.796 316.88 792.251 319.852L786.678 350.211C786.132 353.184 788.107 356.034 791.088 356.578L804.174 358.965C807.155 359.509 810.015 357.54 810.56 354.568L816.133 324.208C816.679 321.236 814.704 318.386 811.723 317.842L798.637 315.455Z" stroke="white" stroke-width="18" mask="url(#path-1-inside-1_1155_4524)"/>
<path d="M802.664 254.283C799.633 254.306 797.195 256.774 797.218 259.796L797.453 290.658C797.475 293.68 799.951 296.11 802.982 296.088L816.285 295.987C819.315 295.964 821.754 293.496 821.731 290.475L821.496 259.612C821.473 256.591 818.997 254.16 815.967 254.183L802.664 254.283Z" stroke="white" stroke-width="18" mask="url(#path-1-inside-1_1155_4524)"/>
<path d="M797.797 189.333C794.794 189.749 792.698 192.512 793.115 195.504L797.371 226.075C797.787 229.068 800.559 231.157 803.561 230.742L816.738 228.919C819.74 228.504 821.836 225.741 821.419 222.748L817.164 192.178C816.747 189.185 813.975 187.095 810.973 187.511L797.797 189.333Z" stroke="white" stroke-width="18" mask="url(#path-1-inside-1_1155_4524)"/>
<path d="M780.286 374.052C777.866 372.232 774.425 372.712 772.599 375.124L753.952 399.762C752.127 402.174 752.608 405.604 755.028 407.424L765.647 415.411C768.067 417.231 771.508 416.751 773.334 414.339L791.981 389.701C793.806 387.289 793.325 383.859 790.905 382.039L780.286 374.052Z" stroke="white" stroke-width="18" mask="url(#path-1-inside-1_1155_4524)"/>
<path d="M790.177 352.005C788.778 351.425 787.171 352.085 786.589 353.48L776.825 376.868C776.243 378.263 776.905 379.864 778.304 380.445L787.502 384.261C788.901 384.841 790.507 384.181 791.089 382.786L800.853 359.398C801.436 358.003 800.774 356.402 799.374 355.821L790.177 352.005Z" stroke="white" stroke-width="18" mask="url(#path-1-inside-1_1155_4524)"/>
<path d="M804.983 289.967C803.507 289.624 802.032 290.539 801.688 292.01L795.922 316.683C795.578 318.154 796.496 319.625 797.972 319.967L807.674 322.221C809.15 322.564 810.625 321.649 810.969 320.177L816.735 295.505C817.079 294.034 816.162 292.563 814.686 292.22L804.983 289.967Z" stroke="white" stroke-width="18" mask="url(#path-1-inside-1_1155_4524)"/>
<path d="M806.111 226.776C804.596 226.742 803.34 227.938 803.306 229.449L802.734 254.776C802.7 256.286 803.9 257.538 805.416 257.572L815.375 257.795C816.89 257.829 818.146 256.632 818.18 255.122L818.752 229.795C818.786 228.285 817.586 227.033 816.07 226.999L806.111 226.776Z" stroke="white" stroke-width="18" mask="url(#path-1-inside-1_1155_4524)"/>
<path d="M787.374 124.103C784.403 124.7 782.479 127.585 783.078 130.547L789.194 160.802C789.793 163.764 792.687 165.682 795.658 165.085L808.699 162.465C811.67 161.868 813.593 158.983 812.995 156.021L806.879 125.766C806.28 122.804 803.386 120.887 800.415 121.483L787.374 124.103Z" stroke="white" stroke-width="18" mask="url(#path-1-inside-1_1155_4524)"/>
<path d="M768.363 65.8026C765.556 66.9441 764.21 70.1374 765.355 72.935L777.051 101.511C778.196 104.309 781.4 105.651 784.206 104.51L796.523 99.4999C799.329 98.3583 800.676 95.1651 799.531 92.3675L787.834 63.7911C786.689 60.9935 783.486 59.651 780.68 60.7925L768.363 65.8026Z" stroke="white" stroke-width="18" mask="url(#path-1-inside-1_1155_4524)"/>
<path d="M739.686 7.28101C737.052 8.77637 736.133 12.117 737.633 14.7426L752.955 41.5615C754.455 44.187 757.806 45.1032 760.44 43.6078L772 37.0448C774.634 35.5494 775.553 32.2087 774.053 29.5832L758.73 2.7643C757.23 0.138753 753.879 -0.777441 751.245 0.717927L739.686 7.28101Z" stroke="white" stroke-width="18" mask="url(#path-1-inside-1_1155_4524)"/>
<path d="M798.012 160.846C796.507 161.018 795.426 162.375 795.599 163.876L798.493 189.044C798.665 190.545 800.026 191.622 801.531 191.45L811.429 190.319C812.934 190.147 814.015 188.791 813.842 187.29L810.948 162.121C810.776 160.62 809.415 159.543 807.91 159.715L798.012 160.846Z" stroke="white" stroke-width="18" mask="url(#path-1-inside-1_1155_4524)"/>
<path d="M783.788 98.0857C782.29 98.3129 781.26 99.7078 781.488 101.201L785.309 126.247C785.537 127.74 786.936 128.767 788.434 128.54L798.283 127.046C799.782 126.819 800.811 125.424 800.584 123.931L796.763 98.8856C796.535 97.392 795.135 96.3653 793.637 96.5925L783.788 98.0857Z" stroke="white" stroke-width="18" mask="url(#path-1-inside-1_1155_4524)"/>
<path d="M761.333 38.9815C759.913 39.5099 759.192 41.0857 759.722 42.501L768.611 66.234C769.141 67.6493 770.721 68.3683 772.141 67.8399L781.474 64.3662C782.894 63.8378 783.615 62.2621 783.085 60.8467L774.197 37.1138C773.666 35.6984 772.086 34.9795 770.666 35.5079L761.333 38.9815Z" stroke="white" stroke-width="18" mask="url(#path-1-inside-1_1155_4524)"/>
<path d="M191.888 587.152L172.135 589.456L163.854 519.115L183.607 516.811L191.888 587.152Z" stroke="white" stroke-width="18" mask="url(#path-1-inside-1_1155_4524)"/>
</svg>
